<?xml version="1.0" encoding="UTF-8"?>
<svg width="1500px" height="500px" viewBox="0 0 1500 500" version="1.1" xmlns="http://www.w3.org/2000/svg" xmlns:xlink="http://www.w3.org/1999/xlink">
    <title>Umentor-Github-1500x500</title>
    <defs>
        <radialGradient cx="-10.8837924%" cy="75.6031886%" fx="-10.8837924%" fy="75.6031886%" r="61.5905482%" gradientTransform="translate(-0.108838,0.756032),scale(0.988035,1.000000),translate(0.108838,-0.756032)" id="radialGradient-1">
            <stop stop-color="#33312D" offset="0.7%"></stop>
            <stop stop-color="#3D3B37" offset="10.5%"></stop>
            <stop stop-color="#5E5B58" offset="47.8%"></stop>
            <stop stop-color="#726F6C" offset="79%"></stop>
            <stop stop-color="#797673" offset="100%"></stop>
        </radialGradient>
        <radialGradient cx="32.069961%" cy="-51.4434431%" fx="32.069961%" fy="-51.4434431%" r="90.3761477%" gradientTransform="translate(0.320700,-0.514434),scale(0.692333,1.000000),rotate(180.000000),translate(-0.320700,0.514434)" id="radialGradient-2">
            <stop stop-color="#9B643D" offset="0%"></stop>
            <stop stop-color="#A36E48" offset="7.1%"></stop>
            <stop stop-color="#D2A987" offset="51.1%"></stop>
            <stop stop-color="#EFCEAE" offset="83.3%"></stop>
            <stop stop-color="#FADCBD" offset="100%"></stop>
        </radialGradient>
        <radialGradient cx="106.529664%" cy="54.2992181%" fx="106.529664%" fy="54.2992181%" r="65.7099689%" gradientTransform="translate(1.065297,0.542992),scale(1.000000,0.918371),translate(-1.065297,-0.542992)" id="radialGradient-3">
            <stop stop-color="#9B643D" offset="0%"></stop>
            <stop stop-color="#B78763" stop-opacity="0.678" offset="32.1%"></stop>
            <stop stop-color="#FADCBD" stop-opacity="0" offset="100%"></stop>
        </radialGradient>
        <radialGradient cx="52.4766248%" cy="104.931423%" fx="52.4766248%" fy="104.931423%" r="81.4708467%" gradientTransform="translate(0.524766,1.049314),scale(1.000000,0.569903),translate(-0.524766,-1.049314)" id="radialGradient-4">
            <stop stop-color="#33312D" offset="0.7%"></stop>
            <stop stop-color="#3D3B37" offset="10.5%"></stop>
            <stop stop-color="#5E5B58" offset="47.8%"></stop>
            <stop stop-color="#726F6C" offset="79%"></stop>
            <stop stop-color="#797673" offset="100%"></stop>
        </radialGradient>
        <radialGradient cx="88.8557317%" cy="45.3206892%" fx="88.8557317%" fy="45.3206892%" r="78.3198702%" gradientTransform="translate(0.888557,0.453207),scale(1.000000,0.822976),rotate(-179.913838),translate(-0.888557,-0.453207)" id="radialGradient-5">
            <stop stop-color="#744D2C" offset="0%"></stop>
            <stop stop-color="#BE906B" stop-opacity="0" offset="100%"></stop>
        </radialGradient>
        <radialGradient cx="50.4662661%" cy="24.7005126%" fx="50.4662661%" fy="24.7005126%" r="97.9958271%" gradientTransform="translate(0.504663,0.247005),scale(0.605427,1.000000),rotate(180.000000),translate(-0.504663,-0.247005)" id="radialGradient-6">
            <stop stop-color="#591C17" offset="0%"></stop>
            <stop stop-color="#7B422B" stop-opacity="0.454" offset="54.5%"></stop>
            <stop stop-color="#9B643D" stop-opacity="0" offset="100%"></stop>
        </radialGradient>
        <radialGradient cx="100.642577%" cy="46.2134822%" fx="100.642577%" fy="46.2134822%" r="52.4513144%" gradientTransform="translate(1.006426,0.462135),scale(1.000000,0.561847),rotate(4.012053),translate(-1.006426,-0.462135)" id="radialGradient-7">
            <stop stop-color="#593417" offset="0%"></stop>
            <stop stop-color="#9B643D" stop-opacity="0" offset="100%"></stop>
        </radialGradient>
    </defs>
    <g id="Page-1" stroke="none" stroke-width="1" fill="none" fill-rule="evenodd">
        <rect id="Rectangle" fill="#323330" x="0" y="0" width="1500" height="500"></rect>
        <path d="M444.426834,39 C486.705477,39 550.24483,48.2286715 597.193124,98.8098327 C628.491986,132.530607 648.094278,172.381179 656,218.36155 L656,546 L532.932355,546 L532.932355,340.338746 L532.932355,340.338746 C532.932355,321.873026 523.22168,300.72827 495.154761,284.249597 C510.994101,270.320598 521,249.836539 521,227 C521,185.026359 487.197499,151 445.5,151 C403.802501,151 370,185.026359 370,227 C370,249.399901 379.626928,269.536421 394.943164,283.445863 C379.022911,292.454411 359.425466,309.248797 359.425466,340.338746 L359.425466,546 L359.425466,546 L223.984854,546 L223.984854,415.091922 L223.984854,415.091922 C223.984854,379.880117 210.443085,367.371091 185.268574,353.252153 C200.462015,339.349899 210,319.296184 210,297 C210,255.026359 176.197499,221 134.5,221 C92.8025014,221 59,255.026359 59,297 C59,319.117297 68.3855487,339.027965 83.366187,352.916442 C61.3946291,360.385893 43.7892576,374.057231 43.7892576,415.091922 L43.7892576,546 L43.7892576,546 L-78,546 L-78,218.36155 C-74.6901723,180.887042 -56.2179549,143.685921 -22.5833477,106.758189 C27.8685631,51.3665894 96.7418266,39 136.081077,39 C193.880456,39 244.85343,61.5860628 289,106.758189 C327.613051,61.5860628 379.421995,39 444.426834,39 Z" id="Combined-Shape" stroke="#000000" fill="#FFFFFF"></path>
        <g id="Microsoft-Team-Illustration" transform="translate(372.000000, 45.000000)">
            <g id="Bottom-Right" transform="translate(475.000000, 56.000000)" fill-rule="nonzero">
                <path d="M226.514475,146.272009 C223.135088,132.340025 196.4997,134.082735 193.122735,121.389311 C189.748193,108.693464 203.064675,98.1620668 197.044763,86.3630241 C191.022428,74.5639813 176.81931,74.6851711 168.507713,63.5187393 C160.198538,52.3523075 157.364213,27.4284051 157.364213,27.4284051 L117.55527,8.98573529 L114.963195,20.2806283 L112.213658,7.79807487 L72.1988025,27.4284051 C72.1988025,27.4284051 69.0931575,52.4395642 60.6580125,63.8580709 C52.2228675,75.2765775 36.2731275,74.3821965 30.1224,86.3630241 C23.9716725,98.3438516 38.925765,109.672678 35.4107175,122.470325 C31.8980925,135.267972 7.43811,135.008626 1.7428125,148.354051 C-7.334295,169.625291 22.2710775,173.634251 22.2613875,185.656283 C22.258965,191.102555 18.3078675,193.334872 13.3950375,195.81684 L221.86812,195.81684 C213.95139,192.198111 205.513823,191.434615 205.58892,184.19231 C205.710045,172.170278 232.17828,169.625291 226.514475,146.272009 Z" id="Path" fill="#FFFFFF"></path>
                <path d="M91.726575,105.97154 L72.3053925,128.968524 L74.90958,169.23506 C78.0915656,177.744033 79.8012824,186.733253 79.9653375,195.81684 L150.363187,195.81684 C150.526326,186.733378 152.235227,177.744139 155.416522,169.23506 L163.241197,146.349571 L141.051097,105.969116 L91.7289975,105.969116 L91.726575,105.97154 Z" id="Path" fill="url(#radialGradient-1)"></path>
                <path d="M174.57123,130.262832 C168.141915,111.725634 141.048675,105.969116 141.048675,105.969116 C141.048675,105.969116 144.108292,159.920409 150.54003,195.819263 L178.871167,195.81684 C176.203995,170.955956 178.859055,142.63389 174.57123,130.265255 L174.57123,130.262832 Z" id="Path" fill="#797673"></path>
                <path d="M160.041075,41.229504 C160.041075,43.2194412 159.922372,45.1802928 159.69708,47.1023636 C158.439802,57.7040508 153.82494,67.2126056 147.00318,74.3943155 C138.95079,82.8872995 127.819402,88.1372433 115.532482,88.1372433 L114.77424,88.1372433 C91.9615575,88.1372433 73.150845,70.0436003 70.5708825,46.7315227 C70.3650346,44.9047837 70.2631252,43.0678151 70.2656018,41.229504 C70.2656018,29.9758155 74.5922325,19.7861738 81.59568,12.4154078 C84.98718,8.83545989 89.00853,5.91963235 93.470775,3.86667647 C98.3196891,1.62915745 103.596249,0.471397656 108.936015,0.47335847 L121.370707,0.47335847 C127.00302,0.47335847 132.354322,1.74343048 137.175097,4.02907086 C150.653888,10.3988088 160.043498,24.6555816 160.043498,41.229504 L160.041075,41.229504 Z" id="Path" fill="#FFFFFF"></path>
                <polygon id="Path" fill="#FADCBD" points="105.832792 69.5806551 124.47393 69.5806551 124.47393 107.602755 105.832792 107.602755"></polygon>
                <path d="M130.825725,84.2494733 L127.407577,85.6892086 C125.631525,86.4372038 124.476501,88.1773524 124.476353,90.1053663 L124.476353,94.0731217 C124.476353,98.3438516 127.453605,102.217079 131.62515,103.116307 L132.41973,103.288397 L115.983067,107.052553 L99.4761525,103.155088 C103.25784,101.971337 105.832423,98.466695 105.832792,94.5021337 L105.832792,90.1053663 C105.832792,88.1760241 104.67726,86.435738 102.901567,85.6892086 L99.4761525,84.2446257 L130.823302,84.2494733 L130.825725,84.2494733 Z" id="Path" fill="url(#radialGradient-2)"></path>
                <path d="M115.547017,88.2148048 L114.762127,88.2148048 C97.424295,88.2148048 83.3665275,74.149512 83.3665275,56.8023984 L83.3665275,56.5697139 C83.3665275,41.4985455 95.5807725,29.277762 110.643877,29.277762 L119.665267,29.277762 C134.730795,29.277762 146.942617,41.4985455 146.942617,56.5697139 L146.942617,56.8023984 C146.942617,74.149512 132.887272,88.2148048 115.547017,88.2148048 L115.547017,88.2148048 Z" id="Path" fill="#FADCBD"></path>
                <ellipse id="Oval" fill="#605D5A" cx="127.625603" cy="58.4869372" rx="2.6817075" ry="4.77730348"></ellipse>
                <polygon id="Path" fill="url(#radialGradient-3)" points="92.0051625 50.6798877 115.406512 50.6798877 115.406512 76.1612634 92.0051625 76.1612634"></polygon>
                <ellipse id="Oval" fill="#605D5A" cx="102.300788" cy="58.4869372" rx="2.6817075" ry="4.77730348"></ellipse>
                <path d="M157.96257,49.7127928 C154.75686,51.3950934 151.189941,52.2710787 147.570045,52.2650873 C135.744072,52.2650873 125.951062,43.075695 125.193412,31.2676992 L105.701977,31.2676992 C104.944268,43.0766275 95.1498295,52.2663488 83.3229225,52.2650873 C79.463189,52.2720348 75.6677321,51.2765199 72.307815,49.375885 C72.10917,47.7252794 86.154825,17.982869 86.154825,17.982869 L145.535145,17.982869 C145.535145,17.982869 158.180595,47.9628115 157.96257,49.7127928 Z" id="Path" fill="#FFFFFF"></path>
                <path d="M125.198257,29.277762 C125.186145,29.2389813 125.198257,31.2676992 125.198257,31.2676992 L115.454962,31.2628516 L115.454962,29.2195909 C115.707492,26.7067266 117.828923,24.7983604 120.353062,24.8134305 C122.8772,24.8285005 124.975719,26.7620614 125.198257,29.277762 L125.198257,29.277762 Z M115.454962,29.277762 L115.435582,29.2220147 L115.435582,31.2628516 L105.709245,31.2628516 L105.709245,29.2220147 C105.954968,26.7034739 108.078404,24.7872402 110.607521,24.8017073 C113.136638,24.8161743 115.238037,26.7565748 115.454962,29.277762 Z" id="Shape" fill="#E0BB95"></path>
                <path d="M118.124557,50.5708168 C118.124557,50.5708168 116.268922,51.2931083 115.40409,55.8546939 C114.301852,61.6718061 109.989802,61.9747807 111.077505,66.1970348 C111.68313,68.5456939 115.098855,69.8133396 115.40409,71.6263396 C115.40409,71.6263396 125.595547,69.8812059 118.124557,50.5708168 Z" id="Path" fill="#FADCBD"></path>
                <path d="M111.40212,75.7177086 C113.47578,76.0206832 114.873562,75.9285789 116.416695,75.5892473 C117.190671,75.4165762 117.951588,75.1897986 118.693845,74.9105842 C119.53508,74.5781843 120.351172,74.1853112 121.135725,73.7350428 L121.220512,73.6865668 C121.471509,73.5435494 121.78084,73.5505152 122.025151,73.7046862 C122.269463,73.8588573 122.409015,74.1351559 122.388157,74.4234011 C122.298525,75.7152848 121.581465,76.8956738 120.643957,77.7561217 C119.701605,78.6286885 118.521847,79.2443329 117.252457,79.5012553 C115.971692,79.7752635 114.639805,79.6845761 113.40795,79.2394853 C112.18701,78.7983543 111.10173,77.9645682 110.522752,76.8423503 C110.388188,76.5818468 110.410407,76.2679456 110.580323,76.0290174 C110.750239,75.7900892 111.039358,75.6661995 111.329445,75.7080134 L111.40212,75.7177086 L111.40212,75.7177086 Z" id="Path" fill="#BF8F68"></path>
                <path d="M77.7850875,178.651511 C79.8199875,174.538328 86.3244,155.436385 86.3244,155.436385 L91.7289975,105.97154 C91.7289975,105.97154 64.6357575,111.725634 58.2064425,130.265255 C53.17491,144.778951 52.76793,174.72496 40.999425,194.801269 C55.534425,197.011771 77.7850875,178.651511 77.7850875,178.651511 Z" id="Path" fill="url(#radialGradient-4)"></path>
                <path d="M132.364012,110.581602 C121.910344,117.838447 108.024484,117.731695 97.6835025,110.314984 C95.6814543,108.890941 93.6964778,107.443023 91.7289975,105.97154 C94.55121,105.052921 96.89619,104.255492 97.8336975,103.84587 C104.277547,101.034266 107.993662,100.430741 115.154573,100.430741 C117.153135,100.430741 120.709365,100.687663 124.47393,101.392988 C131.87709,102.7794 141.048675,105.97154 141.048675,105.97154 L132.364013,110.581602 L132.364012,110.581602 Z M91.3074825,149.192684 L95.428155,128.003853 C95.864205,125.759417 97.414605,123.893094 99.536715,123.052036 L106.329405,120.356774 C107.51456,119.571824 109.048762,119.551926 110.253855,120.305874 C110.253855,120.305874 117.688507,124.540247 117.89442,125.083178 C119.372145,129.009729 113.470935,126.285381 113.470935,126.285381 L115.96611,128.534664 C117.143123,129.59282 117.605295,131.234879 117.153135,132.752071 L112.237882,139.919238 C111.987687,140.139338 111.64032,140.211744 111.323093,140.109919 C111.005867,140.008094 110.76543,139.747011 110.689905,139.42236 L109.74513,135.364924 L105.592965,134.504476 C105.592965,134.504476 103.318237,132.735104 103.044495,148.884862 C102.935482,155.28611 95.6825175,158.201937 95.6825175,158.201937" id="Shape" fill="#FADCBD"></path>
                <path d="M40.398645,195.81684 L72.21576,195.81684 C83.712945,179.068404 95.6825175,158.199513 95.6825175,158.199513 L91.3074825,149.190261 C91.3074825,149.190261 49.3982325,180.314235 40.398645,195.81684 L40.398645,195.81684 Z" id="Path" fill="#797673"></path>
                <path d="M263.663512,184.328241 L192.599475,184.328241 C190.299339,184.343668 188.088917,183.436194 186.462666,181.808616 C184.836414,180.181039 183.930044,177.96918 183.94609,175.667817 L183.94609,132.041898 C183.930696,129.740954 184.837353,127.529722 186.463533,125.902672 C188.089713,124.275621 190.299762,123.368478 192.599475,123.383898 L263.663512,123.383898 C265.963226,123.368478 268.173274,124.275621 269.799454,125.902672 C271.425635,127.529722 272.332292,129.740954 272.316881,132.041898 L272.316881,175.670241 C272.332292,177.971185 271.425635,180.182417 269.799454,181.809467 C268.173274,183.436518 265.963226,184.343661 263.663512,184.328241 L263.663512,184.328241 Z" id="Path" fill="#F7B548"></path>
                <path d="M240.032025,152.023679 L241.3644,152.023679 C242.694352,152.023679 243.692422,152.522981 244.690492,153.356767 C245.523832,154.355372 246.022867,155.353976 246.022867,156.687064 C246.022867,158.020152 245.523832,159.183575 244.690492,160.017361 C243.859575,160.848723 242.694352,161.350449 241.361977,161.350449 L240.029602,161.350449 L240.029602,152.023679 L240.032025,152.023679 Z M215.232892,152.190921 L213.900517,152.190921 C212.570565,152.190921 211.574917,152.690223 210.574425,153.524009 C209.741085,154.522614 209.24205,155.521218 209.24205,156.854306 C209.24205,158.184971 209.741085,159.183575 210.574425,160.182179 C211.405342,161.015965 212.570565,161.515267 213.90294,161.515267 L215.235315,161.515267 L215.235315,152.190921 L215.232892,152.190921 Z" id="Shape" fill="#BE906B"></path>
                <path d="M232.04262,153.85607 C232.04262,153.356767 232.209773,152.857465 232.374503,152.358163 C232.544078,151.856437 232.87596,151.691619 233.207843,151.691619 C233.539725,151.691619 233.706878,151.856437 234.03876,152.358163 C234.208335,152.690223 234.373065,153.189525 234.373065,153.85607 C234.373065,154.522614 234.205912,155.019492 234.03876,155.353976 C233.87403,155.68846 233.539725,156.02052 233.207843,156.02052 C232.87596,156.02052 232.708808,155.853278 232.374503,155.353976 C232.148778,154.887353 232.035131,154.37442 232.04262,153.85607 Z" id="Path" fill="#33312D"></path>
                <polygon id="Path" fill="url(#radialGradient-5)" points="217.563337 151.524377 226.882695 151.524377 226.882695 162.848356 217.563337 162.848356"></polygon>
                <path d="M220.392818,153.85607 C220.392818,153.356767 220.55997,152.857465 220.7247,152.358163 C220.894275,151.856437 221.226157,151.691619 221.55804,151.691619 C221.889923,151.691619 222.057075,151.856437 222.39138,152.358163 C222.55611,152.690223 222.723263,153.189525 222.723263,153.85607 C222.723263,154.522614 222.55611,155.019492 222.39138,155.353976 C222.221805,155.68846 221.892345,156.02052 221.55804,156.02052 C221.223735,156.02052 221.059005,155.853278 220.7247,155.353976 C220.392818,155.021916 220.392818,154.522614 220.392818,153.85607 Z" id="Path" fill="#33312D"></path>
                <path d="M225.884625,162.513872 C226.21893,162.513872 226.550812,162.513872 227.049847,162.349053 C227.384152,162.179388 227.883187,162.179388 228.21507,162.01457 L229.21314,161.515267 C229.547445,161.348025 229.879327,161.183207 230.213632,160.848723 C230.378362,160.683905 230.545515,160.683905 230.712667,160.848723 L230.877397,161.015965 C230.877397,161.682509 230.712667,162.179388 230.213632,162.681114 C229.879327,163.180416 229.380292,163.347658 228.714105,163.5149 C228.21507,163.679718 227.551305,163.84696 227.049847,163.679718 C226.450929,163.643053 225.900669,163.337486 225.552742,162.848356 C225.38559,162.681114 225.552742,162.513872 225.719895,162.349053 C225.55032,162.513872 225.55032,162.349053 225.884625,162.513872 L225.884625,162.513872 Z" id="Path" fill="#9A6541"></path>
                <path d="M229.045987,156.687064 C229.045987,158.020152 227.883187,161.515267 226.882695,161.849751 C226.882695,161.849751 226.882695,161.515267 226.717965,161.015965 C226.54839,160.182179 226.051777,159.350817 225.38559,159.018757 C224.719402,158.684273 223.888485,158.017729 223.888485,156.687064 C223.888485,155.3564 224.886555,154.687432 225.552742,154.355372 C226.258551,154.017177 226.709881,153.305952 226.715542,152.522981 C226.885117,151.691619 226.885117,151.025075 226.885117,151.025075 C227.716035,151.524377 229.045987,155.68846 229.045987,156.687064 L229.045987,156.687064 Z" id="Path" fill="#BE906B"></path>
                <path d="M227.883187,174.836455 C215.400045,174.836455 205.4145,164.845564 205.4145,152.358163 C205.4145,139.870762 215.400045,129.877448 227.883187,129.877448 C240.36633,129.877448 250.349452,139.868338 250.349452,152.358163 C250.349452,164.678322 240.199177,174.836455 227.883187,174.836455 Z" id="Path" fill="#F3F2F1"></path>
                <path d="M227.883187,179.999142 C225.129069,179.991154 222.898398,177.75929 222.890415,175.003697 L222.890415,164.17902 L232.87596,164.17902 L232.87596,175.003697 C232.866648,177.758343 230.636364,179.988738 227.883188,179.996718 L227.883187,179.999142 Z" id="Path" fill="#BE906B"></path>
                <path d="M206.746875,184.328043 L249.0195,184.328043 C243.997659,177.719755 236.177851,173.83914 227.880765,173.83785 C219.585471,173.841029 211.76793,177.721408 206.746875,184.328043 L206.746875,184.328043 Z" id="Path" fill="#605D5A"></path>
                <path d="M227.883188,169.009781 C219.5619,169.009781 212.90487,162.349053 212.90487,154.023311 C212.90487,145.69757 219.5619,139.036976 227.883188,139.036976 C236.204475,139.036976 242.861639,145.69757 242.861639,154.023311 C242.878338,158.003074 241.305675,161.8247 238.493039,164.638842 C235.680402,167.452985 231.860821,169.026489 227.883188,169.009781 Z" id="Path" fill="#BE906B"></path>
                <path d="M244.191473,149.859229 C239.902409,149.883911 235.781888,148.190095 232.749023,145.155606 C229.716158,142.121118 228.023249,137.998391 228.047918,133.707031 L234.8721,133.707031 C237.345128,133.702532 239.718165,134.683466 241.466863,136.4331 C243.215561,138.182733 244.19597,140.557041 244.191473,143.031393 L244.191473,149.859229 L244.191473,149.859229 Z" id="Path" fill="#F3F2F1"></path>
            </g>
            <g id="Bottom-Left" fill-rule="nonzero">
                <path d="M161.196429,128.649668 C161.196429,128.649668 94.6754466,143.578317 59.8166478,117.075936 C15.691586,83.5267639 22.5971582,33.874477 22.5971582,33.874477 L6.26107975,37.2293942 C6.26107975,37.2293942 -12.7690788,125.629266 15.5248913,170.417655 C50.7219823,225.942268 130.54667,222.250394 130.54667,222.250394 L161.196429,128.649668 L161.196429,128.649668 Z" id="Path" fill="#9B643D"></path>
                <path d="M371.477204,228.597156 C376.355215,175.443723 339.513011,129.146444 288.876713,129.146444 L206.273773,129.146444 C155.637476,129.146444 118.96179,175.446156 123.675731,228.597156 L125.860061,253 L369.290425,253 L371.477204,228.597156 L371.477204,228.597156 Z" id="Path" fill="#8B8CC4"></path>
                <path d="M105.708195,229.891301 C116.502212,240.273666 137.245775,236.422929 137.245775,236.422929 C137.245775,236.422929 234.217637,133.618021 195.092086,128.429275 C169.625373,125.080597 151.749086,128.429275 129.488419,131.275896 C116.165896,132.950235 92.7244426,130.605673 92.7244426,130.605673 C92.7244426,130.605673 86.145419,210.63762 105.71065,229.891301 L105.708195,229.891301 Z" id="Path" fill="#8B8CC4"></path>
                <path d="M290.361025,128.090303 L284.464286,227.54961 C284.464286,227.54961 312.763733,231.734471 331.123311,253 L412.986241,253 C414.501494,160.740507 290.361025,128.087866 290.361025,128.087866 L290.361025,128.090303 Z" id="Path" fill="#9B643D"></path>
                <path d="M399.303571,201.427953 C364.398163,133.108823 290.365313,128.087866 290.365313,128.087866 L284.464286,227.549113 C284.464286,227.549113 304.869958,230.561687 325.275631,253 L329.320927,253 C347.365207,227.714853 381.092374,208.125811 399.303571,201.425516 L399.303571,201.427953 Z" id="Path" fill="#8B8CC4"></path>
                <path d="M287.005136,93.1797331 L287.34334,119.128327 C287.34334,124.352383 291.720386,127.889044 297.107143,128.227504 L274.378853,140.694111 C255.520304,149.45728 233.635073,149.28805 214.776524,140.188874 L194.910714,128.563511 C200.302389,128.559452 204.671814,124.185623 204.674517,118.789868 L204.84607,89.9790795 L287.005136,93.1797331 L287.005136,93.1797331 Z" id="Path" fill="#9B643D"></path>
                <polygon id="Path" fill="url(#radialGradient-6)" points="287.625 93.1399697 287.625 139.732218 205.446429 139.400385 205.446429 89.9790795"></polygon>
                <ellipse id="Oval" fill="#9B643D" cx="284.464286" cy="83.6276151" rx="8.42857143" ry="8.46861925"></ellipse>
                <path d="M250.135336,122.793727 L242.770425,122.793727 C222.183756,122.793727 205.446429,105.768 205.446429,85.03484 L205.446429,80.9912604 C205.446429,60.2581006 222.349424,43.4016736 242.936093,43.4016736 L250.301004,43.4016736 C270.887673,43.4016736 287.625,60.4249473 287.625,81.1581071 L287.625,85.206594 C287.456896,105.939754 270.553901,122.963027 250.1329,122.793727 L250.135336,122.793727 Z" id="Path" fill="#9B643D"></path>
                <path d="M248.640216,59.5286534 C247.977766,75.5674214 244.820249,78.7411275 242.330016,81.9172657 C240.171009,84.7577935 241.333924,88.264678 244.98707,89.7700605 C245.651938,89.9354337 246.147566,90.4388491 246.648031,90.7720275 C247.808527,91.6086213 248.475813,93.1115718 248.475813,94.6145223 L247.477302,120.677824 L211.767857,116.166541 L217.582428,59.8642637 C217.582428,60.0296369 248.973859,49.170941 248.640216,59.5286534 L248.640216,59.5286534 Z" id="Path" fill="url(#radialGradient-7)"></path>
                <ellipse id="Oval" fill="#9B643D" cx="207.553571" cy="83.6276151" rx="8.42857143" ry="8.46861925"></ellipse>
                <ellipse id="Oval" fill="#33312D" cx="231.258929" cy="76.7468619" rx="2.63392857" ry="4.76359833"></ellipse>
                <ellipse id="Oval" fill="#33312D" cx="260.758929" cy="76.7468619" rx="2.63392857" ry="4.76359833"></ellipse>
                <path d="M257.35163,95.2928623 L256.858583,95.2928623 L240.578471,97.3635585 L240.250571,97.3635585 C239.427231,97.7078369 238.934184,98.5723023 239.264478,99.6076505 C240.743618,104.26923 245.348577,107.377787 250.11629,106.860113 C254.889459,106.203063 258.620603,102.212965 259.15867,97.1901629 C259.238749,96.6656559 259.074329,96.1326507 258.716581,95.7570333 C258.358833,95.3814159 257.851184,95.2087828 257.35163,95.2928623 L257.35163,95.2928623 Z" id="Path" fill="#231F20" opacity="0.6"></path>
                <path d="M258.125,95.453982 C255.368546,97.547566 252.201404,98.8722182 248.890113,99.3164585 C245.260493,99.8678584 241.962147,99.1317662 239.160714,98.2136585 C239.323951,97.8469508 239.655226,97.6622586 239.9841,97.4775664 L240.312975,97.4775664 L256.641465,95.2719665 L257.135976,95.2719665 C257.464851,95.2719665 257.959363,95.2719665 258.125,95.453982 L258.125,95.453982 Z" id="Path" fill="#F8F8F8"></path>
                <path d="M301.321429,252.832 L301.321429,186.593542 C301.326644,184.551397 300.509768,182.591398 299.051586,181.147378 C297.593404,179.703359 295.614181,178.894417 293.552007,178.899582 L224.805136,178.899582 C222.742962,178.894417 220.763739,179.703359 219.305557,181.147378 C217.847375,182.591398 217.030499,184.551397 217.035714,186.593542 L217.035714,253 L301.318945,253 L301.318945,252.832 L301.321429,252.832 Z" id="Path" fill="#FFD590"></path>
                <path d="M228.384367,208.676492 C227.372869,207.677187 225.855621,207.177535 224.505319,207.677187 C222.14352,208.509133 221.132021,211.342111 222.479867,213.343145 L229.901615,222.841387 L210.506376,219.009103 C207.97763,218.507026 205.446429,220.50806 205.446429,223.00632 C205.446429,224.672636 206.624873,226.338951 208.144576,226.838603 L210.336975,227.672974 L211.687276,242.170162 C212.012903,245.191565 214.251757,247.671739 217.252973,248.335772 L238.16546,252.000696 C239.010012,252.168055 239.852109,252.500348 240.52726,253 L282.357143,253 L228.384367,208.676492 Z" id="Path" fill="#9B643D"></path>
                <path d="M40.0307512,19.9003131 C39.5346316,15.8544562 28.4490069,22.7677651 28.4490069,22.7677651 C28.4490069,22.7677651 36.8878574,5.39856755 32.916492,4.55404402 C29.7735982,3.5425798 25.8022328,15.6850605 25.8022328,15.6850605 C25.8022328,15.6850605 32.4203724,0 28.6151829,0 C24.3138739,0 20.1763325,15.0099327 20.1763325,15.0099327 C20.1763325,15.0099327 27.7867113,0 22.326987,1.18085993 C18.8517412,1.85598775 15.7088474,16.8659204 15.7088474,16.8659204 C15.7088474,16.8659204 21.6646914,6.07124036 18.3580299,6.40757676 C11.737482,6.91576389 6.61010962,23.2734972 5.78163799,28.3357284 C4.62563108,35.0796415 5.78163799,41.4896733 5.78163799,41.4896733 C5.78163799,41.4896733 10.2491231,43.0068696 18.8517412,41.9954054 C24.1476979,41.3202776 40.3606949,23.4428929 40.0307512,19.9003131 L40.0307512,19.9003131 Z" id="Path" fill="#9B643D"></path>
            </g>
            <g id="Group-2" transform="translate(80.000000, 267.000000)">
                <g id="logo-M">
                    <polygon id="Path-2" stroke="#FFFFFF" stroke-width="6" fill="#212121" points="0 0 0 128.718033 127.660394 128.718033 127.660394 0"></polygon>
                    <path d="M82.0582974,34.7538689 C86.9944099,34.7538689 94.4127509,35.8321311 99.8940539,41.7419481 C103.548256,45.681826 105.836861,50.3378992 106.759869,55.7101676 L106.759869,93.9908874 L92.3914862,93.9908874 L92.3914862,69.961776 L92.3914862,69.961776 C92.3914862,67.7902831 91.2429961,65.3017039 87.9168667,63.3710317 C89.7580303,61.7427589 90.9211321,59.345048 90.9211321,56.6715657 C90.9211321,51.7642104 87.0022866,47.7860129 82.1681458,47.7860129 C77.3340049,47.7860129 73.4151594,51.7642104 73.4151594,56.6715657 C73.4151594,59.300011 74.5394045,61.6618978 76.3263762,63.2887179 C74.4595424,64.3353208 72.134225,66.2998072 72.134225,69.961776 L72.134225,93.9908874 L72.134225,93.9908874 L56.3212744,93.9908874 L56.3212744,78.69581 L56.3212744,78.69581 C56.3212744,74.5715675 54.7324323,73.1129902 51.779285,71.4583373 C53.5962277,69.8310724 54.7421219,67.4491317 54.7421219,64.7954997 C54.7421219,59.8881444 50.8232764,55.9099469 45.9891356,55.9099469 C41.1549947,55.9099469 37.2361492,59.8881444 37.2361492,64.7954997 C37.2361492,67.3996854 38.3397374,69.7422105 40.0980565,71.3674197 C37.4433449,72.2256544 35.2830938,73.7806924 35.2830938,78.69581 L35.2830938,93.9908874 L35.2830938,93.9908874 L21.0639649,93.9908874 L21.0639649,55.7101676 C21.4503937,51.3317097 23.6070604,46.985194 27.5339651,42.6706205 C33.4243222,36.1987602 41.4654075,34.7538689 46.0583402,34.7538689 C52.8065283,34.7538689 58.7577206,37.3927861 63.9119171,42.6706205 C68.4200646,37.3927861 74.4688581,34.7538689 82.0582974,34.7538689 Z" id="Combined-Shape" stroke="#000000" fill="#FFFFFF"></path>
                </g>
                <g id="Group" transform="translate(157.201642, 0.000000)" fill="#FFFFFF" stroke="#FFFFFF" stroke-width="6">
                    <rect id="Rectangle" x="0" y="0" width="389" height="128.80053"></rect>
                </g>
                <g id="logo-JS" transform="translate(546.513090, 0.000000)">
                    <polygon id="Path-2" stroke="#FFFFFF" stroke-width="6" fill="#F7DF1E" points="0 0 0 128.718033 127.660394 128.718033 127.660394 0"></polygon>
                    <path d="M31.4887873,77.2970328 C33.3768219,80.6795135 35.0943474,83.5412772 39.2139726,83.5412772 C43.1628348,83.5412772 45.6524728,81.9804597 45.6524728,75.9092236 L45.6524728,34.6210645 L57.6700762,34.6210645 L57.6700762,76.0810012 C57.6700762,88.6581989 50.3739551,94.3830083 39.7290526,94.3830083 C30.1153251,94.3830083 24.5349533,89.3519754 21.7022669,83.2805342 L31.4887873,77.2970328 Z" id="j" fill="#212121" fill-rule="nonzero"></path>
                    <path d="M74.0977276,76.3098288 C76.6885728,80.5474716 80.0557528,83.6604609 86.0130124,83.6604609 C91.0214183,83.6604609 94.2150587,81.1525351 94.2150587,77.6934081 C94.2150587,73.5426703 90.9343933,72.0724417 85.4084308,69.6518809 L82.3873093,68.3539287 C73.6664305,64.6361825 67.8814345,59.9665707 67.8814345,50.1084727 C67.8814345,41.0286861 74.7885686,34.1102787 85.5814601,34.1102787 C93.2656946,34.1102787 98.7914018,36.7912989 102.762653,43.7958446 L93.3514436,49.8487801 C91.2791758,46.1307783 89.0348995,44.6608052 85.5814601,44.6608052 C82.041506,44.6608052 79.7964641,46.9090895 79.7964641,49.8487801 C79.7964641,53.4808992 82.041506,54.9511279 87.22141,57.1996678 L90.2430419,58.4965976 C100.517611,62.907028 106.302607,67.403341 106.302607,77.5203648 C106.302607,88.4167222 97.7550127,94.3830083 86.2720459,94.3830083 C75.0478573,94.3830083 67.7951751,89.0219902 64.2557314,82.017189 L74.0977276,76.3098288 Z" id="s" fill="#212121" fill-rule="nonzero"></path>
                </g>
            </g>
            <polygon id="Path-3" fill="#D8D8D8" points="77 251.678192 757 251.678192 757 261.678192 77 261.678192"></polygon>
            <polygon id="Path-3" fill="#D8D8D8" points="77 401 757 401 757 411 77 411"></polygon>
        </g>
        <path d="M770.89432,370.390227 C784.102909,370.390227 784.947644,380.76143 784.947644,385.095665 C784.947644,386.370298 784.587297,387.717565 782.190986,387.800525 L781.952673,387.804562 L761.909408,387.804562 C761.75582,395.466869 763.675673,404.909308 772.583791,404.909308 C776.786411,404.909308 780.296266,403.308053 783.113356,400.105542 L783.383815,399.790623 L784.362827,401.317138 C780.561518,404.909308 778.815748,407.331959 770.971114,407.927793 C758.860547,408.847644 754.537173,400.884662 754.537173,389.429899 C754.537173,378.594313 759.451997,370.390227 770.89432,370.390227 Z M644.022415,346 L644.022415,347.201096 C640.029153,347.730797 637.507551,348.695138 636.45761,350.094119 C634.962749,352.085926 634.566511,355.277701 634.566511,359.160074 L634.566511,359.160074 L634.566511,388.825989 C634.566511,394.203503 638.103356,398.044476 642.442134,400.125409 C645.912726,401.78995 649.992304,402.218553 652.476214,402.218553 C655.262864,402.218553 659.890867,401.358798 663.748261,398.824353 C667.62764,396.275464 670.728548,392.039301 670.728548,387.602013 L670.728548,387.602013 L670.728548,357.36 C670.728548,353.161876 669.566165,350.816332 667.839606,349.036355 C666.903945,348.071745 665.029717,347.459992 662.216922,347.201096 L662.216922,347.201096 L662.216922,346 L682.525388,346 L682.525388,347.201096 C676.892482,346.895534 674.076029,350.281835 674.076029,357.36 L674.076029,357.36 L674.076029,387.602013 C674.076029,391.876372 672.187268,397.451367 667.839606,401.342816 C663.778585,404.977701 657.464413,407.067356 651.501009,407.353498 C643.117766,407.755751 634.694587,404.625136 630.275705,399.192354 C628.724769,397.285561 626.64097,394.116147 626.64097,392.121178 L626.64097,392.121178 L626.64097,358.628211 C626.64097,357.316701 627.012203,352.298292 624.829197,349.606456 C624.061404,348.659701 622.118339,348.053054 619,347.786516 L619,347.786516 L619,346 L644.022415,346 Z M889.566998,370.390227 C900.889563,370.390227 905.84781,377.164639 905.84781,388.48014 C905.84781,399.795641 900.889563,406.495609 889.492994,406.495609 C878.318437,406.495609 873.212182,399.795641 873.212182,388.48014 C873.212182,377.291779 878.204334,370.543034 889.118621,370.392789 L889.492994,370.390227 L889.566998,370.390227 Z M853.290752,359.107295 L853.290752,372.229642 L865.794994,372.229642 L865.794994,375.225931 L853.290752,375.225931 L853.290752,375.225931 L853.290752,398.385034 C853.290752,401.495328 855.493508,403.255552 858.800246,402.299562 C859.968179,401.961908 861.48344,400.657066 863.34603,398.385034 L863.34603,398.385034 L864.176909,399.618396 C862.038246,402.366642 860.246025,404.140759 858.800246,404.940748 C856.103686,406.432828 854.154963,406.494066 852.75698,406.495201 L852.444056,406.49502 C848.73511,406.49502 846.564763,404.873863 846.564763,399.618396 L846.564763,399.618396 L846.564763,375.225931 L839.093117,375.225931 L839.093117,373.647227 C842.591345,372.862085 845.081894,371.605106 846.564763,369.87629 C848.047632,368.147475 849.71423,364.557809 851.564556,359.107295 L851.564556,359.107295 L853.290752,359.107295 Z M731.20708,371.142422 C737.611996,371.142422 740.851265,375.253258 740.851265,382.353792 L740.851265,382.353792 L740.851883,400.591411 C740.872917,404.270893 741.450327,404.709118 745.636547,405.075502 L745.636547,405.075502 L745.636547,406.495609 L729.366586,406.495609 L729.366586,405.075502 C734.151869,404.776532 734.519968,404.328078 734.519968,400.366727 L734.519968,382.652762 C734.519968,376.82285 731.943277,374.281606 727.378853,374.281606 C724.654923,374.281606 721.857374,375.851197 720.311359,377.719759 C719.501542,378.766154 719.059824,379.289351 719.059824,382.503277 L719.059824,382.503277 L719.059824,400.366727 C719.059824,404.328078 719.648782,404.70179 724.213205,405.075502 L724.213205,405.075502 L724.213205,406.495609 L707.648765,406.495609 L707.648765,405.075502 C712.434048,404.776532 712.802146,404.328078 712.802146,400.366727 L712.802146,400.366727 L712.802146,382.652762 C712.802146,376.673365 710.299075,374.281606 705.955511,374.281606 C702.348144,374.281606 699.182496,376.299652 698.15182,378.691411 C697.562862,379.812548 697.415622,380.7842 697.415622,382.503277 L697.415622,382.503277 L697.415622,400.366727 C697.415622,404.253335 697.783721,404.70179 702.569003,405.075502 L702.569003,405.075502 L702.569003,406.495609 L686.299043,406.495609 L686.299043,405.075502 C690.783154,404.803711 691.069114,404.223067 691.084049,401.311986 L691.084325,378.317699 C691.084325,375.328 690.716226,374.73006 688.802113,374.431091 L688.802113,374.431091 L686.593521,374.206863 L686.593521,373.010984 L696.384946,371.217165 L697.489242,376.598622 C701.611947,373.683666 704.556736,371.142422 709.636498,371.142422 C714.200921,371.142422 717.072091,373.384696 718.470866,377.121819 C722.593571,374.132121 726.053698,371.142422 731.20708,371.142422 Z M889.826684,372.646813 C883.68278,372.646813 880.712413,379.069108 880.631088,388.782729 L880.629371,389.195113 L880.629371,389.269321 C880.629371,399.213143 883.596246,405.743414 889.826684,405.743414 C896.279637,405.743414 899.172341,399.213143 899.172341,389.195113 C899.172341,379.325499 896.279637,372.646813 889.826684,372.646813 Z M819.900069,370.390227 C826.377938,370.390227 829.803018,374.501062 829.803018,381.601597 L829.803018,381.601597 L829.803274,399.838938 C829.812797,403.733723 830.111881,403.956515 834.642804,404.323307 L834.642804,404.323307 L834.642804,405.743414 L818.410904,405.743414 L818.410904,404.323307 C823.101774,404.024337 823.399607,403.800109 823.399607,399.614531 L823.399607,381.825824 C823.399607,375.921169 820.644652,373.52941 816.177156,373.52941 C812.528701,373.52941 809.17808,375.547457 808.061206,377.864473 C807.46554,378.98561 807.316623,380.032005 807.316623,381.676339 L807.316623,381.676339 L807.316623,399.614531 C807.316623,403.800109 807.688915,403.949594 812.230868,404.323307 L812.230868,404.323307 L812.230868,405.743414 L796.073426,405.743414 L796.073426,404.323307 C800.61538,404.024337 800.913213,403.650625 800.913213,399.614531 L800.913213,399.614531 L800.912446,377.215086 C800.898784,374.392044 800.681247,373.966366 798.605007,373.678895 L798.605007,373.678895 L796.371259,373.454668 L796.371259,372.258788 L806.274208,370.464969 L807.242165,375.921169 C811.635202,373.155698 814.836907,370.390227 819.900069,370.390227 Z M933.123252,368.885836 C935.935795,368.885836 937,370.794154 937,372.473474 C937,374.763456 935.403692,376.671774 933.57934,376.671774 C932.895208,376.671774 932.211076,376.366443 931.907018,376.061112 C930.690783,374.534458 929.930637,373.923796 928.106285,373.923796 C926.129904,373.923796 923.925478,375.679449 923.925478,381.175406 L923.925478,381.175406 L923.925719,399.2956 C923.935235,402.640973 924.257542,403.090935 930.082666,403.540896 L930.082666,403.540896 L930.082666,404.991218 L912.523279,404.991218 L912.523279,403.540896 C917.236188,403.235565 917.388218,402.701236 917.388218,399.113598 L917.388218,375.755782 C917.388218,373.236801 916.704086,372.549807 914.955748,372.244476 L914.955748,372.244476 L912.827338,372.015478 L912.827338,370.794154 L923.089317,368.962168 L923.925478,374.992454 C928.562373,370.794154 930.614769,368.885836 933.123252,368.885836 Z M770.226833,371.894618 C763.021907,371.894618 761.981703,382.762665 761.954905,386.055329 L761.954361,386.186331 L774.772966,386.186331 C777.157822,386.186331 777.510404,384.644189 777.529583,382.556844 L777.530456,382.359588 L777.529404,382.155165 C777.497701,379.062399 776.712318,371.894618 770.226833,371.894618 Z" id="Combined-Text" fill="#323330"></path>
    </g>
</svg>