<?xml version="1.0" encoding="UTF-8"?>
<svg width="1920px" height="1280px" viewBox="0 0 1920 1280" version="1.1" xmlns="http://www.w3.org/2000/svg" xmlns:xlink="http://www.w3.org/1999/xlink">
    <title>background-website-umentor</title>
    <g id="Page-1" stroke="none" stroke-width="1" fill="none" fill-rule="evenodd">
        <g id="background-umentor-up" fill-rule="nonzero">
            <rect id="Rectangle" fill="#FFFFFF" x="0" y="0" width="1920" height="1280"></rect>
            <g id="flying" opacity="0.3" transform="translate(734.000000, 456.000000)" fill="#D6D6D6">
                <path d="M833.729,1.64572918 L939.199,73.8307292 C954.454,81.1837292 961.045,99.5407292 953.654,114.777729 C901.847,221.566729 692.517,159.706729 624,147.302729 C610.474776,144.854197 598.812039,145.382927 588.279471,148.248535 L637.4792,196.028929 C639.6642,198.149929 637.7412,201.817929 634.7582,201.207929 C603.3492,194.786929 559.2832,204.846929 489.7602,280.963929 C477.434337,294.458782 464.096923,305.522025 450.187991,314.54885 C515.696766,321.740621 582.679595,326.743822 616.6382,274.646829 C622.573167,265.540952 632.777368,260.504968 643.184105,261.155242 C632.984836,248.840946 632.204945,230.152284 643.9353,217.413029 C644.2843,217.034029 644.6383,216.664029 645.0003,216.303029 C651.3173,209.985029 670.0403,195.954029 675.0503,199.452029 C682.0003,204.303029 657.3503,224.748029 664.0003,225.303029 C696.0003,232.303029 713.8123,191.540029 720.0003,190.303029 C745.5703,185.188029 710.0003,259.303029 681.0003,273.303029 C676.574308,275.439473 671.536653,275.570414 665.815943,274.186003 C671.374437,282.579299 672.493084,293.689286 667.5972,303.512829 C655.1832,328.424829 635.3782,357.057829 592.0002,385.302829 C555.130996,409.309468 483.649132,424.744651 420.503706,424.396287 C459.836926,467.865393 499.909687,481.831532 528.780196,490.365605 L528.997,490.303 L529,490.302729 C625,450.302729 664.978,516.445729 787,493.302729 C876.422,476.343729 898.693,364.303729 904.204,313.852729 C905.712,300.051729 917.586,289.739729 931.459,290.263729 C946.779,290.841729 958.371,304.293729 956.714,319.533729 C955.137988,334.027351 952.518129,353.204164 948.205133,374.913428 C950.564327,369.399594 952.646856,364.367339 954.4383,359.936229 C959.3123,347.882229 971.7073,340.637229 984.6063,342.271229 C1000.2253,344.248229 1011.3003,358.450229 1009.4753,374.088229 C986.8653,567.787229 937.1473,641.340229 858.0003,701.302229 C740.628397,790.223666 563.467773,722.744042 501.687136,694.599081 C495.647747,697.632673 488.512504,699.302729 480,699.302729 C435.143951,699.302729 350.652052,647.662706 290.925153,553.513231 L289.125978,550.653163 L288.696106,551.877179 C274.333505,592.604703 255.902621,630.252885 238.9997,653.302229 C200.5777,705.696229 133.7707,743.614229 82.3097,759.034229 C76.531324,760.765316 70.5644006,760.302803 65.3753257,758.070274 C60.5265251,766.61841 50.2154129,773.607232 31,777.302729 C5,782.302729 0,750.214729 0,735.302729 C0,720.390729 5,699.302729 32,700.302729 C45.1498844,700.789762 54.2673534,707.464892 60.1610793,715.907685 C62.0801789,714.450539 64.2537617,713.25555 66.6517,712.396229 C214.574059,659.397867 166.647064,422.464118 238.458761,360.589017 L238.465083,360.600277 C239.471378,358.734883 240.557345,356.892833 241.716387,355.078104 C237.346799,350.985928 233.589192,346.485026 230.357518,341.77121 C228.307594,341.250239 226.815471,340.838079 225.9302,340.582929 C225.2842,340.396929 224.7232,340.006929 224.3262,339.464929 C223.1342,337.836929 220.3582,333.471929 216.0002,323.302929 C214.290449,319.313509 212.99189,315.102988 212.007579,311.093333 C209.561876,302.866746 209.80411,300.851636 209.947825,300.413502 C209.655458,298.400714 209.449699,296.624845 209.3062,295.187929 C209.13814,293.500467 210.355971,292.060039 211.942203,291.855137 C211.359768,287.973673 211.012638,284.610165 210.805661,281.978658 C192.871577,273.784473 179.38484,254.344897 184.5,230.302729 C189.5,206.802729 172.069,202.017729 182.5,196.802729 C183.833333,196.136063 185.703111,196.02084 187.694815,196.024544 L188.027823,196.026188 C189.029809,196.03398 190.056519,196.065495 191.056139,196.06667 L191.388271,196.065864 C194.146492,196.048546 196.651259,195.750766 197.792,194.013729 C204.20325,184.252712 212.622157,176.30887 222.738793,171.18283 C218.40493,162.799965 251.249507,146.143567 275,148.302629 C283.117958,149.040625 290.418959,151.096953 296.928124,154.14386 C304.204224,143.379963 316.525408,136.302629 330.5,136.302629 C352.868,136.302629 371,154.434629 371,176.802629 C371,196.412616 357.063748,212.766814 338.554787,216.501679 C338.852668,219.178895 339,221.790332 339,224.302629 C339,253.573629 304,282.302629 285,285.302629 C284.635202,285.032408 284.278798,284.76171 283.930622,284.490551 C282.958045,285.142755 281.970694,285.770544 280.973468,286.372741 C280.422936,290.303942 280.479211,294.225482 280.914274,297.97331 C281.503682,297.99847 282.094133,298.022661 282.685625,298.046032 C325.523991,287.744842 380.640424,258.857075 429,184.302729 C529.46,29.4267292 655.837,51.7147292 748.811,61.2577292 C800.979,66.6137292 811.661,34.4087292 819.401,6.84572918 C821.138,0.664729177 828.431,-1.98027082 833.729,1.64572918 Z M1117.5,289.802729 C1142.446,279.668729 1143.271,294.031729 1132.5,304.802729 C1076.5,360.802729 1021,332.302729 1015,346.302729 C1015,346.302729 996,320.302729 968.5,333.802729 C960.224,337.865729 969.061,328.092729 968.5,320.802729 C968.5,320.802729 964.355,272.018729 990.5,270.802729 C1033.5,268.802729 1053.5,315.802729 1117.5,289.802729 Z M990.6409,131.728129 C1001.2389,210.212129 971.4999,253.803129 954.4999,277.803129 C948.6849,286.013129 939.4999,276.803129 914.3039,279.747129 C905.1469,280.818129 910.1019,275.841129 903.9639,271.868129 C903.9639,271.868129 876.8809,245.077129 900.4999,233.803129 C932.4709,218.541129 951.5069,201.230129 969.6179,134.567129 C976.6779,108.583129 988.6019,116.634129 990.6409,131.728129 Z" id="Combined-Flying"></path>
            </g>
            <g id="umentor-profil" transform="translate(259.000000, 391.000000)">
                <path d="M500.000117,0.00088011054 L500.000117,109.67132 C484.212666,107.530891 474.776714,94.9870599 459.487342,95.745644 C446.499135,96.3900308 448.558271,122.241812 448.558271,122.241812 C448.836963,126.104954 444.446954,131.283895 448.558271,129.130816 C461.946382,122.11993 471.279113,135.212111 471.647067,135.738602 L471.647067,135.738602 L471.658352,135.754858 C473.516293,131.130394 484.928702,135.256627 500.000117,131.833925 L500.000117,500 L0.605095894,500 L0.605095894,352.152735 C2.87692572,352.888818 5.3699717,352.941258 7.79625374,352.177075 C33.4191311,344.105141 66.6829147,324.256141 85.8135611,296.829365 C94.2296716,284.763686 103.406568,265.055928 110.557832,243.736223 L110.557832,243.736223 L110.771869,243.095485 L111.667694,244.59265 C141.406233,293.877235 183.475481,320.909325 205.809697,320.909325 C210.057484,320.909325 213.616496,320.031242 216.625277,318.435503 C247.196511,333.120948 335.587904,368.696289 394.108887,322.034774 C433.491768,290.633011 458.231026,252.113717 469.481572,150.674637 C470.389676,142.485104 464.878849,135.047596 457.106967,134.012252 C450.688533,133.156536 444.520885,136.950702 442.095624,143.263314 C441.062317,145.953259 439.834385,149.066227 438.422108,152.506821 C440.770061,140.416185 442.168299,129.727193 442.992424,121.749462 C443.816238,113.773915 438.053019,106.734082 430.436343,106.431597 C423.539074,106.157372 417.635653,111.55395 416.885917,118.776425 C414.146002,145.178939 403.073482,203.812815 358.615358,212.687966 C297.949423,224.799388 278.073477,190.184782 230.344955,211.117976 C230.140669,211.207561 229.939808,211.30993 229.742714,211.426078 C215.39541,206.948262 195.609591,199.571673 176.185977,177.003584 C207.626631,177.185943 243.21807,169.106062 261.575566,156.539266 C283.173847,141.753808 293.034928,126.765243 299.215966,113.724516 C301.836191,108.197138 300.996489,101.891725 297.670865,97.4108213 C300.762065,98.2937328 303.462556,98.2970466 305.815655,97.109965 C320.248398,89.8281717 337.950902,51.2788782 325.225205,53.9393334 C322.145557,54.5827318 313.280867,75.7847132 297.355082,72.1438166 C294.045505,71.8551455 306.313336,61.2211267 302.854455,58.6979853 C300.361074,56.8785772 291.042997,64.1764945 287.899148,67.4626638 C287.718987,67.65043 287.542808,67.8428774 287.369118,68.040006 C281.277428,74.9540165 281.964779,85.2372945 287.684347,91.6069009 C282.289878,91.0030656 276.916641,93.6561177 273.843039,98.6139819 C256.879584,125.974269 223.3656,123.248839 190.647058,119.467326 C197.698277,114.700396 204.459001,108.831261 210.697638,101.640967 C245.205508,61.8689663 267.077749,56.6125015 282.667664,59.9675472 C284.148282,60.2862792 285.102767,58.3697074 284.018238,57.2614607 L284.018238,57.2614607 L258.995391,31.6797818 C264.179648,30.2217148 269.916846,29.9641602 276.559129,31.2317178 C310.564572,37.7210637 414.456444,70.0840863 440.168603,14.2157574 C442.319235,9.54215823 442.084556,4.30748597 439.996474,0.00088011054 L500.000117,0.00088011054 Z M227.341439,0.00122172849 C210.859528,10.3080187 194.740347,26.2757016 179.779332,50.5888442 C155.55059,89.9629225 127.904484,104.990632 106.558672,110.247186 C106.400191,108.41906 106.413774,106.521296 106.689698,104.623179 C107.432723,104.142791 108.164362,103.632027 108.881725,103.092575 L108.881725,103.092575 L108.96951,103.162345 C118.362254,101.594384 135.664676,86.5790658 135.664676,71.2804692 C135.664676,69.988692 135.594184,68.6467653 135.4507,67.2714243 C144.619048,65.150199 151.476797,56.592672 151.476797,46.3582513 C151.476797,34.529204 142.31555,24.9403142 131.014053,24.9403142 C124.00235,24.9403142 117.814482,28.6313077 114.127503,34.2584849 C111.09873,32.8602275 107.734817,31.915257 104.025961,31.5587874 C91.7328446,30.3772987 74.5114095,39.976085 78.6159964,44.1053016 C73.2095415,46.75469 68.7355027,51.0923235 65.3762573,56.4960673 C64.8225106,57.3869775 63.6186673,57.5531273 62.2844035,57.5674371 L62.2844035,57.5674371 L62.0159658,57.5684443 C61.5661846,57.5673145 61.1057617,57.5535575 60.6539444,57.5483925 L60.6539444,57.5483925 L60.3840406,57.5464943 C59.3993091,57.5445595 58.4748598,57.6047503 57.8156375,57.9530094 C52.6583772,60.6772665 61.2765542,63.1768965 58.8044709,75.4530312 C56.2479591,88.1489131 63.0895735,98.3878967 72.100497,102.585714 C72.196185,103.873449 72.3531745,105.5003 72.6103795,107.371398 C71.9193218,107.564505 71.4172733,108.264557 71.493774,109.073169 C71.5565615,109.735023 71.6433632,110.534503 71.7626867,111.436648 C71.3294781,111.338856 71.0992978,111.277309 71.0881745,111.276051 C71.0881745,111.276051 70.5397557,111.886062 72.5770945,118.600369 C74.2673863,124.171284 76.0740624,127.654459 77.3301692,129.381103 C78.0935836,130.893201 78.6332371,131.754449 78.9489789,132.208407 C79.1460306,132.491608 79.4244839,132.695388 79.7451272,132.792575 C80.1150663,132.904817 80.698507,133.075209 81.4835804,133.290078 C83.1176281,135.860126 85.0317835,138.315197 87.2749963,140.539296 C86.6569588,141.546795 86.0797695,142.570588 85.5473705,143.608179 L85.5473705,143.608179 C49.7885571,175.992148 73.6518231,300.020259 2.84217094e-14,327.763402 L0.605,327.52369 L0.605095894,0.00122172849 L227.341439,0.00122172849 Z M459.646713,22.9825922 C458.64304,15.0793896 452.773595,10.8638944 449.298396,24.4690897 C440.383476,59.373767 431.013236,68.4377885 415.275899,76.4289558 C403.649733,82.3320104 416.981011,96.3597501 416.981011,96.3597501 C420.002367,98.4400088 417.563328,101.045961 422.070751,100.485186 C434.473176,98.943711 438.994381,103.766057 441.856744,99.4673099 C450.224788,86.900935 464.86345,64.0767328 459.646713,22.9825922 Z" id="Combined-Shape" fill="#323330"></path>
                <path d="M105.198244,380.03663 C110.524963,380.03663 118.530334,381.176683 124.445385,387.425168 C128.388753,391.590825 130.858461,396.513719 131.854509,402.193851 L131.854289,434.94063 L131.868132,434.938798 L131.854509,442.668286 L129.940479,443.223443 L129.940289,442.66763 L116.349122,442.668286 L116.349122,417.262162 L116.349122,417.262162 C116.349122,414.966287 115.109811,412.335171 111.520685,410.293882 C113.507021,408.572658 114.762416,406.037317 114.762416,403.210343 C114.762416,398.021766 110.533463,393.815594 105.316785,393.815594 C100.100108,393.815594 95.8711548,398.021766 95.8711548,403.210343 C95.8711548,405.989733 97.084643,408.487225 99.013408,410.207291 C96.9992082,411.312428 94.488857,413.389549 94.488857,417.262162 L94.488857,442.668286 L92.5612046,443.223443 L92.5602894,442.66763 L77.4245912,442.668286 L77.4245912,426.496708 L77.4245912,426.496708 C77.4245912,422.136168 75.7100566,420.593992 72.5232849,418.844541 C74.484028,417.123718 75.7204767,414.605389 75.7204767,411.799827 C75.7204767,406.611251 71.4915239,402.405078 66.2748463,402.405078 C61.0581687,402.405078 56.829216,406.611251 56.829216,411.799827 C56.829216,414.553098 58.0200036,417.029743 59.9172819,418.748076 C57.0528011,419.655779 54.7216107,421.299932 54.7216107,426.496708 L54.7216107,442.668286 L52.7939583,443.223443 L52.7932894,442.66763 L39.3772894,442.668286 L39.3772894,402.193851 C39.7942971,397.564481 42.1216258,392.968884 46.3592756,388.407059 C52.7157503,381.564322 61.3931452,380.03663 66.3495273,380.03663 C73.6317151,380.03663 80.053839,382.826773 85.615899,388.407059 C90.4807866,382.826773 97.008235,380.03663 105.198244,380.03663 Z" id="Combined-Iron" fill="#424242"></path>
                <path d="M103.376439,380.03663 C108.703942,380.03663 116.710493,381.186788 122.626415,387.490659 C126.570364,391.693239 129.040435,396.659769 130.03663,402.390249 L130.03663,443.223443 L114.528959,443.223443 L114.528959,417.592123 L114.528959,417.592123 C114.528959,415.276113 113.289696,412.621954 109.700811,410.562651 C111.68644,408.825597 112.942019,406.267783 112.942019,403.415751 C112.942019,398.181184 108.712443,393.937729 103.494997,393.937729 C98.2775511,393.937729 94.0479754,398.181184 94.0479754,403.415751 C94.0479754,406.219777 95.2616423,408.739407 97.1906915,410.474719 C95.1766909,411.589238 92.665474,413.684798 92.665474,417.592123 L92.665474,443.223443 L92.665474,443.223443 L75.5986943,443.223443 L75.5986943,426.908524 L75.5986943,426.908524 C75.5986943,422.509332 73.8839071,420.953486 70.696666,419.188528 C72.6576979,417.452452 73.8943288,414.911801 73.8943288,412.081371 C73.8943288,406.846804 69.664753,402.603349 64.4473069,402.603349 C59.2298608,402.603349 55.0002851,406.846804 55.0002851,412.081371 C55.0002851,414.859047 56.1912481,417.357645 58.0888059,419.091208 C55.2235342,420.007219 52.8923693,421.666099 52.8923693,426.908524 L52.8923693,443.223443 L52.8923693,443.223443 L37.5457875,443.223443 L37.5457875,402.390249 C37.9628567,397.719845 40.2905283,393.083513 44.5288023,388.481253 C50.8862134,381.577864 59.5648867,380.03663 64.5219989,380.03663 C71.8052595,380.03663 78.2283294,382.851504 83.7912088,388.481253 C88.6568131,382.851504 95.1852231,380.03663 103.376439,380.03663 Z" id="Combined-Snow" fill="#FFFFFF"></path>
                <path d="M301.049742,406.004744 C314.248593,406.004744 315.092705,416.268106 315.092705,420.557272 C315.092705,421.818651 314.732624,423.15191 312.33808,423.234006 L312.099943,423.238001 L292.071454,423.238001 C291.917979,430.820634 293.836416,440.164889 302.737967,440.164889 C306.937489,440.164889 310.444756,438.580284 313.259769,435.411073 L313.530029,435.099429 L314.50832,436.610071 C310.709813,440.164889 308.96533,442.562348 301.126479,443.151987 C289.02484,444.062273 284.704653,436.182092 284.704653,424.846438 C284.704653,414.123523 289.615853,406.004744 301.049742,406.004744 Z M174.271368,381.868132 L174.271368,383.056739 C170.281049,383.580932 167.761307,384.535245 166.712139,385.919679 C165.21838,387.890775 164.822435,391.049361 164.822435,394.891365 L164.822435,394.891365 L164.822435,424.248807 C164.822435,429.570405 168.356672,433.371439 172.692251,435.430734 C176.160285,437.077966 180.236856,437.502113 182.718934,437.502113 C185.50353,437.502113 190.128121,436.651298 193.982672,434.143207 C197.85919,431.620821 200.957812,427.428707 200.957812,423.037559 L200.957812,423.037559 L200.957812,393.110008 C200.957812,388.955537 199.796286,386.634382 198.071,384.872914 C197.136029,383.918335 195.263182,383.312943 192.452461,383.056739 L192.452461,383.056739 L192.452461,381.868132 L212.745955,381.868132 L212.745955,383.056739 C207.117202,382.754354 204.302826,386.105444 204.302826,393.110008 L204.302826,393.110008 L204.302826,423.037559 C204.302826,427.267472 202.415457,432.784497 198.071,436.635482 C194.012974,440.232571 187.703456,442.300497 181.744448,442.583664 C173.367386,442.981734 164.950416,439.883671 160.534792,434.507381 C158.984999,432.620415 156.902736,429.483957 156.902736,427.509732 L156.902736,427.509732 L156.902736,394.365032 C156.902736,393.06716 157.273695,388.100933 155.092299,385.437087 C154.325072,384.500177 152.383439,383.899838 149.267399,383.636071 L149.267399,383.636071 L149.267399,381.868132 L174.271368,381.868132 Z M419.634933,406.004744 C430.949151,406.004744 435.903743,412.708714 435.903743,423.906555 C435.903743,435.104395 430.949151,441.734695 419.560984,441.734695 C408.394665,441.734695 403.292174,435.104395 403.292174,423.906555 C403.292174,412.835962 408.279358,406.157687 419.182662,406.007338 L419.560984,406.004744 L419.634933,406.004744 Z M383.38543,394.839134 L383.38543,407.825032 L395.880454,407.825032 L395.880454,410.790165 L383.38543,410.790165 L383.38543,410.790165 L383.38543,433.708456 C383.38543,436.786409 385.586562,438.528329 388.890862,437.582279 C390.057934,437.248137 391.572079,435.956862 393.433295,433.708456 L393.433295,433.708456 L394.263562,434.928993 C392.126475,437.648662 390.335576,439.404331 388.890862,440.196002 C385.989016,441.786149 383.953843,441.734309 382.539358,441.734309 C378.833147,441.734309 376.6644,440.129812 376.6644,434.928993 L376.6644,434.928993 L376.6644,410.790165 L369.198262,410.790165 L369.198262,409.227878 C372.693911,408.450899 375.182624,407.20699 376.6644,405.496151 C378.146176,403.785312 379.811545,400.232973 381.660507,394.839134 L381.660507,394.839134 L383.38543,394.839134 Z M261.391759,406.749118 C267.791954,406.749118 271.028834,410.817208 271.028834,417.84391 L271.028834,417.84391 L271.028834,435.669542 C271.028834,439.515737 271.543792,439.959529 275.810589,440.329355 L275.810589,440.329355 L275.810589,441.734695 L259.552622,441.734695 L259.552622,440.329355 C264.334377,440.033494 264.702205,439.589702 264.702205,435.669542 L264.702205,418.139771 C264.702205,412.370479 262.127413,409.85566 257.566355,409.85566 C254.844433,409.85566 252.048945,411.408931 250.504071,413.258063 C249.694851,414.293576 249.253458,414.811333 249.253458,417.99184 L249.253458,417.99184 L249.254135,435.891792 C249.277563,439.603926 249.929694,439.966641 254.40304,440.329355 L254.40304,440.329355 L254.40304,441.734695 L237.850812,441.734695 L237.850812,440.329355 C242.632567,440.033494 243.000394,439.589702 243.000394,435.669542 L243.000394,418.139771 C243.000394,412.222549 240.499168,409.85566 236.158806,409.85566 C232.554099,409.85566 229.390784,411.852722 228.360867,414.219611 C227.772344,415.32909 227.625213,416.290639 227.625213,417.99184 L227.625213,417.99184 L227.625213,435.669542 C227.625213,439.515737 227.99304,439.959529 232.774795,440.329355 L232.774795,440.329355 L232.774795,441.734695 L216.516828,441.734695 L216.516828,440.329355 C221.08725,440.055011 221.293136,439.462677 221.298909,436.42934 L221.298583,413.849785 C221.298583,410.891174 220.930756,410.299451 219.018054,410.00359 L219.018054,410.00359 L216.81109,409.781694 L216.81109,408.59825 L226.595296,406.823083 L227.698778,412.148583 C231.818444,409.263937 234.761062,406.749118 239.837079,406.749118 C244.398138,406.749118 247.267191,408.968076 248.664934,412.66634 C252.7846,409.707729 256.242177,406.749118 261.391759,406.749118 Z M419.894427,408.237866 C413.75627,408.237866 410.788054,414.590859 410.70566,424.200277 L410.703894,424.614094 L410.703894,424.68753 C410.703894,434.527953 413.668582,440.990321 419.894427,440.990321 C426.342624,440.990321 429.233195,434.527953 429.233195,424.614094 C429.233195,414.847106 426.342624,408.237866 419.894427,408.237866 Z M350.019363,406.004744 C356.492456,406.004744 359.915011,410.072834 359.915011,417.099536 L359.915011,417.099536 L359.915267,435.147242 C359.924784,439.001528 360.223647,439.222003 364.75123,439.584981 L364.75123,439.584981 L364.75123,440.990321 L348.531296,440.990321 L348.531296,439.584981 C353.218708,439.28912 353.516321,439.067224 353.516321,434.925168 L353.516321,417.321432 C353.516321,411.478175 350.763397,409.111286 346.299195,409.111286 C342.65343,409.111286 339.305278,411.108348 338.189228,413.401272 C337.594001,414.510751 337.445194,415.546265 337.445194,417.173501 L337.445194,417.173501 L337.445194,434.925168 C337.445194,439.067224 337.817211,439.215155 342.355816,439.584981 L342.355816,439.584981 L342.355816,440.990321 L326.210286,440.990321 L326.210286,439.584981 C330.748891,439.28912 331.046504,438.919293 331.046504,434.925168 L331.046504,434.925168 L331.045738,412.758637 C331.032086,409.96495 330.814709,409.543698 328.74,409.259216 L328.74,409.259216 L326.507899,409.03732 L326.507899,407.853876 L336.403547,406.078709 L337.370791,411.478175 C341.760589,408.741459 344.959934,406.004744 350.019363,406.004744 Z M463.159077,404.515996 C465.969546,404.515996 467.032967,406.404471 467.032967,408.066329 C467.032967,410.3325 465.437836,412.220975 463.614829,412.220975 C462.931201,412.220975 462.247574,411.918819 461.943739,411.616663 C460.728401,410.105883 459.968815,409.501571 458.145808,409.501571 C456.170884,409.501571 453.968084,411.238968 453.968084,416.677776 L453.968084,416.677776 L453.968324,434.609554 C453.977833,437.920141 454.299903,438.365424 460.120732,438.810706 L460.120732,438.810706 L460.120732,440.245947 L442.574291,440.245947 L442.574291,438.810706 C447.283725,438.50855 447.435643,437.979777 447.435643,434.429444 L447.435643,411.314507 C447.435643,408.821719 446.752015,408.141868 445.004967,407.839712 L445.004967,407.839712 L442.878125,407.613095 L442.878125,406.404471 L453.132539,404.591535 L453.968084,410.559117 C458.60156,406.404471 460.652443,404.515996 463.159077,404.515996 Z M300.382746,407.493492 C293.184483,407.493492 292.144085,418.244496 292.116932,421.505122 L292.116373,421.636598 L304.925528,421.636598 C307.308626,421.636598 307.660948,420.11049 307.680113,418.04485 L307.680985,417.849646 L307.679934,417.647348 C307.648255,414.586742 306.86345,407.493492 300.382746,407.493492 Z" id="Combined-Text" fill="#FFFFFF"></path>
            </g>
        </g>
    </g>
</svg>