<?xml version="1.0" encoding="UTF-8"?>
<svg width="340px" height="150px" viewBox="0 0 340 150" version="1.1" xmlns="http://www.w3.org/2000/svg" xmlns:xlink="http://www.w3.org/1999/xlink">
    <title>Umentor-Github-1500x500</title>
    <defs>
        <radialGradient cx="-10.8837924%" cy="75.6031886%" fx="-10.8837924%" fy="75.6031886%" r="60.8535937%" gradientTransform="translate(-0.108838,0.756032),scale(1.000000,0.923443),translate(0.108838,-0.756032)" id="radialGradient-1">
            <stop stop-color="#33312D" offset="0.7%"></stop>
            <stop stop-color="#3D3B37" offset="10.5%"></stop>
            <stop stop-color="#5E5B58" offset="47.8%"></stop>
            <stop stop-color="#726F6C" offset="79%"></stop>
            <stop stop-color="#797673" offset="100%"></stop>
        </radialGradient>
        <radialGradient cx="32.069961%" cy="-51.4434431%" fx="32.069961%" fy="-51.4434431%" r="82.4585792%" gradientTransform="translate(0.320700,-0.514434),scale(0.758810,1.000000),rotate(180.000000),translate(-0.320700,0.514434)" id="radialGradient-2">
            <stop stop-color="#9B643D" offset="0%"></stop>
            <stop stop-color="#A36E48" offset="7.1%"></stop>
            <stop stop-color="#D2A987" offset="51.1%"></stop>
            <stop stop-color="#EFCEAE" offset="83.3%"></stop>
            <stop stop-color="#FADCBD" offset="100%"></stop>
        </radialGradient>
        <radialGradient cx="106.529664%" cy="54.2992181%" fx="106.529664%" fy="54.2992181%" r="65.7099689%" gradientTransform="translate(1.065297,0.542992),scale(1.000000,0.837915),translate(-1.065297,-0.542992)" id="radialGradient-3">
            <stop stop-color="#9B643D" offset="0%"></stop>
            <stop stop-color="#B78763" stop-opacity="0.678" offset="32.1%"></stop>
            <stop stop-color="#FADCBD" stop-opacity="0" offset="100%"></stop>
        </radialGradient>
        <radialGradient cx="52.4766248%" cy="104.931423%" fx="52.4766248%" fy="104.931423%" r="81.4708467%" gradientTransform="translate(0.524766,1.049314),scale(1.000000,0.519975),translate(-0.524766,-1.049314)" id="radialGradient-4">
            <stop stop-color="#33312D" offset="0.7%"></stop>
            <stop stop-color="#3D3B37" offset="10.5%"></stop>
            <stop stop-color="#5E5B58" offset="47.8%"></stop>
            <stop stop-color="#726F6C" offset="79%"></stop>
            <stop stop-color="#797673" offset="100%"></stop>
        </radialGradient>
        <radialGradient cx="88.8557317%" cy="45.3206892%" fx="88.8557317%" fy="45.3206892%" r="78.319888%" gradientTransform="translate(0.888557,0.453207),scale(1.000000,0.750877),rotate(-179.905565),translate(-0.888557,-0.453207)" id="radialGradient-5">
            <stop stop-color="#744D2C" offset="0%"></stop>
            <stop stop-color="#BE906B" stop-opacity="0" offset="100%"></stop>
        </radialGradient>
        <radialGradient cx="50.4662661%" cy="24.7005126%" fx="50.4662661%" fy="24.7005126%" r="91.5231936%" gradientTransform="translate(0.504663,0.247005),scale(0.648244,1.000000),rotate(180.000000),translate(-0.504663,-0.247005)" id="radialGradient-6">
            <stop stop-color="#591C17" offset="0%"></stop>
            <stop stop-color="#7B422B" stop-opacity="0.454" offset="54.5%"></stop>
            <stop stop-color="#9B643D" stop-opacity="0" offset="100%"></stop>
        </radialGradient>
        <radialGradient cx="100.642577%" cy="46.2134822%" fx="100.642577%" fy="46.2134822%" r="52.4701118%" gradientTransform="translate(1.006426,0.462135),scale(1.000000,0.524737),rotate(4.294764),translate(-1.006426,-0.462135)" id="radialGradient-7">
            <stop stop-color="#593417" offset="0%"></stop>
            <stop stop-color="#9B643D" stop-opacity="0" offset="100%"></stop>
        </radialGradient>
    </defs>
    <g id="Page-1" stroke="none" stroke-width="1" fill="none" fill-rule="evenodd">
        <g id="Group-3">
            <path d="M340,0 L340,150 L170,150 L170,81.207194 C168.38953,71.6351642 164.45051,63.3102122 158.182941,56.2323379 L157.741891,55.7405561 C147.955666,44.9658708 134.711087,43 125.898237,43 C112.348182,43 101.548769,47.8112323 93.5,57.433697 C84.2977858,47.8112323 73.672629,43 61.6245296,43 C53.4243862,43 39.0679702,45.6343031 28.5514275,57.433697 C21.5403991,65.2999595 17.6899232,73.2244586 17,81.207194 L17,81.207194 L17,150 L0,150 L0,0 L340,0 Z M60.5,82 C69.0604136,82 76,89.163444 76,98 C76,102.547491 74.1621449,106.651882 71.2120465,109.5649 C76.8860369,112.736143 79.9477965,115.302399 79.9477965,123.114256 L79.9477965,123.114256 L79.947,150 L42.386,150 L42.3865891,123.114256 C42.3865891,114.756634 45.7414309,111.727655 50.0385324,110.087022 L50.2541616,110.006129 C47.0323807,107.074202 45,102.782101 45,98 C45,89.163444 51.9395864,82 60.5,82 Z M126.5,67 C135.060414,67 142,74.163444 142,83 C142,87.9143756 139.853632,92.3112687 136.476313,95.2449176 C142.323698,98.7548204 144.346935,103.257872 144.346935,107.190502 L144.346935,107.190502 L144.346,150 L108.179,150 L108.179968,107.190502 C108.179968,100.385442 112.493045,96.7955918 115.855976,94.9170766 L116.045281,94.8125632 C112.944785,91.8869414 111,87.6779114 111,83 C111,74.163444 117.939586,67 126.5,67 Z" id="Combined-Shape" fill="#323330"></path>
            <g id="Microsoft-Team-Illustration" transform="translate(83.000000, 51.000000)">
                <g id="Bottom-Right" transform="translate(108.422222, 14.000000)" fill-rule="nonzero">
                    <path d="M50.6131245,35.8217166 C49.8580232,32.4098021 43.9065264,32.8365882 43.1519664,29.7279947 C42.3979478,26.6188075 45.3734255,24.0396898 44.0283169,21.1501283 C42.682667,18.2605668 39.5090766,18.290246 37.6519065,15.5556096 C35.7952776,12.8209733 35.1619669,6.71716043 35.1619669,6.71716043 L26.2669285,2.20058824 L25.6877469,4.96668449 L25.0733813,1.90973262 L16.1323332,6.71716043 C16.1323332,6.71716043 15.4383978,12.8423422 13.5536218,15.6387112 C11.6688459,18.4350802 8.10498453,18.2160481 6.73064615,21.1501283 C5.35630777,24.0842086 8.69769841,26.858615 7.91228486,29.9927326 C7.12741261,33.1268503 1.66199527,33.0633369 0.389419643,36.3316043 C-1.63879852,41.5408877 4.97632135,42.5226738 4.97415618,45.4668449 C4.97361489,46.8006257 4.09076893,47.3473155 2.99303036,47.9551444 L49.5749279,47.9551444 C47.8059882,47.0689251 45.920671,46.8819465 45.937451,45.1083209 C45.9645155,42.1641497 51.8786633,41.5408877 50.6131245,35.8217166 Z" id="Path" fill="#FFFFFF"></path>
                    <path d="M20.4956816,25.9522139 L16.15615,31.5841283 L16.738038,41.4453209 C17.4490311,43.5291509 17.8310558,45.7305925 17.8677128,47.9551444 L33.5976353,47.9551444 C33.6340874,45.7306233 34.0159298,43.529177 34.7267688,41.4453209 L36.4751394,35.8407112 L31.5169119,25.9516203 L20.4962229,25.9516203 L20.4956816,25.9522139 Z" id="Path" fill="url(#radialGradient-1)"></path>
                    <path d="M39.0067584,31.9011016 C37.5701715,27.3613797 31.5163706,25.9516203 31.5163706,25.9516203 C31.5163706,25.9516203 32.2000214,39.1641818 33.6371496,47.955738 L39.9675502,47.9551444 C39.3715886,41.8667647 39.9648438,34.9307487 39.0067584,31.9016952 L39.0067584,31.9011016 Z" id="Path" fill="#797673"></path>
                    <path d="M35.7600937,10.0970214 C35.7600937,10.5843529 35.7335704,11.0645615 35.6832303,11.5352727 C35.4023002,14.1316043 34.3711404,16.4602299 32.8468644,18.219016 C31.0476124,20.2989305 28.5603793,21.584631 25.8149503,21.584631 L25.6455262,21.584631 C20.5481868,21.584631 16.3450606,17.1535348 15.7685855,11.4444545 C15.7225901,10.9970899 15.6998192,10.54722 15.7003726,10.0970214 C15.7003726,7.34101604 16.6671289,4.84559358 18.2320018,3.04050802 C18.9898095,2.1637861 19.8883529,1.44970588 20.8854113,0.946941176 C21.9688683,0.398977335 23.1478798,0.115444324 24.3410143,0.115924523 L27.1194621,0.115924523 C28.3779642,0.115924523 29.5736765,0.426962567 30.650846,0.98671123 C33.6625902,2.54664706 35.760635,6.0381016 35.760635,10.0970214 L35.7600937,10.0970214 Z" id="Path" fill="#FFFFFF"></path>
                    <polygon id="Path" fill="#FADCBD" points="23.6476203 17.0401604 27.8128562 17.0401604 27.8128562 26.3516952 23.6476203 26.3516952"></polygon>
                    <path d="M29.2321217,20.6325241 L28.4683598,20.9851123 C28.0715129,21.1682948 27.8134307,21.5944537 27.8133974,22.0666203 L27.8133974,23.0383155 C27.8133974,24.0842086 28.4786443,25.032754 29.4107478,25.2529733 L29.5882913,25.2951176 L25.9156305,26.2169519 L22.2272722,25.2624706 C23.0722647,24.9725722 23.6475377,24.1142927 23.6476203,23.1433797 L23.6476203,22.0666203 C23.6476203,21.5941283 23.3894244,21.1679358 22.9926579,20.9851123 L22.2272722,20.6313369 L29.2315804,20.6325241 L29.2321217,20.6325241 Z" id="Path" fill="url(#radialGradient-2)"></path>
                    <path d="M25.818198,21.6036257 L25.6428197,21.6036257 C21.7687985,21.6036257 18.6276856,18.1590642 18.6276856,13.9107914 L18.6276856,13.8538075 C18.6276856,10.1629091 21.3568759,7.17006417 24.7226246,7.17006417 L26.7383931,7.17006417 C30.1046831,7.17006417 32.8333321,10.1629091 32.8333321,13.8538075 L32.8333321,13.9107914 C32.8333321,18.1590642 29.6927605,21.6036257 25.818198,21.6036257 L25.818198,21.6036257 Z" id="Path" fill="#FADCBD"></path>
                    <ellipse id="Oval" fill="#605D5A" cx="28.517076" cy="14.3233316" rx="1" ry="1.16995187"></ellipse>
                    <polygon id="Path" fill="url(#radialGradient-3)" points="20.5579301 12.4114011 25.7868032 12.4114011 25.7868032 18.651738 20.5579301 18.651738"></polygon>
                    <ellipse id="Oval" fill="#605D5A" cx="22.8584177" cy="14.3233316" rx="1" ry="1.16995187"></ellipse>
                    <path d="M35.2956658,12.1745615 C34.5793717,12.5865535 33.7823677,12.8010805 32.9735265,12.7996132 C30.331093,12.7996132 28.1429112,10.5491498 27.9736196,7.65739572 L23.6183906,7.65739572 C23.4490856,10.5493782 21.2605846,12.7999221 18.6179424,12.7996132 C17.7555111,12.8013147 16.907442,12.5575151 16.1566913,12.0920535 C16.1123054,11.6878235 19.2507118,4.40396791 19.2507118,4.40396791 L32.5188419,4.40396791 C32.5188419,4.40396791 35.344382,11.7459947 35.2956658,12.1745615 Z" id="Path" fill="#FFFFFF"></path>
                    <path d="M27.9747022,7.17006417 C27.9719958,7.16056684 27.9747022,7.65739572 27.9747022,7.65739572 L25.797629,7.65620856 L25.797629,7.15581818 C25.8540549,6.54042284 26.3280744,6.07306786 26.8920761,6.07675849 C27.4560778,6.08044911 27.9249774,6.55397422 27.9747022,7.17006417 L27.9747022,7.17006417 Z M25.797629,7.17006417 L25.7932987,7.15641176 L25.7932987,7.65620856 L23.6200145,7.65620856 L23.6200145,7.15641176 C23.6749195,6.53962626 24.149387,6.07034455 24.714501,6.07388749 C25.2796151,6.07743044 25.7491585,6.55263056 25.797629,7.17006417 Z" id="Shape" fill="#E0BB95"></path>
                    <path d="M26.3941319,12.3846898 C26.3941319,12.3846898 25.9795028,12.5615775 25.7862619,13.6787005 C25.5399744,15.1032995 24.576476,15.1774973 24.8195158,16.2115187 C24.9548386,16.7867005 25.7180592,17.0971444 25.7862619,17.5411444 C25.7862619,17.5411444 28.063474,17.1137647 26.3941319,12.3846898 Z" id="Path" fill="#FADCBD"></path>
                    <path d="M24.8920488,18.5431123 C25.3553941,18.6173102 25.6677191,18.594754 26.0125216,18.5116524 C26.1854613,18.4693656 26.3554831,18.4138282 26.5213353,18.3454492 C26.7093037,18.2640451 26.8916538,18.1678313 27.0669569,18.0575615 L27.0859021,18.0456898 C27.1419856,18.0106652 27.2111034,18.0123711 27.2656932,18.0501272 C27.3202829,18.0878834 27.3514649,18.1555484 27.3468044,18.226139 C27.3267766,18.5425187 27.1665545,18.8315936 26.9570748,19.0423155 C26.7465125,19.2560053 26.4829037,19.4067754 26.1992671,19.4696952 C25.9130888,19.5367992 25.6154875,19.5145901 25.3402379,19.4055882 C25.0674271,19.2975561 24.8249287,19.0933636 24.6955601,18.8185348 C24.6654926,18.754738 24.6704573,18.6778642 24.7084238,18.6193512 C24.7463903,18.5608382 24.8109921,18.5304978 24.8758101,18.540738 L24.8920488,18.5431123 L24.8920488,18.5431123 Z" id="Path" fill="#BF8F68"></path>
                    <path d="M17.3805507,43.7513904 C17.8352353,42.7440802 19.2886022,38.0660535 19.2886022,38.0660535 L20.4962229,25.9522139 C20.4962229,25.9522139 14.442422,27.3613797 13.0058351,31.9016952 C11.8815733,35.4560695 11.7906364,42.7897861 9.16104368,47.7064332 C12.4087909,48.2477807 17.3805507,43.7513904 17.3805507,43.7513904 Z" id="Path" fill="url(#radialGradient-4)"></path>
                    <path d="M29.5758416,27.0812086 C27.2400401,28.8583951 24.137339,28.8322517 21.8267167,27.0159144 C21.3793726,26.6671693 20.935843,26.3125771 20.4962229,25.9522139 C21.1268271,25.727246 21.650797,25.5319572 21.8602767,25.4316417 C23.3001113,24.7430856 24.1304521,24.5952834 25.7305089,24.5952834 C26.1770741,24.5952834 26.9716896,24.6582032 27.8128562,24.8309358 C29.4670421,25.1704652 31.5163706,25.9522139 31.5163706,25.9522139 L29.5758416,27.0812086 L29.5758416,27.0812086 Z M20.4020382,36.536984 L21.3227746,31.3478824 C21.420207,30.7982246 21.7666334,30.3411658 22.2408045,30.1351925 L23.758585,29.4751283 C24.0233999,29.2828957 24.3662068,29.2780227 24.6354768,29.4626631 C24.6354768,29.4626631 26.2966995,30.4996524 26.3427092,30.632615 C26.6728969,31.5942193 25.3543115,30.9270321 25.3543115,30.9270321 L25.9118414,31.477877 C26.174837,31.7370172 26.2781062,32.1391542 26.1770741,32.5107112 L25.0787943,34.2659358 C25.0228898,34.3198378 24.9452729,34.3375699 24.8743908,34.3126331 C24.8035088,34.2876964 24.7497848,34.2237577 24.7329092,34.1442513 L24.5218056,33.1505936 L23.5940325,32.9398717 C23.5940325,32.9398717 23.08576,32.5065561 23.0245941,36.4615989 C23.000236,38.0292513 21.3796101,38.7433316 21.3796101,38.7433316" id="Shape" fill="#FADCBD"></path>
                    <path d="M9.02680346,47.9551444 L16.1361222,47.9551444 C18.7050903,43.8534866 21.3796101,38.742738 21.3796101,38.742738 L20.4020382,36.5363904 C20.4020382,36.5363904 11.0377003,44.1585882 9.02680346,47.9551444 L9.02680346,47.9551444 Z" id="Path" fill="#797673"></path>
                    <path d="M58.9138251,45.1416101 L43.0350475,45.1416101 C42.5210977,45.1453881 42.027194,44.9231495 41.6638191,44.5245591 C41.3004442,44.1259686 41.097922,43.5842889 41.1015073,43.0206898 L41.1015073,32.3367914 C41.0980675,31.7732949 41.3006539,31.2317688 41.6640129,30.8333074 C42.0273718,30.434846 42.5211922,30.2126886 43.0350475,30.2164648 L58.9138251,30.2164648 C59.4276804,30.2126886 59.9215008,30.434846 60.2848598,30.8333074 C60.6482187,31.2317688 60.8508052,31.7732949 60.8473616,32.3367914 L60.8473616,43.0212834 C60.8508052,43.58478 60.6482187,44.1263061 60.2848598,44.5247675 C59.9215008,44.9232289 59.4276804,45.1453863 58.9138251,45.1416101 L58.9138251,45.1416101 Z" id="Path" fill="#F7B548"></path>
                    <path d="M53.6335294,37.2302888 L53.9312396,37.2302888 C54.2284084,37.2302888 54.4514204,37.3525668 54.6744324,37.5567594 C54.8606366,37.8013155 54.9721426,38.0458717 54.9721426,38.3723422 C54.9721426,38.6988128 54.8606366,38.9837326 54.6744324,39.1879251 C54.4887695,39.3915241 54.2284084,39.5143957 53.9306983,39.5143957 L53.6329881,39.5143957 L53.6329881,37.2302888 L53.6335294,37.2302888 Z M48.0923313,37.271246 L47.7946211,37.271246 C47.4974523,37.271246 47.2749816,37.3935241 47.0514283,37.5977166 C46.8652241,37.8422727 46.7537181,38.0868289 46.7537181,38.4132995 C46.7537181,38.7391765 46.8652241,38.9837326 47.0514283,39.2282888 C47.2370912,39.4324813 47.4974523,39.5547594 47.7951624,39.5547594 L48.0928726,39.5547594 L48.0928726,37.271246 L48.0923313,37.271246 Z" id="Shape" fill="#BE906B"></path>
                    <path d="M51.848351,37.6790374 C51.848351,37.5567594 51.8857001,37.4344813 51.9225079,37.3122032 C51.9603983,37.1893316 52.0345552,37.1489679 52.1087121,37.1489679 C52.182869,37.1489679 52.220218,37.1893316 52.2943749,37.3122032 C52.3322653,37.3935241 52.3690731,37.5158021 52.3690731,37.6790374 C52.3690731,37.8422727 52.331724,37.9639572 52.2943749,38.0458717 C52.2575671,38.1277861 52.182869,38.209107 52.1087121,38.209107 C52.0345552,38.209107 51.9972061,38.1681497 51.9225079,38.0458717 C51.8720713,37.9315966 51.8466775,37.8059804 51.848351,37.6790374 Z" id="Path" fill="#33312D"></path>
                    <polygon id="Path" fill="url(#radialGradient-5)" points="48.6130534 37.1080107 50.6954007 37.1080107 50.6954007 39.8812299 48.6130534 39.8812299"></polygon>
                    <path d="M49.2452816,37.6790374 C49.2452816,37.5567594 49.2826307,37.4344813 49.3194385,37.3122032 C49.3573288,37.1893316 49.4314857,37.1489679 49.5056426,37.1489679 C49.5797995,37.1489679 49.6171486,37.1893316 49.6918468,37.3122032 C49.7286546,37.3935241 49.7660037,37.5158021 49.7660037,37.6790374 C49.7660037,37.8422727 49.7286546,37.9639572 49.6918468,38.0458717 C49.6539564,38.1277861 49.5803408,38.209107 49.5056426,38.209107 C49.4309445,38.209107 49.3941366,38.1681497 49.3194385,38.0458717 C49.2452816,37.9645508 49.2452816,37.8422727 49.2452816,37.6790374 Z" id="Path" fill="#33312D"></path>
                    <path d="M50.4723887,39.7993155 C50.5470869,39.7993155 50.6212438,39.7993155 50.7327498,39.7589519 C50.807448,39.7174011 50.918954,39.7174011 50.9931109,39.6770374 L51.2161229,39.5547594 C51.290821,39.5138021 51.3649779,39.4734385 51.4396761,39.3915241 C51.4764839,39.3511604 51.513833,39.3511604 51.5511821,39.3915241 L51.5879899,39.4324813 C51.5879899,39.5957166 51.5511821,39.7174011 51.4396761,39.8402727 C51.3649779,39.9625508 51.253472,40.003508 51.1046169,40.0444652 C50.9931109,40.0848289 50.8447971,40.1257861 50.7327498,40.0848289 C50.5989256,40.0758498 50.4759737,40.001017 50.3982318,39.8812299 C50.3608827,39.8402727 50.3982318,39.7993155 50.4355809,39.7589519 C50.3976905,39.7993155 50.3976905,39.7589519 50.4723887,39.7993155 L50.4723887,39.7993155 Z" id="Path" fill="#9A6541"></path>
                    <path d="M51.1787738,38.3723422 C51.1787738,38.6988128 50.918954,39.5547594 50.6954007,39.6366738 C50.6954007,39.6366738 50.6954007,39.5547594 50.6585929,39.4324813 C50.6207025,39.2282888 50.5097378,39.0246898 50.3608827,38.943369 C50.2120277,38.8614545 50.0263648,38.6982193 50.0263648,38.3723422 C50.0263648,38.0464652 50.2493768,37.8826364 50.3982318,37.8013155 C50.55594,37.7184924 50.6567866,37.5443147 50.6580516,37.3525668 C50.695942,37.1489679 50.695942,36.9857326 50.695942,36.9857326 C50.8816049,37.1080107 51.1787738,38.1277861 51.1787738,38.3723422 L51.1787738,38.3723422 Z" id="Path" fill="#BE906B"></path>
                    <path d="M50.918954,42.8170909 C48.1296804,42.8170909 45.898478,40.3703422 45.898478,37.3122032 C45.898478,34.2540642 48.1296804,31.8067219 50.918954,31.8067219 C53.7082276,31.8067219 55.9388887,34.2534706 55.9388887,37.3122032 C55.9388887,40.329385 53.6708785,42.8170909 50.918954,42.8170909 Z" id="Path" fill="#F3F2F1"></path>
                    <path d="M50.918954,44.0814225 C50.3035648,44.0794664 49.8051366,43.5328872 49.8033528,42.8580481 L49.8033528,40.207107 L52.0345552,40.207107 L52.0345552,42.8580481 C52.0324744,43.5326554 51.5341327,44.0788745 50.918954,44.0808289 L50.918954,44.0814225 Z" id="Path" fill="#BE906B"></path>
                    <path d="M46.1961882,45.1415615 L55.6417198,45.1415615 C54.5196235,43.5232053 52.7723403,42.5728506 50.9184127,42.5725348 C49.0648854,42.5733132 47.3181088,43.5236102 46.1961882,45.1415615 L46.1961882,45.1415615 Z" id="Path" fill="#605D5A"></path>
                    <path d="M50.918954,41.3901504 C49.0596187,41.3901504 47.5721504,39.7589519 47.5721504,37.7199947 C47.5721504,35.6810374 49.0596187,34.0498717 50.918954,34.0498717 C52.7782893,34.0498717 54.2657874,35.6810374 54.2657874,37.7199947 C54.2695187,38.6946304 53.9181179,39.6305388 53.2896534,40.3197165 C52.6611888,41.0088942 51.8077292,41.3942421 50.918954,41.3901504 Z" id="Path" fill="#BE906B"></path>
                    <path d="M54.5629299,36.7002193 C53.6045677,36.7062639 52.6838651,36.2914519 52.006192,35.5483118 C51.3285188,34.8051717 50.9502497,33.7955243 50.9557618,32.7445791 L52.4805791,32.7445791 C53.0331604,32.7434773 53.5633996,32.9837059 53.9541342,33.4121877 C54.3448689,33.8406694 54.5639346,34.4221326 54.5629299,35.0280963 L54.5629299,36.7002193 L54.5629299,36.7002193 Z" id="Path" fill="#F3F2F1"></path>
                </g>
                <g id="Bottom-Left" transform="translate(0.422222, 0.000000)" fill-rule="nonzero">
                    <path d="M36.2984694,31.0182995 C36.2984694,31.0182995 21.3191684,34.6176971 13.4696083,28.2277949 C3.53345641,20.138864 5.08846419,8.16736402 5.08846419,8.16736402 L1.40987994,8.97625711 C1.40987994,8.97625711 -2.87536158,30.2900602 3.49591984,41.0888418 C11.421657,54.4761991 29.3967079,53.5860635 29.3967079,53.5860635 L36.2984694,31.0182995 L36.2984694,31.0182995 Z" id="Path" fill="#9B643D"></path>
                    <path d="M83.6498305,55.1163104 C84.7482687,42.3006606 76.4520823,31.1380753 65.0497199,31.1380753 L46.4490579,31.1380753 C35.0466955,31.1380753 26.788006,42.3012472 27.8494987,55.1163104 L28.3413697,61 L83.1574081,61 L83.6498305,55.1163104 L83.6498305,55.1163104 Z" id="Path" fill="#8B8CC4"></path>
                    <path d="M23.8035402,55.4283374 C26.2341543,57.9315953 30.905223,57.0031569 30.905223,57.0031569 C30.905223,57.0031569 52.7415019,32.2162026 43.9311476,30.9651613 C38.1965125,30.1577724 34.1711016,30.9651613 29.1584092,31.6515005 C26.1584222,32.0551949 20.8798382,31.4899052 20.8798382,31.4899052 C20.8798382,31.4899052 19.3983631,50.7861455 23.804093,55.4283374 L23.8035402,55.4283374 Z" id="Path" fill="#8B8CC4"></path>
                    <path d="M65.3839597,30.8834328 L64.0561224,54.8637399 C64.0561224,54.8637399 70.4286371,55.872738 74.5628764,61 L92.9969017,61 C93.3381089,38.7556164 65.3839597,30.8828452 65.3839597,30.8828452 L65.3839597,30.8834328 Z" id="Path" fill="#9B643D"></path>
                    <path d="M89.9158163,48.5656329 C82.0557606,32.0934315 65.3849251,30.8828452 65.3849251,30.8828452 L64.0561224,54.8636202 C64.0561224,54.8636202 68.6511044,55.589972 73.2460863,61 L74.1570126,61 C78.2202524,54.9035813 85.8149898,50.1805316 89.9158163,48.5650453 L89.9158163,48.5656329 Z" id="Path" fill="#8B8CC4"></path>
                    <path d="M64.6282752,22.4662598 L64.7044325,28.7226402 C64.7044325,29.9821951 65.6900628,30.8349078 66.9030612,30.9165128 L61.7850686,33.9222955 C57.5384703,36.0351545 52.6103192,35.994352 48.3637208,33.8004794 L43.8903061,30.9975264 C45.1044121,30.9965477 46.0883261,29.9419882 46.0889348,28.6410353 L46.1275653,21.6945607 L64.6282752,22.4662598 L64.6282752,22.4662598 Z" id="Path" fill="#9B643D"></path>
                    <polygon id="Path" fill="url(#radialGradient-6)" points="64.7678571 22.4566725 64.7678571 33.6903766 46.2627551 33.6103694 46.2627551 21.6945607"></polygon>
                    <ellipse id="Oval" fill="#9B643D" cx="64.0561224" cy="20.1631799" rx="1.89795918" ry="2.041841"></ellipse>
                    <path d="M56.3258747,29.6063927 L54.6674322,29.6063927 C50.0316932,29.6063927 46.2627551,25.5013754 46.2627551,20.5024713 L46.2627551,19.5275371 C46.2627551,14.528633 50.0689986,10.4644351 54.7047376,10.4644351 L56.36318,10.4644351 C60.998919,10.4644351 64.7678571,14.5688608 64.7678571,19.567765 L64.7678571,20.5438823 C64.7300032,25.5427865 60.9237597,29.6472122 56.3253261,29.6063927 L56.3258747,29.6063927 Z" id="Path" fill="#9B643D"></path>
                    <path d="M55.9892012,14.3527583 C55.8400297,18.2198131 55.1290148,18.9850149 54.5682604,19.7508032 C54.0820917,20.4356735 54.3439586,21.2812069 55.1665799,21.6441648 C55.3162959,21.6840374 55.4279024,21.8054142 55.5405977,21.8857458 C55.8019201,22.0874541 55.9521806,22.4498256 55.9521806,22.8121971 L55.7273344,29.0962343 L47.6862245,28.0085335 L48.9955589,14.4336762 C48.9955589,14.4735488 56.0643315,11.8554443 55.9892012,14.3527583 L55.9892012,14.3527583 Z" id="Path" fill="url(#radialGradient-7)"></path>
                    <ellipse id="Oval" fill="#9B643D" cx="46.7372449" cy="20.1631799" rx="1.89795918" ry="2.041841"></ellipse>
                    <ellipse id="Oval" fill="#33312D" cx="52.0752551" cy="18.5041841" rx="1" ry="1.14853556"></ellipse>
                    <ellipse id="Oval" fill="#33312D" cx="58.7181122" cy="18.5041841" rx="1" ry="1.14853556"></ellipse>
                    <path d="M57.9508513,22.9757494 L57.8398263,22.9757494 L54.1738446,23.4750082 L54.1000075,23.4750082 C53.9146065,23.558016 53.8035815,23.7664444 53.8779575,24.0160738 C54.2110326,25.140012 55.2479848,25.889506 56.321586,25.7646914 C57.3964156,25.6062722 58.2366007,24.6442328 58.3577634,23.4332013 C58.3757958,23.3067392 58.3387714,23.178228 58.2582131,23.0876642 C58.1776548,22.9971003 58.0633418,22.9554773 57.9508513,22.9757494 L57.9508513,22.9757494 Z" id="Path" fill="#231F20" opacity="0.6"></path>
                    <path d="M58.125,23.0145965 C57.5042973,23.5193736 56.7911151,23.8387562 56.0454734,23.9458655 C55.2281497,24.0788117 54.485423,23.9013349 53.8545918,23.679973 C53.8913498,23.5915573 53.9659468,23.5470268 54.0400032,23.5024962 L54.1140597,23.5024962 L57.7909352,22.9707113 L57.9022901,22.9707113 C57.9763466,22.9707113 58.0877015,22.9707113 58.125,23.0145965 L58.125,23.0145965 Z" id="Path" fill="#F8F8F8"></path>
                    <path d="M67.8520408,60.959494 L67.8520408,44.9889568 C67.8532153,44.4965819 67.6692698,44.0240129 67.340914,43.6758501 C67.0125582,43.3276873 66.5668736,43.1326459 66.1025099,43.1338912 L50.6219799,43.1338912 C50.1576161,43.1326459 49.7119316,43.3276873 49.3835758,43.6758501 C49.05522,44.0240129 48.8712745,44.4965819 48.872449,44.9889568 L48.872449,61 L67.8514815,61 L67.8514815,60.959494 L67.8520408,60.959494 Z" id="Path" fill="#FFD590"></path>
                    <path d="M51.4279568,50.3133043 C51.2001859,50.0723654 50.8585296,49.9518959 50.5544666,50.0723654 C50.0226327,50.2729529 49.7948619,50.9560032 50.0983721,51.4384659 L51.7696131,53.7285557 L47.4021622,52.8045664 C46.8327351,52.6835121 46.2627551,53.1659749 46.2627551,53.7683223 C46.2627551,54.1700822 46.5281192,54.571842 46.8703283,54.6923115 L47.3640161,54.8934838 L47.6680792,58.3888532 C47.7414044,59.1173339 48.245553,59.7153205 48.9213717,59.8754232 L53.6304788,60.759061 C53.8206564,60.7994125 54.0102812,60.8795305 54.1623127,61 L63.5816327,61 L51.4279568,50.3133043 Z" id="Path" fill="#9B643D"></path>
                    <path d="M9.01418854,4.79809921 C8.90247152,3.82261593 6.40619285,5.48946115 6.40619285,5.48946115 C6.40619285,5.48946115 8.30646669,1.30163091 7.41218827,1.09801061 C6.70446642,0.854139793 5.81018801,3.78177348 5.81018801,3.78177348 C5.81018801,3.78177348 7.30047126,0 6.44361262,0 C5.47503697,0 4.54333878,3.61899563 4.54333878,3.61899563 C4.54333878,3.61899563 6.25705606,0 5.02762661,0.284713264 C4.24506521,0.447491118 3.53734336,4.06648675 3.53734336,4.06648675 C3.53734336,4.06648675 4.87848982,1.46381685 4.13389051,1.54490981 C2.64306495,1.66743714 1.48847505,5.61139656 1.30191848,6.8319345 C1.041607,8.45793728 1.30191848,10.003439 1.30191848,10.003439 C1.30191848,10.003439 2.30791391,10.3692452 4.24506521,10.1253744 C5.4376172,9.96259657 9.08848577,5.652239 9.01418854,4.79809921 L9.01418854,4.79809921 Z" id="Path" fill="#9B643D"></path>
                </g>
                <g id="Group-2" transform="translate(17.422222, 65.000000)">
                    <g id="logo-M">
                        <polygon id="Path-2" stroke="#FFFFFF" stroke-width="6" fill="#212121" points="0 0 0 31.9300546 29.0274358 31.9300546 29.0274358 0"></polygon>
                        <path d="M18.6584256,8.62111475 C19.7807995,8.62111475 21.4675827,8.88859067 22.7139221,10.3545918 C23.544815,11.3319258 24.0651983,12.4869207 24.275072,13.8195765 L24.275072,23.315569 L21.0079873,23.315569 L21.0079873,17.3548592 L21.0079873,17.3548592 C21.0079873,16.8161666 20.7468167,16.1988089 19.9904314,15.7198721 C20.4087775,15.3169645 20.673658,14.7217715 20.673658,14.0580628 C20.673658,12.8407344 19.7825905,11.8538947 18.6834029,11.8538947 C17.5842154,11.8538947 16.6931478,12.8407344 16.6931478,14.0580628 C16.6931478,14.7101274 16.9488158,15.2960595 17.3551889,15.6996146 C16.9318624,15.9580053 16.4018888,16.4453969 16.4018888,17.3548592 L16.4018888,23.315569 L16.4018888,23.315569 L12.8063382,23.315569 L12.8063382,19.5214413 L12.8063382,19.5214413 C12.8063382,18.4983969 12.4450837,18.1365723 11.7736264,17.7261275 C12.1865975,17.3227069 12.4472703,16.7317182 12.4472703,16.0733022 C12.4472703,14.8559738 11.5562028,13.8691341 10.4570152,13.8691341 C9.35782768,13.8691341 8.46676012,14.8559738 8.46676012,16.0733022 C8.46676012,16.7195449 8.71788301,17.3008306 9.11795231,17.704001 C8.51412572,17.9162425 8.02267414,18.3018728 8.02267414,19.5214413 L8.02267414,23.315569 L8.02267414,23.315569 L4.7895269,23.315569 L4.7895269,13.8195765 C4.87739311,12.7334474 5.36777625,11.6552419 6.26067633,10.5849601 C7.60002644,8.9795374 9.42840939,8.62111475 10.472751,8.62111475 C12.0071548,8.62111475 13.3603376,9.27572987 14.5322995,10.5849601 C15.5573626,9.27572987 16.932738,8.62111475 18.6584256,8.62111475 Z" id="Combined-Shape" fill="#FFFFFF"></path>
                    </g>
                    <g id="Group" transform="translate(31.883404, 0.000000)">
                        <rect id="Rectangle" fill="#FFFFFF" x="0.577096313" y="0" width="91.7619908" height="31.9505192"></rect>
                        <path d="M44.9796353,13.4736842 C48.0195164,13.4736842 48.2139274,16.2602935 48.2139274,17.4248467 C48.2139274,17.7531199 48.1377319,18.0993241 47.6457273,18.147107 L47.524652,18.1526924 L42.9118092,18.1526924 C42.8764618,20.211456 43.318305,22.7485182 45.3684573,22.7485182 C46.3003059,22.7485182 47.0841632,22.3491646 47.7200292,21.5504573 L47.854021,21.3731932 L48.0793351,21.7833482 C47.2044856,22.7485182 46.8027066,23.3994532 44.997309,23.5595463 C42.2101313,23.8066984 41.2151314,21.6671474 41.2151314,18.5893998 C41.2151314,15.6780169 42.34625,13.4736842 44.9796353,13.4736842 Z M14.6803057,7.57894737 L14.6803057,7.89199733 C13.7026379,8.03005697 13.0852758,8.28139982 12.8282193,8.64602586 C12.4622335,9.16516448 12.3652229,9.99705877 12.3652229,11.0089486 L12.3652229,11.0089486 L12.3652229,18.7409813 C12.3652229,20.1425602 13.2311462,21.1436594 14.2934064,21.6860275 C15.1431093,22.1198682 16.1419098,22.231578 16.7500438,22.231578 C17.4322974,22.231578 18.5653686,22.0074941 19.5097719,21.3469242 C20.4595577,20.6825896 21.2187509,19.5784892 21.2187509,18.4219681 L21.2187509,18.4219681 L21.2187509,10.5397828 C21.2187509,9.44559668 20.9341654,8.83426127 20.5114532,8.37033356 C20.2823759,8.1189207 19.8235098,7.95947529 19.134855,7.89199733 L19.134855,7.89199733 L19.134855,7.57894737 L24.1069637,7.57894737 L24.1069637,7.89199733 C22.727863,7.81235657 22.0383127,8.69495173 22.0383127,10.5397828 L22.0383127,10.5397828 L22.0383127,18.4219681 C22.0383127,19.5360238 21.5758885,20.9890733 20.5114532,22.0033286 C19.5171962,22.9507139 17.9713014,23.4953552 16.5112851,23.5699343 C14.4588211,23.6747762 12.3965794,22.8588223 11.3147074,21.4428389 C10.9349928,20.9458581 10.4248177,20.1197918 10.4248177,19.5998293 L10.4248177,19.5998293 L10.4248177,10.8703253 C10.4248177,10.5284976 10.5157063,9.22051481 9.98124244,8.51892304 C9.79326428,8.27216374 9.31754477,8.11404917 8.55408389,8.04457933 L8.55408389,8.04457933 L8.55408389,7.57894737 L14.6803057,7.57894737 Z M83.1233804,13.4736842 C83.7488766,13.4736842 83.9855509,13.9632803 83.9855509,14.3941248 C83.9855509,14.9816401 83.6305395,15.4712362 83.2248122,15.4712362 C83.0726645,15.4712362 82.9205167,15.3929009 82.8528955,15.3145655 C82.5824106,14.9228886 82.4133576,14.7662179 82.0076303,14.7662179 C81.5680924,14.7662179 81.0778386,15.2166463 81.0778386,16.626683 L81.0778386,16.626683 L81.0778386,21.2288862 C81.0778386,22.129743 81.1285545,22.247246 82.4471682,22.3647491 L82.4471682,22.3647491 L82.4471682,22.7368421 L78.5420429,22.7368421 L78.5420429,22.3647491 C79.5901718,22.2864137 79.6239824,22.1493268 79.6239824,21.2288862 L79.6239824,15.2362301 C79.6239824,14.5899633 79.4718347,14.4137087 79.0830127,14.3353733 L79.0830127,14.3353733 L78.6096642,14.2766218 L78.6096642,13.9632803 L80.8918802,13.4932681 L81.0778386,15.0403917 C82.1090621,13.9632803 82.5655053,13.4736842 83.1233804,13.4736842 Z M72.3297079,13.4736842 C75.0276564,13.4736842 76.209111,15.21172 76.209111,18.1148128 C76.209111,21.0179056 75.0276564,22.7368421 72.3120742,22.7368421 C69.649393,22.7368421 68.4326711,21.0179056 68.4326711,18.1148128 C68.4326711,15.2971051 69.5788736,13.5769294 72.0808784,13.4781801 L72.3120742,13.4736842 L72.3297079,13.4736842 Z M63.9640751,10.9473684 L63.9640751,14.2120306 L66.8773831,14.2120306 L66.8773831,14.9574668 L63.9640751,14.9574668 L63.9640751,14.9574668 L63.9640751,20.7191381 C63.9640751,21.4929372 64.4772855,21.9308568 65.2477077,21.6930195 C65.5198192,21.6090159 65.8728532,21.2843887 66.3068098,20.7191381 L66.3068098,20.7191381 L66.5003927,21.0259818 C66.002115,21.7097081 65.5845533,22.1510844 65.2477077,22.3501108 C64.5711205,22.7498747 64.0966048,22.7367927 63.7668071,22.7367927 C62.9026764,22.7367927 62.3970168,22.3334708 62.3970168,21.0259818 L62.3970168,21.0259818 L62.3970168,14.9574668 L60.6562312,14.9574668 L60.6562312,14.5647068 C61.4712678,14.3693739 62.0515297,14.0566546 62.3970168,13.6265487 C62.7425039,13.1964428 63.1307971,12.3033827 63.5618965,10.9473684 L63.5618965,10.9473684 L63.9640751,10.9473684 Z M55.5339893,13.4736842 C57.1012872,13.4736842 57.9299735,14.5507956 57.9299735,16.4112607 L57.9299735,16.4112607 L57.9299735,21.130967 C57.9299735,22.2080783 57.9840182,22.2668299 59.1009432,22.3647491 L59.1009432,22.3647491 L59.1009432,22.7368421 L55.1736909,22.7368421 L55.1736909,22.3647491 C56.3086308,22.2864137 56.3806905,22.2276622 56.3806905,21.130967 L56.3806905,16.4700122 C56.3806905,14.9228886 55.7141385,14.2962056 54.6332434,14.2962056 C53.7505124,14.2962056 52.939841,14.8249694 52.6696172,15.4320685 C52.5254979,15.7258262 52.4894681,16 52.4894681,16.4308446 L52.4894681,16.4308446 L52.4900544,21.2681086 C52.4992077,22.2311791 52.6273213,22.2710872 53.6784527,22.3647491 L53.6784527,22.3647491 L53.6784527,22.7368421 L49.7692153,22.7368421 L49.7692153,22.3647491 C50.8681254,22.2864137 50.940185,22.1884945 50.940185,21.130967 L50.940185,21.130967 L50.9399995,15.2619177 C50.936694,14.522231 50.8840616,14.4106958 50.3817226,14.3353733 L50.3817226,14.3353733 L49.841275,14.2766218 L49.841275,13.9632803 L52.2372592,13.4932681 L52.4714531,14.9228886 C53.5343333,14.1982864 54.3089748,13.4736842 55.5339893,13.4736842 Z M35.4783186,13.4736842 C36.9892249,13.4736842 37.7533614,14.5507956 37.7533614,16.4112607 L37.7533614,16.4112607 L37.7533614,21.130967 C37.7533614,22.1493268 37.8749286,22.2668299 38.8821995,22.3647491 L38.8821995,22.3647491 L38.8821995,22.7368421 L35.0441501,22.7368421 L35.0441501,22.3647491 C36.1729882,22.2864137 36.2598219,22.1689106 36.2598219,21.130967 L36.2598219,16.4895961 C36.2598219,14.9620563 35.651986,14.2962056 34.5752482,14.2962056 C33.9326788,14.2962056 33.2727427,14.7074663 32.9080412,15.1970624 C32.7170071,15.4712362 32.6128066,15.6083231 32.6128066,16.4504284 L32.6128066,16.4504284 L32.6128066,21.130967 C32.6128066,22.1689106 32.7517405,22.2668299 33.8284784,22.3647491 L33.8284784,22.3647491 L33.8284784,22.7368421 L29.920962,22.7368421 L29.920962,22.3647491 C31.0498001,22.2864137 31.1366338,22.1689106 31.1366338,21.130967 L31.1366338,21.130967 L31.1366338,16.4895961 C31.1366338,14.9228886 30.5461647,14.2962056 29.521527,14.2962056 C28.6705568,14.2962056 27.923787,14.8249694 27.6806527,15.4516524 C27.5417188,15.74541 27.5069853,16 27.5069853,16.4504284 L27.5069853,16.4504284 L27.5069853,21.130967 C27.5069853,22.1493268 27.593819,22.2668299 28.722657,22.3647491 L28.722657,22.3647491 L28.722657,22.7368421 L24.8846077,22.7368421 L24.8846077,22.3647491 C25.9424,22.2935351 26.0098575,22.1413962 26.0133805,21.3786415 L26.0134457,15.3537332 C26.0134457,14.5703794 25.926612,14.4137087 25.4750768,14.3353733 L25.4750768,14.3353733 L24.9540746,14.2766218 L24.9540746,13.9632803 L27.2638509,13.4932681 L27.524352,14.9033048 C28.4968894,14.1395349 29.191559,13.4736842 30.389864,13.4736842 C31.4666018,13.4736842 32.1439047,14.0611995 32.4738727,15.0403917 C33.4464101,14.2570379 34.2626468,13.4736842 35.4783186,13.4736842 Z M72.3915859,14.0526316 C70.9564793,14.0526316 70.2480378,15.6359897 70.2024029,18.0460148 L70.2000438,18.2982456 L70.2000438,18.3172842 C70.2000438,20.8684604 70.9069929,22.5438596 72.3915859,22.5438596 C73.9292002,22.5438596 74.6184755,20.8684604 74.6184755,18.2982456 C74.6184755,15.7661081 73.9292002,14.0526316 72.3915859,14.0526316 Z M44.8260168,13.8778947 C43.2011592,13.8778947 42.9386397,16.6818408 42.9229438,17.6269471 L42.9221548,17.7178947 L45.8722833,17.7178947 C46.4005621,17.7178947 46.4955456,17.3340346 46.5058621,16.8051607 L46.506904,16.689698 L46.5066619,16.634772 C46.4993656,15.8037857 46.3186141,13.8778947 44.8260168,13.8778947 Z" id="Combined-Text" fill="#323330"></path>
                    </g>
                    <g id="logo-JS" transform="translate(124.266213, 0.000000)">
                        <polygon id="Path-2" stroke="#FFFFFF" stroke-width="6" fill="#F7DF1E" points="0 0 0 31.9300546 29.0274358 31.9300546 29.0274358 0"></polygon>
                        <path d="M7.15992426,19.1744578 C7.58922582,20.0135227 7.97975696,20.7234176 8.91647784,20.7234176 C9.81437061,20.7234176 10.3804648,20.3362381 10.3804648,18.830195 L10.3804648,8.58817105 L13.1130289,8.58817105 L13.1130289,18.8728065 C13.1130289,21.9927315 11.454036,23.4128393 9.0335968,23.4128393 C6.84762627,23.4128393 5.57876065,22.1648311 4.93466408,20.6587372 L7.15992426,19.1744578 Z" id="j" fill="#212121" fill-rule="nonzero"></path>
                        <path d="M16.8483503,18.9295699 C17.437457,19.9807681 18.2030868,20.7529826 19.5576492,20.7529826 C20.6964611,20.7529826 21.4226315,20.1308614 21.4226315,19.2727834 C21.4226315,18.243143 20.6766734,17.8784351 19.4201793,17.277986 L18.7332364,16.9560133 C16.7502819,16.0337817 15.4348888,14.8754284 15.4348888,12.4300087 C15.4348888,10.1776586 17.0054338,8.46146448 19.4595228,8.46146448 C21.2067649,8.46146448 22.4632009,9.12652377 23.3661845,10.8640855 L21.2262626,12.3655889 C20.75507,11.4432938 20.2447662,11.0786494 19.4595228,11.0786494 C18.6546076,11.0786494 18.1441297,11.6363633 18.1441297,12.3655889 C18.1441297,13.2665796 18.6546076,13.6312875 19.8324148,14.1890649 L20.5194738,14.5107839 C22.8557066,15.6048442 24.1710997,16.7202086 24.1710997,19.2298579 C24.1710997,21.9328303 22.2275466,23.4128393 19.6165482,23.4128393 C17.0643909,23.4128393 15.4152751,22.0829743 14.610476,20.3453492 L16.8483503,18.9295699 Z" id="s" fill="#212121" fill-rule="nonzero"></path>
                    </g>
                </g>
                <polygon id="Path-3" fill="#D8D8D8" points="17.4222222 61 172.422222 61 172.422222 63 17.4222222 63"></polygon>
            </g>
        </g>
    </g>
</svg>