<?xml version="1.0" encoding="UTF-8"?>
<svg width="450px" height="150px" viewBox="0 0 450 150" version="1.1" xmlns="http://www.w3.org/2000/svg" xmlns:xlink="http://www.w3.org/1999/xlink">
    <title>Untitled</title>
    <defs>
        <radialGradient cx="-10.8837925%" cy="75.6031886%" fx="-10.8837925%" fy="75.6031886%" r="62.0615421%" gradientTransform="translate(-0.108838,0.756032),scale(0.980536,1.000000),translate(0.108838,-0.756032)" id="radialGradient-1">
            <stop stop-color="#33312D" offset="0.7%"></stop>
            <stop stop-color="#3D3B37" offset="10.5%"></stop>
            <stop stop-color="#5E5B58" offset="47.8%"></stop>
            <stop stop-color="#726F6C" offset="79%"></stop>
            <stop stop-color="#797673" offset="100%"></stop>
        </radialGradient>
        <radialGradient cx="32.0700268%" cy="-51.4433569%" fx="32.0700268%" fy="-51.4433569%" r="91.0673181%" gradientTransform="translate(0.320700,-0.514434),scale(0.687079,1.000000),rotate(180.000000),translate(-0.320700,0.514434)" id="radialGradient-2">
            <stop stop-color="#9B643D" offset="0%"></stop>
            <stop stop-color="#A36E48" offset="7.1%"></stop>
            <stop stop-color="#D2A987" offset="51.1%"></stop>
            <stop stop-color="#EFCEAE" offset="83.3%"></stop>
            <stop stop-color="#FADCBD" offset="100%"></stop>
        </radialGradient>
        <radialGradient cx="106.529664%" cy="54.2992167%" fx="106.529664%" fy="54.2992167%" r="65.7099689%" gradientTransform="translate(1.065297,0.542992),scale(1.000000,0.925394),translate(-1.065297,-0.542992)" id="radialGradient-3">
            <stop stop-color="#9B643D" offset="0%"></stop>
            <stop stop-color="#B78763" stop-opacity="0.678" offset="32.1%"></stop>
            <stop stop-color="#FADCBD" stop-opacity="0" offset="100%"></stop>
        </radialGradient>
        <radialGradient cx="52.4766248%" cy="104.931413%" fx="52.4766248%" fy="104.931413%" r="81.4708467%" gradientTransform="translate(0.524766,1.049314),scale(1.000000,0.574261),translate(-0.524766,-1.049314)" id="radialGradient-4">
            <stop stop-color="#33312D" offset="0.7%"></stop>
            <stop stop-color="#3D3B37" offset="10.5%"></stop>
            <stop stop-color="#5E5B58" offset="47.8%"></stop>
            <stop stop-color="#726F6C" offset="79%"></stop>
            <stop stop-color="#797673" offset="100%"></stop>
        </radialGradient>
        <radialGradient cx="88.8556683%" cy="45.3207089%" fx="88.8556683%" fy="45.3207089%" r="78.3198689%" gradientTransform="translate(0.888557,0.453207),scale(1.000000,0.829269),rotate(-179.914492),translate(-0.888557,-0.453207)" id="radialGradient-5">
            <stop stop-color="#744D2C" offset="0%"></stop>
            <stop stop-color="#BE906B" stop-opacity="0" offset="100%"></stop>
        </radialGradient>
        <radialGradient cx="50.4663205%" cy="24.7004874%" fx="50.4663205%" fy="24.7004874%" r="98.1594324%" gradientTransform="translate(0.504663,0.247005),scale(0.604419,1.000000),rotate(180.000000),translate(-0.504663,-0.247005)" id="radialGradient-6">
            <stop stop-color="#591C17" offset="0%"></stop>
            <stop stop-color="#7B422B" stop-opacity="0.454" offset="54.5%"></stop>
            <stop stop-color="#9B643D" stop-opacity="0" offset="100%"></stop>
        </radialGradient>
        <radialGradient cx="100.642578%" cy="46.2134891%" fx="100.642578%" fy="46.2134891%" r="52.4508869%" gradientTransform="translate(1.006426,0.462135),scale(1.000000,0.562784),rotate(4.005390),translate(-1.006426,-0.462135)" id="radialGradient-7">
            <stop stop-color="#593417" offset="0%"></stop>
            <stop stop-color="#9B643D" stop-opacity="0" offset="100%"></stop>
        </radialGradient>
    </defs>
    <g id="Page-1" stroke="none" stroke-width="1" fill="none" fill-rule="evenodd">
        <g id="donasi" fill-rule="nonzero">
            <rect id="Rectangle" fill="#323330" x="0" y="0" width="450" height="150"></rect>
            <path d="M208.816091,39.3975675 C217.429675,48.6425135 222.824311,59.5680156 225,72.1740738 L225,162 L191.131247,162 L191.131247,105.615554 L191.131247,105.615554 C191.131247,100.540437 188.44559,94.7271935 180.677278,90.2045535 C185.154247,86.4439619 188,80.8043116 188,74.5 C188,63.1781626 178.821837,54 167.5,54 C156.178163,54 147,63.1781626 147,74.5 C147,80.5268409 149.600767,85.9462403 153.741213,89.6971112 C149.271091,92.0809851 143.381395,96.7082574 143.381395,105.615554 L143.381395,162 L143.381395,162 L106.107548,162 L106.107548,126.110014 L106.107548,126.110014 C106.107548,116.273295 102.238172,112.89901 95.0552359,108.935273 C98.7299321,105.231095 101,100.130649 101,94.5 C101,83.1781626 91.8218374,74 80.5,74 C69.1781626,74 60,83.1781626 60,94.5 C60,100.37654 62.4726648,105.675557 66.4343305,109.413389 C60.8497953,111.541178 56.5169347,115.471154 56.5169347,126.110014 L56.5169347,162 L56.5169347,162 L23,162 L23,72.1740738 C23.910879,61.8999976 28.9945138,51.7008739 38.2509043,41.5767026 C52.1354901,26.3904456 71.0897125,23 81.9160456,23 C97.8226867,23 111.850671,29.1922342 124,41.5767026 C134.62648,29.1922342 148.884527,23 166.774142,23 C178.409409,23 195.895716,25.5301486 208.816091,39.3975675 Z" id="Combined-Shape" fill="#FFFFFF"></path>
            <g id="Microsoft-Team-Illustration" transform="translate(104.000000, 32.000000)">
                <g id="Bottom-Right" transform="translate(139.000000, 17.000000)">
                    <path d="M66.3778681,42.5382884 C65.3875714,38.48664 57.5823297,38.9934485 56.5927429,35.3019936 C55.6038659,31.6098339 59.5061319,28.5471317 57.7420549,25.1157774 C55.9772681,21.6844231 51.8151824,21.7196671 49.3795495,18.4722864 C46.9446264,15.2249057 46.1140549,7.97662801 46.1140549,7.97662801 L34.4484308,2.61319853 L33.6888484,5.89793783 L32.8831231,2.26780749 L21.1571582,7.97662801 C21.1571582,7.97662801 20.2470791,15.2502814 17.7752418,18.5709696 C15.3034044,21.8916578 10.6294879,21.6315572 8.82707692,25.1157774 C7.02466593,28.5999977 11.4068176,31.8946053 10.376767,35.61637 C9.34742637,39.3381347 2.17966593,39.2627126 0.510714286,43.1437801 C-2.14924396,49.3298041 6.52632308,50.4956751 6.52348352,53.9918783 C6.52277363,55.575743 5.36494286,56.2249372 3.92528571,56.946734 L65.0162989,56.946734 C62.696378,55.8943486 60.2238308,55.6723115 60.2458374,53.566131 C60.2813319,50.0699278 68.0375912,49.3298041 66.3778681,42.5382884 Z" id="Path" fill="#FFFFFF"></path>
                    <path d="M26.8795824,30.818254 L21.1883934,37.5061524 L21.9515253,49.2163185 C22.8839753,51.6908667 23.3849912,54.3050786 23.4330659,56.946734 L44.0624725,56.946734 C44.1102785,54.3051151 44.6110555,51.6908977 45.5433033,49.2163185 L47.8362484,42.5608446 L41.3336549,30.8175491 L26.8802923,30.8175491 L26.8795824,30.818254 Z" id="Path" fill="url(#radialGradient-1)"></path>
                    <path d="M51.1564044,37.8825582 C49.272356,32.4916384 41.3329451,30.8175491 41.3329451,30.8175491 C41.3329451,30.8175491 42.2295363,46.5074659 44.1142945,56.9474388 L52.4164593,56.946734 C51.6348703,49.7167831 52.4129099,41.480264 51.1564044,37.883263 L51.1564044,37.8825582 Z" id="Path" fill="#797673"></path>
                    <path d="M46.8984835,11.9902129 C46.8984835,12.5689191 46.8636989,13.1391668 46.7976791,13.6981364 C46.4292462,16.7812801 45.0769055,19.5465231 43.0778549,21.6350816 C40.7181802,24.1049799 37.4562352,25.6317493 33.8556725,25.6317493 L33.6334769,25.6317493 C26.9484418,25.6317493 21.4361451,20.3698225 20.6801121,13.5902898 C20.6197904,13.0590443 20.5899268,12.5248238 20.5906396,11.9902129 C20.5906396,8.71745655 21.8585297,5.75414238 23.910822,3.61060328 C24.9046681,2.56949599 26.0830857,1.72152574 27.3907033,1.12449265 C28.8116305,0.473785586 30.3578752,0.137090135 31.9226418,0.137659648 L35.5665077,0.137659648 C37.2170022,0.137659648 38.7851495,0.507018048 40.1978308,1.17171959 C44.1476593,3.02414338 46.8991934,7.17024566 46.8991934,11.9902129 L46.8984835,11.9902129 Z" id="Path" fill="#FFFFFF"></path>
                    <polygon id="Path" fill="#FADCBD" points="31.0132725 20.2351905 36.4758769 20.2351905 36.4758769 31.292638 31.0132725 31.292638"></polygon>
                    <path d="M38.3372088,24.5011223 L37.3355538,24.9198209 C36.8150989,25.1373501 36.4766304,25.6434137 36.4765868,26.2041116 L36.4765868,27.3579997 C36.4765868,28.5999977 37.3490418,29.7263954 38.5714725,29.9879057 L38.8043165,30.0379522 L33.9877121,31.1326303 L29.1505209,29.9991838 C30.2587078,29.6549295 31.0131642,28.6357225 31.0132725,27.4827634 L31.0132725,26.2041116 C31.0132725,25.6430274 30.6746549,25.1369238 30.1543055,24.9198209 L29.1505209,24.4997126 L38.3364989,24.5011223 L38.3372088,24.5011223 Z" id="Path" fill="url(#radialGradient-2)"></path>
                    <path d="M33.8599319,25.6543055 L33.6299275,25.6543055 C28.549244,25.6543055 24.4297516,21.5638887 24.4297516,16.5190648 L24.4297516,16.4513964 C24.4297516,12.0684545 28.0090176,8.5144512 32.4231143,8.5144512 L35.0667451,8.5144512 C39.4815516,8.5144512 43.0601077,12.0684545 43.0601077,16.4513964 L43.0601077,16.5190648 C43.0601077,21.5638887 38.9413253,25.6543055 33.8599319,25.6543055 L33.8599319,25.6543055 Z" id="Path" fill="#FADCBD"></path>
                    <ellipse id="Oval" fill="#605D5A" cx="37.399444" cy="17.0089562" rx="1" ry="1.38931785"></ellipse>
                    <polygon id="Path" fill="url(#radialGradient-3)" points="26.9612198 14.7385388 33.8187582 14.7385388 33.8187582 22.1489388 26.9612198 22.1489388"></polygon>
                    <ellipse id="Oval" fill="#605D5A" cx="29.9782527" cy="17.0089562" rx="1" ry="1.38931785"></ellipse>
                    <path d="M46.2893978,14.4572918 C45.3499957,14.9465323 44.3047445,15.2012831 43.2439692,15.1995512 C39.7784826,15.1995512 36.9087361,12.5271154 36.6867143,9.09315742 L30.9749385,9.09315742 C30.7528992,12.5273866 27.8827339,15.1999075 24.4169736,15.1995512 C23.2859162,15.2015611 22.1736944,14.9120491 21.1891033,14.3593135 C21.1308923,13.8792904 25.2468352,5.2297119 25.2468352,5.2297119 L42.6476615,5.2297119 C42.6476615,5.2297119 46.3532879,13.9483686 46.2893978,14.4572918 Z" id="Path" fill="#FFFFFF"></path>
                    <path d="M36.6881341,8.5144512 C36.6845846,8.50317313 36.6881341,9.09315742 36.6881341,9.09315742 L33.832956,9.09174766 L33.832956,8.49753409 C33.9069573,7.76675213 34.5286221,7.21176809 35.2682965,7.21615071 C36.0079708,7.22053332 36.6229212,7.78284439 36.6881341,8.5144512 L36.6881341,8.5144512 Z M33.832956,8.5144512 L33.8272769,8.49823897 L33.8272769,9.09174766 L30.9770681,9.09174766 L30.9770681,8.49823897 C31.0490748,7.76580618 31.6713272,7.20853415 32.4124604,7.2127414 C33.1535935,7.21694865 33.7693882,7.78124879 33.832956,8.5144512 Z" id="Shape" fill="#E0BB95"></path>
                    <path d="M34.6152549,14.7068192 C34.6152549,14.7068192 34.0714791,14.9168733 33.8180484,16.2434569 C33.4950484,17.9351681 32.231444,18.0232781 32.5501846,19.2511785 C32.7276571,19.9342069 33.7286022,20.302859 33.8180484,20.830109 C33.8180484,20.830109 36.804556,20.3225956 34.6152549,14.7068192 Z" id="Path" fill="#FADCBD"></path>
                    <path d="M32.6453099,22.0199459 C33.2529758,22.1080558 33.6625824,22.0812704 34.1147824,21.9825872 C34.3415886,21.9323717 34.564568,21.866421 34.7820791,21.7852209 C35.028595,21.6885536 35.2677426,21.5742997 35.4976484,21.4433543 L35.5224945,21.4292567 C35.5960466,21.3876649 35.686693,21.3896906 35.7582861,21.4345261 C35.8298793,21.4793616 35.8707736,21.5597137 35.8646615,21.6435401 C35.8383956,22.019241 35.6282681,22.3625174 35.3535407,22.6127497 C35.0773934,22.8665064 34.7316769,23.0455458 34.3596945,23.120263 C33.9843787,23.1999491 33.5940819,23.1735757 33.2330989,23.044136 C32.8753143,22.9158479 32.5572835,22.6733693 32.3876198,22.34701 C32.3481871,22.2712514 32.3546981,22.1799638 32.4044903,22.1104796 C32.4542824,22.0409953 32.539006,22.0049662 32.6240132,22.0171263 L32.6453099,22.0199459 L32.6453099,22.0199459 Z" id="Path" fill="#BF8F68"></path>
                    <path d="M22.7941648,51.9547761 C23.3904725,50.7585953 25.2965275,45.2034385 25.2965275,45.2034385 L26.8802923,30.818254 C26.8802923,30.818254 18.9408813,32.4916384 17.056833,37.883263 C15.5823912,42.1040826 15.4631297,50.812871 12.0144835,56.6513894 C16.2738242,57.2942396 22.7941648,51.9547761 22.7941648,51.9547761 Z" id="Path" fill="url(#radialGradient-4)"></path>
                    <path d="M38.787989,32.1589352 C35.7246428,34.2693442 31.6555266,34.2382989 28.6252022,32.0813984 C28.0385214,31.6672635 27.4568433,31.2461854 26.8802923,30.818254 C27.7073143,30.5511046 28.3944879,30.3191992 28.6692154,30.2000745 C30.5575231,29.3824141 31.6464945,29.2068991 33.7449297,29.2068991 C34.330589,29.2068991 35.3727077,29.2816163 36.4758769,29.4867363 C38.6453011,29.8899275 41.3329451,30.818254 41.3329451,30.818254 L38.787989,32.1589352 L38.787989,32.1589352 Z M26.7567714,43.3876684 L27.9642945,37.2256103 C28.0920747,36.5728917 28.5464044,36.0301344 29.1682681,35.7855411 L31.1588,35.0017149 C31.5060982,34.7734387 31.9556811,34.7676519 32.308822,34.9869124 C32.308822,34.9869124 34.4874747,36.2183372 34.5478154,36.3762303 C34.9808484,37.5181354 33.251556,36.7258506 33.251556,36.7258506 L33.9827429,37.3799789 C34.3276551,37.6877079 34.46309,38.1652456 34.330589,38.6064696 L32.890222,40.6907988 C32.8169047,40.7548074 32.715112,40.7758642 32.6221519,40.7462518 C32.5291919,40.7166395 32.4587341,40.6407123 32.4366022,40.5462985 L32.1597451,39.3663299 L30.9429934,39.1160976 C30.9429934,39.1160976 30.2764066,38.6015354 30.196189,43.2981487 C30.164244,45.159736 28.038833,46.0077062 28.038833,46.0077062" id="Shape" fill="#FADCBD"></path>
                    <path d="M11.8384308,56.946734 L21.1621275,56.946734 C24.5312659,52.0760154 28.038833,46.0070013 28.038833,46.0070013 L26.7567714,43.3869636 C26.7567714,43.3869636 14.4756725,52.4383235 11.8384308,56.946734 L11.8384308,56.946734 Z" id="Path" fill="#797673"></path>
                    <path d="M77.264033,53.6057183 L56.4394066,53.6057183 C55.7653741,53.6101483 55.1176314,53.3462401 54.6410742,52.8729139 C54.1645169,52.3995877 53.8989141,51.7563431 53.9035547,51.0870692 L53.9035547,38.3999398 C53.8991049,37.7307877 54.164792,37.0877254 54.6413284,36.6145525 C55.1178647,36.1413796 55.765498,35.8775677 56.4394066,35.8819957 L77.264033,35.8819957 C77.9379416,35.8775677 78.5855749,36.1413796 79.0621112,36.6145525 C79.5386475,37.0877254 79.8043346,37.7307877 79.7998751,38.3999398 L79.7998751,51.0877741 C79.8043346,51.7569262 79.5386475,52.3999885 79.0621112,52.8731614 C78.5855749,53.3463343 77.9379416,53.6101462 77.264033,53.6057183 L77.264033,53.6057183 Z" id="Path" fill="#F7B548"></path>
                    <path d="M70.3390549,44.2109679 L70.7294945,44.2109679 C71.1192242,44.2109679 71.4116989,44.3561731 71.7041736,44.5986517 C71.9483758,44.8890622 72.0946132,45.1794726 72.0946132,45.5671564 C72.0946132,45.9548402 71.9483758,46.2931825 71.7041736,46.5356611 C71.4606813,46.7774348 71.1192242,46.9233449 70.7287846,46.9233449 L70.3383451,46.9233449 L70.3383451,44.2109679 L70.3390549,44.2109679 Z M63.0719099,44.2596046 L62.6814703,44.2596046 C62.2917407,44.2596046 61.9999758,44.4048098 61.7067912,44.6472884 C61.462589,44.9376989 61.3163516,45.2281093 61.3163516,45.6157931 C61.3163516,46.0027721 61.462589,46.2931825 61.7067912,46.5835929 C61.9502835,46.8260715 62.2917407,46.9712767 62.6821802,46.9712767 L63.0726198,46.9712767 L63.0726198,44.2596046 L63.0719099,44.2596046 Z" id="Shape" fill="#BE906B"></path>
                    <path d="M67.9978374,44.743857 C67.9978374,44.5986517 68.0468198,44.4534465 68.0950923,44.3082413 C68.1447846,44.1623312 68.2420396,44.1143994 68.3392945,44.1143994 C68.4365495,44.1143994 68.4855319,44.1623312 68.5827868,44.3082413 C68.6324791,44.4048098 68.6807516,44.550015 68.6807516,44.743857 C68.6807516,44.9376989 68.6317692,45.0821992 68.5827868,45.1794726 C68.5345143,45.276746 68.4365495,45.3733145 68.3392945,45.3733145 C68.2420396,45.3733145 68.1930571,45.3246778 68.0950923,45.1794726 C68.028946,45.043771 67.9956427,44.8946017 67.9978374,44.743857 Z" id="Path" fill="#33312D"></path>
                    <polygon id="Path" fill="url(#radialGradient-5)" points="63.7548242 44.0657627 66.4857714 44.0657627 66.4857714 47.3589606 63.7548242 47.3589606"></polygon>
                    <path d="M64.5839758,44.743857 C64.5839758,44.5986517 64.6329582,44.4534465 64.6812308,44.3082413 C64.7309231,44.1623312 64.828178,44.1143994 64.925433,44.1143994 C65.0226879,44.1143994 65.0716703,44.1623312 65.1696352,44.3082413 C65.2179077,44.4048098 65.2668901,44.550015 65.2668901,44.743857 C65.2668901,44.9376989 65.2179077,45.0821992 65.1696352,45.1794726 C65.1199429,45.276746 65.0233978,45.3733145 64.925433,45.3733145 C64.8274681,45.3733145 64.7791956,45.3246778 64.6812308,45.1794726 C64.5839758,45.0829041 64.5839758,44.9376989 64.5839758,44.743857 Z" id="Path" fill="#33312D"></path>
                    <path d="M66.1932967,47.2616872 C66.2912615,47.2616872 66.3885165,47.2616872 66.5347538,47.2137553 C66.6327187,47.1644138 66.778956,47.1644138 66.876211,47.116482 L67.1686857,46.9712767 C67.2666505,46.92264 67.3639055,46.8747082 67.4618703,46.7774348 C67.5101429,46.729503 67.5591253,46.729503 67.6081077,46.7774348 L67.6563802,46.8260715 C67.6563802,47.0199134 67.6081077,47.1644138 67.4618703,47.3103239 C67.3639055,47.4555291 67.2176681,47.5041658 67.0224484,47.5528025 C66.876211,47.6007343 66.6817011,47.649371 66.5347538,47.6007343 C66.3592467,47.5900716 66.1979982,47.5012077 66.0960418,47.3589606 C66.0470593,47.3103239 66.0960418,47.2616872 66.1450242,47.2137553 C66.0953319,47.2616872 66.0953319,47.2137553 66.1932967,47.2616872 L66.1932967,47.2616872 Z" id="Path" fill="#9A6541"></path>
                    <path d="M67.1197033,45.5671564 C67.1197033,45.9548402 66.778956,46.9712767 66.4857714,47.0685501 C66.4857714,47.0685501 66.4857714,46.9712767 66.4374989,46.8260715 C66.3878066,46.5835929 66.2422791,46.3418192 66.0470593,46.2452507 C65.8518396,46.1479773 65.6083473,45.9541354 65.6083473,45.5671564 C65.6083473,45.1801775 65.900822,44.9856307 66.0960418,44.8890622 C66.3028721,44.7907097 66.43513,44.5838737 66.436789,44.3561731 C66.4864813,44.1143994 66.4864813,43.9205575 66.4864813,43.9205575 C66.7299736,44.0657627 67.1197033,45.276746 67.1197033,45.5671564 L67.1197033,45.5671564 Z" id="Path" fill="#BE906B"></path>
                    <path d="M66.778956,50.8452955 C63.1208923,50.8452955 60.1947253,47.9397814 60.1947253,44.3082413 C60.1947253,40.6767012 63.1208923,37.7704823 66.778956,37.7704823 C70.4370198,37.7704823 73.3624769,40.6759963 73.3624769,44.3082413 C73.3624769,47.8911447 70.3880374,50.8452955 66.778956,50.8452955 Z" id="Path" fill="#F3F2F1"></path>
                    <path d="M66.778956,52.3466892 C65.9718883,52.3443663 65.3182119,51.6953036 65.3158725,50.8939322 L65.3158725,47.7459395 L68.2420396,47.7459395 L68.2420396,50.8939322 C68.2393107,51.6950283 67.5857478,52.3436635 66.778956,52.3459843 L66.778956,52.3466892 Z" id="Path" fill="#BE906B"></path>
                    <path d="M60.5851648,53.6056043 L72.9727473,53.6056043 C71.5011456,51.6838063 69.2096267,50.55526 66.7782462,50.554885 C64.3473907,50.5558095 62.0565362,51.6842871 60.5851648,53.6056043 L60.5851648,53.6056043 Z" id="Path" fill="#605D5A"></path>
                    <path d="M66.778956,49.1508419 C64.3404835,49.1508419 62.3897055,47.2137553 62.3897055,44.7924936 C62.3897055,42.371232 64.3404835,40.4342226 66.778956,40.4342226 C69.2174286,40.4342226 71.1682844,42.371232 71.1682844,44.7924936 C71.1731392,45.9498735 70.7122858,47.0612648 69.88807,47.8796633 C69.0638541,48.6980618 67.9445628,49.1556625 66.778956,49.1508419 Z" id="Path" fill="#BE906B"></path>
                    <path d="M71.5579453,43.5815104 C70.3010724,43.5886883 69.0935936,43.0960991 68.2048419,42.2136202 C67.3160903,41.3311414 66.8199996,40.1321851 66.8272286,38.8841832 L68.826989,38.8841832 C69.5516858,38.8828792 70.2470815,39.1681508 70.7595203,39.6769729 C71.2719592,40.1857949 71.5592585,40.8762824 71.5579453,41.5958643 L71.5579453,43.5815104 L71.5579453,43.5815104 Z" id="Path" fill="#F3F2F1"></path>
                </g>
                <g id="Bottom-Left">
                    <path d="M47.2270408,37.6287567 C47.2270408,37.6287567 27.7378427,41.9952391 17.5249743,34.2435545 C4.59729275,24.4307531 6.62047491,9.90794979 6.62047491,9.90794979 L1.83435993,10.8892299 C1.83435993,10.8892299 -3.74106184,36.7453189 4.54845484,49.8454802 C14.8604355,66.0858809 38.2473296,65.0060442 38.2473296,65.0060442 L47.2270408,37.6287567 L47.2270408,37.6287567 Z" id="Path" fill="#9B643D"></path>
                    <path d="M108.834726,66.8624093 C110.263876,51.3155554 99.4699135,37.7740586 84.6345818,37.7740586 L60.4337205,37.7740586 C45.5983887,37.7740586 34.8532121,51.3162671 36.2342941,66.8624093 L36.8742552,74 L108.194047,74 L108.834726,66.8624093 L108.834726,66.8624093 Z" id="Path" fill="#8B8CC4"></path>
                    <path d="M30.9701975,67.2409339 C34.1326094,70.277673 40.2100214,69.1513707 40.2100214,69.1513707 C40.2100214,69.1513707 68.6206637,39.0819507 57.1577297,37.564294 C49.6965378,36.5848387 44.4591752,37.564294 37.937285,38.3969023 C34.0340762,38.8866299 27.1662411,38.2008686 27.1662411,38.2008686 C27.1662411,38.2008686 25.2387305,61.6094224 30.9709167,67.2409339 L30.9701975,67.2409339 Z" id="Path" fill="#8B8CC4"></path>
                    <path d="M85.069453,37.465148 L83.3418367,66.5560123 C83.3418367,66.5560123 91.632958,67.7800429 97.0119144,74 L120.995969,74 C121.439905,47.01501 85.069453,37.4644351 85.069453,37.4644351 L85.069453,37.465148 Z" id="Path" fill="#9B643D"></path>
                    <path d="M116.987245,58.9156858 C106.760721,38.9330153 85.070709,37.4644351 85.070709,37.4644351 L83.3418367,66.5558671 C83.3418367,66.5558671 89.3202541,67.4370152 95.2986715,74 L96.4838551,74 C101.770436,66.6043445 111.651761,60.8747432 116.987245,58.9149729 L116.987245,58.9156858 Z" id="Path" fill="#8B8CC4"></path>
                    <path d="M84.0862506,27.2541512 L84.185337,34.8438586 C84.185337,36.3718432 85.4677161,37.4062816 87.0459184,37.5052778 L80.3870248,41.1516372 C74.8618807,43.7147775 68.4499851,43.6652795 62.9248411,41.0038603 L57.1045918,37.6035566 C58.6842352,37.6023693 59.9643813,36.3230677 59.9651732,34.7448624 L60.0154345,26.3179916 L84.0862506,27.2541512 L84.0862506,27.2541512 Z" id="Path" fill="#9B643D"></path>
                    <polygon id="Path" fill="url(#radialGradient-6)" points="84.2678571 27.2425208 84.2678571 40.8702929 60.1913265 40.773235 60.1913265 26.3179916"></polygon>
                    <ellipse id="Oval" fill="#9B643D" cx="83.3418367" cy="24.460251" rx="2.46938776" ry="2.47698745"></ellipse>
                    <path d="M73.2842026,35.9159518 L71.126444,35.9159518 C65.0949987,35.9159518 60.1913265,30.9360948 60.1913265,24.8718504 L60.1913265,23.6891434 C60.1913265,17.624899 65.1435358,12.6945607 71.1749811,12.6945607 L73.3327396,12.6945607 C79.364185,12.6945607 84.2678571,17.6737 84.2678571,23.7379444 L84.2678571,24.9220868 C84.2186063,30.9863311 79.2663971,35.9654705 73.2834888,35.9159518 L73.2842026,35.9159518 Z" id="Path" fill="#9B643D"></path>
                    <path d="M72.8461651,17.4115429 C72.6520816,22.102724 71.7269978,23.0310017 70.997414,23.9599907 C70.364872,24.7908171 70.7055805,25.8165461 71.7758728,26.2568556 C71.9706646,26.3052257 72.115873,26.4524697 72.2624981,26.5499211 C72.6024983,26.7946165 72.7979984,27.2342147 72.7979984,27.6738128 L72.5054565,35.2970711 L62.0433673,33.9775653 L63.74691,17.5097056 C63.74691,17.5580756 72.9439151,14.3820144 72.8461651,17.4115429 L72.8461651,17.4115429 Z" id="Path" fill="url(#radialGradient-7)"></path>
                    <ellipse id="Oval" fill="#9B643D" cx="60.8086735" cy="24.460251" rx="2.46938776" ry="2.47698745"></ellipse>
                    <ellipse id="Oval" fill="#33312D" cx="67.7538265" cy="22.4476987" rx="1" ry="1.39330544"></ellipse>
                    <ellipse id="Oval" fill="#33312D" cx="76.3966837" cy="22.4476987" rx="1" ry="1.39330544"></ellipse>
                    <path d="M75.3984194,27.8722206 L75.2539675,27.8722206 L70.4842494,28.4778788 L70.3881819,28.4778788 C70.1469612,28.5785768 70.0025093,28.8314244 70.099278,29.1342535 C70.5326338,30.4977195 71.8817866,31.4069418 73.2786226,31.2555272 C74.6770569,31.0633466 75.7702009,29.8962824 75.9278427,28.4271623 C75.9513043,28.2737492 75.9031327,28.1178504 75.7983203,28.007986 C75.6935079,27.8981216 75.544778,27.8476282 75.3984194,27.8722206 L75.3984194,27.8722206 Z" id="Path" fill="#231F20" opacity="0.6"></path>
                    <path d="M75.625,27.9193465 C74.8174191,28.5316991 73.8895154,28.9191468 72.9193794,29.0490827 C71.8559797,29.2103617 70.8896364,28.9950621 70.0688776,28.7265246 C70.1167024,28.6192662 70.2137587,28.5652456 70.3101117,28.5112249 L70.4064647,28.5112249 L75.1903565,27.8661088 L75.3352377,27.8661088 C75.4315907,27.8661088 75.5764718,27.8661088 75.625,27.9193465 L75.625,27.9193465 Z" id="Path" fill="#F8F8F8"></path>
                    <path d="M88.2806195,73.9508615 L88.2806195,54.5767673 C88.2821403,53.97946 88.0428134,53.4061795 87.6155978,52.9838181 C87.1883822,52.5614567 86.608513,52.3248491 86.0043409,52.3263526 L65.863006,52.3263526 C65.2588339,52.3248491 64.6789647,52.5614567 64.2517491,52.9838181 C63.8245336,53.4061795 63.5852066,53.97946 63.5867274,54.5767673 L63.5867274,74 L88.2798846,74 L88.2798846,73.9508615 L88.2806195,73.9508615 Z" id="Path" fill="#FFD590"></path>
                    <path d="M66.9116427,61.0358118 C66.6152957,60.7435252 66.1707751,60.5973819 65.7751662,60.7435252 C65.0832103,60.9868609 64.7868633,61.8154792 65.1817529,62.4007619 L67.3561632,65.1789036 L61.6737809,64.0579986 C60.9329134,63.9111459 60.1913265,64.4964285 60.1913265,65.2271451 C60.1913265,65.7145259 60.5365852,66.2019067 60.981825,66.34805 L61.62415,66.5920952 L62.0197589,70.8323793 C62.1151605,71.71611 62.7710958,72.4415364 63.6503868,72.6357593 L69.7772897,73.7077134 C70.024725,73.7566643 70.2714411,73.8538567 70.4692456,74 L82.7244898,74 L66.9116427,61.0358118 Z" id="Path" fill="#9B643D"></path>
                    <path d="M11.7281378,5.82064494 C11.5827855,4.63727178 8.33493908,6.65934631 8.33493908,6.65934631 C8.33493908,6.65934631 10.8073384,1.57902766 9.64381485,1.33201288 C8.72301546,1.03616958 7.55949193,4.58772521 7.55949193,4.58772521 C7.55949193,4.58772521 9.49846261,0 8.38362503,0 C7.1234352,0 5.91122573,4.39025699 5.91122573,4.39025699 C5.91122573,4.39025699 8.1409009,0 6.54132064,0.345389862 C5.52314936,0.542858078 4.60234996,4.93311507 4.60234996,4.93311507 C4.60234996,4.93311507 6.34728246,1.77577781 5.37850271,1.87415289 C3.43882643,2.0227926 1.93661807,6.80726796 1.69389394,8.28792055 C1.35520911,10.2604485 1.69389394,12.1353195 1.69389394,12.1353195 C1.69389394,12.1353195 3.00276971,12.5790844 5.52314936,12.2832411 C7.07474926,12.0857729 11.8248041,6.85681453 11.7281378,5.82064494 L11.7281378,5.82064494 Z" id="Path" fill="#9B643D"></path>
                </g>
                <g id="Group-2" transform="translate(23.000000, 78.000000)">
                    <g id="logo-M">
                        <polygon id="Path-2" stroke="#FFFFFF" stroke-width="6" fill="#212121" points="0 0 0 37.9169399 37.3274097 37.9169399 37.3274097 0"></polygon>
                        <path d="M23.9935316,10.2375738 C25.4368319,10.2375738 27.6059264,10.5552014 29.2086384,12.2960777 C30.2771131,13.4566619 30.9462924,14.8282184 31.2161765,16.410747 L31.2161765,27.6872381 L27.0149164,27.6872381 L27.0149164,20.6088952 L27.0149164,20.6088952 C27.0149164,19.9692743 26.679148,19.2362608 25.7067537,18.667552 C26.2449409,18.1877128 26.5849904,17.4814442 26.5849904,16.6939496 C26.5849904,15.2483721 25.4391351,14.0764999 24.0256508,14.0764999 C22.6121665,14.0764999 21.4663112,15.2483721 21.4663112,16.6939496 C21.4663112,17.4682939 21.7950986,18.1641022 22.3176888,18.6433249 C21.7720528,18.9511767 21.0917708,19.5298838 21.0917708,20.6088952 L21.0917708,27.6872381 L21.0917708,27.6872381 L16.4681247,27.6872381 L16.4681247,23.1817115 L16.4681247,23.1817115 C16.4681247,21.9671179 16.0037824,21.5373718 15.1407031,21.0501033 C15.6712861,20.5704885 16.0063866,19.8687894 16.0063866,19.0870464 C16.0063866,17.6414689 14.8605312,16.4695968 13.4470469,16.4695968 C12.0335627,16.4695968 10.8877073,17.6414689 10.8877073,19.0870464 C10.8877073,19.8543145 11.210513,20.5444754 11.7248067,21.0232297 C10.948794,21.2754093 10.3166414,21.7332704 10.3166414,23.1817115 L10.3166414,27.6872381 L10.3166414,27.6872381 L6.15902259,27.6872381 L6.15902259,16.410747 C6.27201287,15.1209688 6.90261395,13.8405998 8.05082584,12.5696401 C9.77314368,10.6632007 12.1243262,10.2375738 13.4672821,10.2375738 C15.4404264,10.2375738 17.1805322,11.0149292 18.6875995,12.5696401 C20.0057646,11.0149292 21.7744086,10.2375738 23.9935316,10.2375738 Z" id="Combined-Shape" fill="#FFFFFF"></path>
                    </g>
                    <g id="Group" transform="translate(41.000000, 0.000000)">
                        <rect id="Rectangle" fill="#FFFFFF" x="0.742108626" y="0" width="118" height="37.9412415"></rect>
                        <path d="M57.8409091,16 C61.75,16 62,19.3090986 62,20.6920054 C62,21.0855782 61.9001243,21.5008554 61.2509322,21.5512277 L61.1136364,21.5563222 L55.1818182,21.5563222 C55.1363636,24.001104 55.7045455,27.0138653 58.3409091,27.0138653 C59.5445558,27.0138653 60.5561923,26.5353892 61.3758185,25.578437 L61.5371837,25.3806669 L61.8269231,25.867726 C60.7019231,27.0138653 60.1852612,27.7868507 57.8636364,27.9769612 C54.2795056,28.2704543 53,25.7297375 53,22.0749123 C53,18.6176451 54.4545455,16 57.8409091,16 Z M18.877926,9 L18.877926,9.37174682 C17.6207083,9.53569266 16.8268204,9.83416229 16.4962623,10.2671557 C16.0256282,10.8836328 15.9008789,11.8715073 15.9008789,13.0731265 L15.9008789,13.0731265 L15.9008789,22.2549153 C15.9008789,23.9192902 17.0144004,25.1080956 18.3803984,25.7521576 C19.4730615,26.2673434 20.7574546,26.3999989 21.5394757,26.3999989 C22.4168098,26.3999989 23.8738663,26.1338992 25.088308,25.3494725 C26.3096712,24.5605751 27.2859447,23.2494559 27.2859447,21.8760871 L27.2859447,21.8760871 L27.2859447,12.5159921 C27.2859447,11.2166461 26.9199862,10.4906853 26.3764055,9.93977111 C26.0818268,9.64121834 25.4917547,9.45187691 24.606189,9.37174682 L24.606189,9.37174682 L24.606189,9 L31,9 L31,9.37174682 C29.2265655,9.27717342 28.3398483,10.3252552 28.3398483,12.5159921 L28.3398483,12.5159921 L28.3398483,21.8760871 C28.3398483,23.1990282 27.7452006,24.9245245 26.3764055,26.1289527 C25.0978551,27.2539728 23.1099342,27.9007343 21.2324473,27.989297 C18.5931111,28.1137967 15.9412014,27.1448515 14.5499838,25.4633711 C14.0616953,24.8732065 13.4056429,23.8922527 13.4056429,23.2747972 L13.4056429,23.2747972 L13.4056429,12.9085113 C13.4056429,12.5025909 13.5225199,10.9493613 12.8352338,10.1162211 C12.593506,9.82319444 11.9817614,9.63543339 11,9.55293796 L11,9.55293796 L11,9 L18.877926,9 Z M106.891304,16 C107.695652,16 108,16.5813953 108,17.0930233 C108,17.7906977 107.543478,18.372093 107.021739,18.372093 C106.826087,18.372093 106.630435,18.2790698 106.543478,18.1860465 C106.195652,17.7209302 105.978261,17.5348837 105.456522,17.5348837 C104.891304,17.5348837 104.26087,18.0697674 104.26087,19.744186 L104.26087,19.744186 L104.26087,25.2093023 C104.26087,26.2790698 104.326087,26.4186047 106.021739,26.5581395 L106.021739,26.5581395 L106.021739,27 L101,27 L101,26.5581395 C102.347826,26.4651163 102.391304,26.3023256 102.391304,25.2093023 L102.391304,25.2093023 L102.391304,18.0930233 C102.391304,17.3255814 102.195652,17.1162791 101.695652,17.0232558 L101.695652,17.0232558 L101.086957,16.9534884 L101.086957,16.5813953 L104.021739,16.0232558 L104.26087,17.8604651 C105.586957,16.5813953 106.173913,16 106.891304,16 Z M93.0113379,16 C96.4807256,16 98,18.0639175 98,21.5113402 C98,24.9587629 96.4807256,27 92.9886621,27 C89.5646259,27 88,24.9587629 88,21.5113402 C88,18.148001 89.4892334,16.1015019 92.741437,16.0036735 L92.9886621,16 L93.0113379,16 Z M71.4131274,16 C73.4285714,16 74.4942085,17.2790698 74.4942085,19.4883721 L74.4942085,19.4883721 L74.4945907,25.235313 C74.5015764,26.3775286 74.6189486,26.4463327 76,26.5581395 L76,26.5581395 L76,27 L70.9498069,27 L70.9498069,26.5581395 C72.4092664,26.4651163 72.5019305,26.3953488 72.5019305,25.0930233 L72.5019305,19.5581395 C72.5019305,17.7209302 71.6447876,16.9767442 70.2548263,16.9767442 C69.1196911,16.9767442 68.0772201,17.6046512 67.7297297,18.3255814 C67.5444015,18.6744186 67.4980695,19 67.4980695,19.5116279 L67.4980695,19.5116279 L67.4986508,25.2377939 C67.5088986,26.3990299 67.6682507,26.4463327 69.027027,26.5581395 L69.027027,26.5581395 L69.027027,27 L64,27 L64,26.5581395 C65.4131274,26.4651163 65.5057915,26.3488372 65.5057915,25.0930233 L65.5055529,18.1235273 C65.5013022,17.2451493 65.4336204,17.1127013 64.7876448,17.0232558 L64.7876448,17.0232558 L64.0926641,16.9534884 L64.0926641,16.5813953 L67.1737452,16.0232558 L67.4749035,17.7209302 C68.8416988,16.8604651 69.8378378,16 71.4131274,16 Z M45.6228288,16 C47.5657568,16 48.5483871,17.2790698 48.5483871,19.4883721 L48.5483871,19.4883721 L48.5483871,25.0930233 C48.5483871,26.3023256 48.7047146,26.4418605 50,26.5581395 L50,26.5581395 L50,27 L45.0645161,27 L45.0645161,26.5581395 C46.516129,26.4651163 46.6277916,26.3255814 46.6277916,25.0930233 L46.6277916,19.5813953 C46.6277916,17.7674419 45.8461538,16.9767442 44.4615385,16.9767442 C43.6352357,16.9767442 42.7866005,17.4651163 42.3176179,18.0465116 C42.0719603,18.372093 41.9379653,18.5348837 41.9379653,19.5348837 L41.9379653,19.5348837 L41.9379653,25.0930233 C41.9379653,26.3255814 42.1166253,26.4418605 43.5012407,26.5581395 L43.5012407,26.5581395 L43.5012407,27 L38.4764268,27 L38.4764268,26.5581395 C39.9280397,26.4651163 40.0397022,26.3255814 40.0397022,25.0930233 L40.0397022,19.5813953 C40.0397022,17.7209302 39.280397,16.9767442 37.9627792,16.9767442 C36.8684864,16.9767442 35.9081886,17.6046512 35.5955335,18.3488372 C35.4168734,18.6976744 35.3722084,19 35.3722084,19.5348837 L35.3722084,19.5348837 L35.372823,25.2330716 C35.3832854,26.3134512 35.5419355,26.4465116 36.9354839,26.5581395 L36.9354839,26.5581395 L36.9354839,27 L32,27 L32,26.5581395 C33.3811796,26.4722719 33.4493664,26.2873263 33.4516841,25.3448148 L33.4516129,18.2325581 C33.4516129,17.3023256 33.3399504,17.1162791 32.7593052,17.0232558 L32.7593052,17.0232558 L32.08933,16.9534884 L32.08933,16.5813953 L35.0595533,16.0232558 L35.3945409,17.6976744 C36.6451613,16.7906977 37.5384615,16 39.0794045,16 C40.4640199,16 41.3349876,16.6976744 41.7593052,17.8604651 C43.0099256,16.9302326 44.0595533,16 45.6228288,16 Z M82.2536739,13 L82.2536739,16.8767864 L86,16.8767864 L86,17.7619918 L82.2536739,17.7619918 L82.2536739,17.7619918 L82.2536739,24.6039764 C82.2536739,25.5228629 82.9136293,26.0428925 83.9043426,25.7604607 C84.2542604,25.6607064 84.7082394,25.2752116 85.2662795,24.6039764 L85.2662795,24.6039764 L85.5152146,24.9683534 C84.8744616,25.7802783 84.3375043,26.3044127 83.9043426,26.5407566 C83.1681486,26.9424424 82.6180016,26.9931177 82.2092204,26.9992027 L82,26.9999414 C80.8887836,26.9999414 80.238538,26.5209965 80.238538,24.9683534 L80.238538,24.9683534 L80.238538,17.7619918 L78,17.7619918 L78,17.2955893 C79.0480845,17.0636315 79.7942639,16.6922773 80.238538,16.1815265 C80.6828122,15.6707758 81.1821322,14.6102669 81.7364981,13 L81.7364981,13 L82.2536739,13 Z M93.0909091,16.6875 C91.2396694,16.6875 90.328742,18.5795445 90.2752342,21.456586 L90.2727273,21.7291667 L90.2727273,21.751775 C90.2727273,24.7812967 91.1818182,26.7708333 93.0909091,26.7708333 C95.0681818,26.7708333 95.9545455,24.7812967 95.9545455,21.7291667 C95.9545455,18.7222534 95.0681818,16.6875 93.0909091,16.6875 Z M57.6433656,16.48 C55.5454271,16.48 55.2136103,19.8367565 55.1959065,20.9455493 L55.195122,21.04 L58.9887968,21.04 C59.671162,21.04 59.7913514,20.5800871 59.8037095,19.9477068 L59.804878,19.8190164 L59.8045668,19.7537917 C59.7951842,18.7669955 59.5627494,16.48 57.6433656,16.48 Z" id="Combined-Text" fill="#323330"></path>
                    </g>
                    <g id="logo-JS" transform="translate(159.798332, 0.000000)">
                        <polygon id="Path-2" stroke="#FFFFFF" stroke-width="6" fill="#F7DF1E" points="0 0 0 37.9169399 37.3274097 37.9169399 37.3274097 0"></polygon>
                        <path d="M9.20720067,22.7696686 C9.75925477,23.7660582 10.2614526,24.6090584 11.4660152,24.6090584 C12.6206474,24.6090584 13.348608,24.1492827 13.348608,22.3608566 L13.348608,10.1984531 L16.8625092,10.1984531 L16.8625092,22.4114577 C16.8625092,26.1163687 14.7291513,27.8027466 11.6166227,27.8027466 C8.80560561,27.8027466 7.17392627,26.3207369 6.34565964,24.5322504 L9.20720067,22.7696686 Z" id="j" fill="#212121"></path>
                        <path d="M21.6658915,22.4788643 C22.4234447,23.7271622 23.4079952,24.6441668 25.1498751,24.6441668 C26.6143138,24.6441668 27.5481219,23.9053979 27.5481219,22.8864303 C27.5481219,21.6637323 26.588868,21.2306417 24.9730977,20.5176083 L24.0897334,20.1352658 C21.5397818,19.0401158 19.8482712,17.6645712 19.8482712,14.7606354 C19.8482712,12.0859695 21.8678907,10.0479891 25.0236908,10.0479891 C27.2705315,10.0479891 28.8862271,10.837747 30.0474058,12.9011015 L27.2956042,14.6841368 C26.689681,13.5889114 26.0334633,13.1558961 25.0236908,13.1558961 C23.9886218,13.1558961 23.3321802,13.8181814 23.3321802,14.6841368 C23.3321802,15.7540633 23.9886218,16.1871539 25.5032059,16.8495145 L26.3867195,17.2315559 C29.3909641,18.5307524 31.0824748,19.8552477 31.0824748,22.8354563 C31.0824748,26.045236 28.5831909,27.8027466 25.2256155,27.8027466 C21.9437057,27.8027466 19.8230493,26.223532 18.7881295,24.1601022 L21.6658915,22.4788643 Z" id="s" fill="#212121"></path>
                    </g>
                </g>
                <polygon id="Path-3" fill="#D8D8D8" points="23 73 223 73 223 76 23 76"></polygon>
            </g>
        </g>
    </g>
</svg>