<?xml version="1.0" encoding="UTF-8"?>
<svg width="1080px" height="1080px" viewBox="0 0 1080 1080" version="1.1" xmlns="http://www.w3.org/2000/svg" xmlns:xlink="http://www.w3.org/1999/xlink">
    <title>idn</title>
    <defs>
        <path d="M218.007203,272.727273 C225.532331,272.727273 231.632653,278.832481 231.632653,286.363636 C231.632653,293.894792 225.532331,300 218.007203,300 C210.482075,300 204.381753,293.894792 204.381753,286.363636 C204.381753,278.832481 210.482075,272.727273 218.007203,272.727273 Z M183.943577,272.727273 C191.468706,272.727273 197.569028,278.832481 197.569028,286.363636 C197.569028,293.894792 191.468706,300 183.943577,300 C176.418449,300 170.318127,293.894792 170.318127,286.363636 C170.318127,278.832481 176.418449,272.727273 183.943577,272.727273 Z M149.879952,272.727273 C157.40508,272.727273 163.505402,278.832481 163.505402,286.363636 C163.505402,293.894792 157.40508,300 149.879952,300 C142.354824,300 136.254502,293.894792 136.254502,286.363636 C136.254502,278.832481 142.354824,272.727273 149.879952,272.727273 Z M115.816327,272.727273 C123.341455,272.727273 129.441777,278.832481 129.441777,286.363636 C129.441777,293.894792 123.341455,300 115.816327,300 C108.291198,300 102.190876,293.894792 102.190876,286.363636 C102.190876,278.832481 108.291198,272.727273 115.816327,272.727273 Z M81.7527011,272.727273 C89.2778294,272.727273 95.3781513,278.832481 95.3781513,286.363636 C95.3781513,293.894792 89.2778294,300 81.7527011,300 C74.2275727,300 68.1272509,293.894792 68.1272509,286.363636 C68.1272509,278.832481 74.2275727,272.727273 81.7527011,272.727273 Z M47.6890756,272.727273 C55.214204,272.727273 61.3145258,278.832481 61.3145258,286.363636 C61.3145258,293.894792 55.214204,300 47.6890756,300 C40.1639473,300 34.0636255,293.894792 34.0636255,286.363636 C34.0636255,278.832481 40.1639473,272.727273 47.6890756,272.727273 Z M218.007203,238.636364 C225.532331,238.636364 231.632653,244.741572 231.632653,252.272727 C231.632653,259.803883 225.532331,265.909091 218.007203,265.909091 C210.482075,265.909091 204.381753,259.803883 204.381753,252.272727 C204.381753,244.741572 210.482075,238.636364 218.007203,238.636364 Z M183.943577,238.636364 C191.468706,238.636364 197.569028,244.741572 197.569028,252.272727 C197.569028,259.803883 191.468706,265.909091 183.943577,265.909091 C176.418449,265.909091 170.318127,259.803883 170.318127,252.272727 C170.318127,244.741572 176.418449,238.636364 183.943577,238.636364 Z M149.879952,238.636364 C157.40508,238.636364 163.505402,244.741572 163.505402,252.272727 C163.505402,259.803883 157.40508,265.909091 149.879952,265.909091 C142.354824,265.909091 136.254502,259.803883 136.254502,252.272727 C136.254502,244.741572 142.354824,238.636364 149.879952,238.636364 Z M115.816327,238.636364 C123.341455,238.636364 129.441777,244.741572 129.441777,252.272727 C129.441777,259.803883 123.341455,265.909091 115.816327,265.909091 C108.291198,265.909091 102.190876,259.803883 102.190876,252.272727 C102.190876,244.741572 108.291198,238.636364 115.816327,238.636364 Z M81.7527011,238.636364 C89.2778294,238.636364 95.3781513,244.741572 95.3781513,252.272727 C95.3781513,259.803883 89.2778294,265.909091 81.7527011,265.909091 C74.2275727,265.909091 68.1272509,259.803883 68.1272509,252.272727 C68.1272509,244.741572 74.2275727,238.636364 81.7527011,238.636364 Z M47.6890756,238.636364 C55.214204,238.636364 61.3145258,244.741572 61.3145258,252.272727 C61.3145258,259.803883 55.214204,265.909091 47.6890756,265.909091 C40.1639473,265.909091 34.0636255,259.803883 34.0636255,252.272727 C34.0636255,244.741572 40.1639473,238.636364 47.6890756,238.636364 Z M149.879952,204.545455 C157.40508,204.545455 163.505402,210.650663 163.505402,218.181818 C163.505402,225.712974 157.40508,231.818182 149.879952,231.818182 C142.354824,231.818182 136.254502,225.712974 136.254502,218.181818 C136.254502,210.650663 142.354824,204.545455 149.879952,204.545455 Z M115.816327,204.545455 C123.341455,204.545455 129.441777,210.650663 129.441777,218.181818 C129.441777,225.712974 123.341455,231.818182 115.816327,231.818182 C108.291198,231.818182 102.190876,225.712974 102.190876,218.181818 C102.190876,210.650663 108.291198,204.545455 115.816327,204.545455 Z M149.879952,170.454545 C157.40508,170.454545 163.505402,176.559753 163.505402,184.090909 C163.505402,191.622065 157.40508,197.727273 149.879952,197.727273 C142.354824,197.727273 136.254502,191.622065 136.254502,184.090909 C136.254502,176.559753 142.354824,170.454545 149.879952,170.454545 Z M115.816327,170.454545 C123.341455,170.454545 129.441777,176.559753 129.441777,184.090909 C129.441777,191.622065 123.341455,197.727273 115.816327,197.727273 C108.291198,197.727273 102.190876,191.622065 102.190876,184.090909 C102.190876,176.559753 108.291198,170.454545 115.816327,170.454545 Z M149.879952,136.363636 C157.40508,136.363636 163.505402,142.468844 163.505402,150 C163.505402,157.531156 157.40508,163.636364 149.879952,163.636364 C142.354824,163.636364 136.254502,157.531156 136.254502,150 C136.254502,142.468844 142.354824,136.363636 149.879952,136.363636 Z M115.816327,136.363636 C123.341455,136.363636 129.441777,142.468844 129.441777,150 C129.441777,157.531156 123.341455,163.636364 115.816327,163.636364 C108.291198,163.636364 102.190876,157.531156 102.190876,150 C102.190876,142.468844 108.291198,136.363636 115.816327,136.363636 Z M149.879952,102.272727 C157.40508,102.272727 163.505402,108.377935 163.505402,115.909091 C163.505402,123.440247 157.40508,129.545455 149.879952,129.545455 C142.354824,129.545455 136.254502,123.440247 136.254502,115.909091 C136.254502,108.377935 142.354824,102.272727 149.879952,102.272727 Z M115.816327,102.272727 C123.341455,102.272727 129.441777,108.377935 129.441777,115.909091 C129.441777,123.440247 123.341455,129.545455 115.816327,129.545455 C108.291198,129.545455 102.190876,123.440247 102.190876,115.909091 C102.190876,108.377935 108.291198,102.272727 115.816327,102.272727 Z M149.879952,68.1818182 C157.40508,68.1818182 163.505402,74.2870261 163.505402,81.8181818 C163.505402,89.3493375 157.40508,95.4545455 149.879952,95.4545455 C142.354824,95.4545455 136.254502,89.3493375 136.254502,81.8181818 C136.254502,74.2870261 142.354824,68.1818182 149.879952,68.1818182 Z M115.816327,68.1818182 C123.341455,68.1818182 129.441777,74.2870261 129.441777,81.8181818 C129.441777,89.3493375 123.341455,95.4545455 115.816327,95.4545455 C108.291198,95.4545455 102.190876,89.3493375 102.190876,81.8181818 C102.190876,74.2870261 108.291198,68.1818182 115.816327,68.1818182 Z M218.007203,34.0909091 C225.532331,34.0909091 231.632653,40.196117 231.632653,47.7272727 C231.632653,55.2584284 225.532331,61.3636364 218.007203,61.3636364 C210.482075,61.3636364 204.381753,55.2584284 204.381753,47.7272727 C204.381753,40.196117 210.482075,34.0909091 218.007203,34.0909091 Z M183.943577,34.0909091 C191.468706,34.0909091 197.569028,40.196117 197.569028,47.7272727 C197.569028,55.2584284 191.468706,61.3636364 183.943577,61.3636364 C176.418449,61.3636364 170.318127,55.2584284 170.318127,47.7272727 C170.318127,40.196117 176.418449,34.0909091 183.943577,34.0909091 Z M115.816327,34.0909091 C123.341455,34.0909091 129.441777,40.196117 129.441777,47.7272727 C129.441777,55.2584284 123.341455,61.3636364 115.816327,61.3636364 C108.291198,61.3636364 102.190876,55.2584284 102.190876,47.7272727 C102.190876,40.196117 108.291198,34.0909091 115.816327,34.0909091 Z M81.7527011,34.0909091 C89.2778294,34.0909091 95.3781513,40.196117 95.3781513,47.7272727 C95.3781513,55.2584284 89.2778294,61.3636364 81.7527011,61.3636364 C74.2275727,61.3636364 68.1272509,55.2584284 68.1272509,47.7272727 C68.1272509,40.196117 74.2275727,34.0909091 81.7527011,34.0909091 Z M47.6890756,34.0909091 C55.214204,34.0909091 61.3145258,40.196117 61.3145258,47.7272727 C61.3145258,55.2584284 55.214204,61.3636364 47.6890756,61.3636364 C40.1639473,61.3636364 34.0636255,55.2584284 34.0636255,47.7272727 C34.0636255,40.196117 40.1639473,34.0909091 47.6890756,34.0909091 Z M149.879952,34.0909091 C157.40508,34.0909091 163.505402,40.196117 163.505402,47.7272727 C163.505402,55.2584284 157.40508,61.3636364 149.879952,61.3636364 C142.354824,61.3636364 136.254502,55.2584284 136.254502,47.7272727 C136.254502,40.196117 142.354824,34.0909091 149.879952,34.0909091 Z M218.007203,0 C225.532331,0 231.632653,6.10520796 231.632653,13.6363636 C231.632653,21.1675193 225.532331,27.2727273 218.007203,27.2727273 C210.482075,27.2727273 204.381753,21.1675193 204.381753,13.6363636 C204.381753,6.10520796 210.482075,0 218.007203,0 Z M183.943577,0 C191.468706,0 197.569028,6.10520796 197.569028,13.6363636 C197.569028,21.1675193 191.468706,27.2727273 183.943577,27.2727273 C176.418449,27.2727273 170.318127,21.1675193 170.318127,13.6363636 C170.318127,6.10520796 176.418449,0 183.943577,0 Z M149.879952,0 C157.40508,0 163.505402,6.10520796 163.505402,13.6363636 C163.505402,21.1675193 157.40508,27.2727273 149.879952,27.2727273 C142.354824,27.2727273 136.254502,21.1675193 136.254502,13.6363636 C136.254502,6.10520796 142.354824,0 149.879952,0 Z M115.816327,0 C123.341455,0 129.441777,6.10520796 129.441777,13.6363636 C129.441777,21.1675193 123.341455,27.2727273 115.816327,27.2727273 C108.291198,27.2727273 102.190876,21.1675193 102.190876,13.6363636 C102.190876,6.10520796 108.291198,0 115.816327,0 Z M81.7527011,0 C89.2778294,0 95.3781513,6.10520796 95.3781513,13.6363636 C95.3781513,21.1675193 89.2778294,27.2727273 81.7527011,27.2727273 C74.2275727,27.2727273 68.1272509,21.1675193 68.1272509,13.6363636 C68.1272509,6.10520796 74.2275727,0 81.7527011,0 Z M47.6890756,0 C55.214204,0 61.3145258,6.10520796 61.3145258,13.6363636 C61.3145258,21.1675193 55.214204,27.2727273 47.6890756,27.2727273 C40.1639473,27.2727273 34.0636255,21.1675193 34.0636255,13.6363636 C34.0636255,6.10520796 40.1639473,0 47.6890756,0 Z" id="path-1"></path>
        <path d="M183.943577,272.727273 C191.468706,272.727273 197.569028,278.832481 197.569028,286.363636 C197.569028,293.894792 191.468706,300 183.943577,300 C176.418449,300 170.318127,293.894792 170.318127,286.363636 C170.318127,278.832481 176.418449,272.727273 183.943577,272.727273 Z M149.879952,272.727273 C157.40508,272.727273 163.505402,278.832481 163.505402,286.363636 C163.505402,293.894792 157.40508,300 149.879952,300 C142.354824,300 136.254502,293.894792 136.254502,286.363636 C136.254502,278.832481 142.354824,272.727273 149.879952,272.727273 Z M115.816327,272.727273 C123.341455,272.727273 129.441777,278.832481 129.441777,286.363636 C129.441777,293.894792 123.341455,300 115.816327,300 C108.291198,300 102.190876,293.894792 102.190876,286.363636 C102.190876,278.832481 108.291198,272.727273 115.816327,272.727273 Z M81.7527011,272.727273 C89.2778294,272.727273 95.3781513,278.832481 95.3781513,286.363636 C95.3781513,293.894792 89.2778294,300 81.7527011,300 C74.2275727,300 68.1272509,293.894792 68.1272509,286.363636 C68.1272509,278.832481 74.2275727,272.727273 81.7527011,272.727273 Z M47.6890756,272.727273 C55.214204,272.727273 61.3145258,278.832481 61.3145258,286.363636 C61.3145258,293.894792 55.214204,300 47.6890756,300 C40.1639473,300 34.0636255,293.894792 34.0636255,286.363636 C34.0636255,278.832481 40.1639473,272.727273 47.6890756,272.727273 Z M13.6254502,272.727273 C21.1505785,272.727273 27.2509004,278.832481 27.2509004,286.363636 C27.2509004,293.894792 21.1505785,300 13.6254502,300 C6.10032184,300 0,293.894792 0,286.363636 C0,278.832481 6.10032184,272.727273 13.6254502,272.727273 Z M218.007203,238.636364 C225.532331,238.636364 231.632653,244.741572 231.632653,252.272727 C231.632653,259.803883 225.532331,265.909091 218.007203,265.909091 C210.482075,265.909091 204.381753,259.803883 204.381753,252.272727 C204.381753,244.741572 210.482075,238.636364 218.007203,238.636364 Z M183.943577,238.636364 C191.468706,238.636364 197.569028,244.741572 197.569028,252.272727 C197.569028,259.803883 191.468706,265.909091 183.943577,265.909091 C176.418449,265.909091 170.318127,259.803883 170.318127,252.272727 C170.318127,244.741572 176.418449,238.636364 183.943577,238.636364 Z M47.6890756,238.636364 C55.214204,238.636364 61.3145258,244.741572 61.3145258,252.272727 C61.3145258,259.803883 55.214204,265.909091 47.6890756,265.909091 C40.1639473,265.909091 34.0636255,259.803883 34.0636255,252.272727 C34.0636255,244.741572 40.1639473,238.636364 47.6890756,238.636364 Z M13.6254502,238.636364 C21.1505785,238.636364 27.2509004,244.741572 27.2509004,252.272727 C27.2509004,259.803883 21.1505785,265.909091 13.6254502,265.909091 C6.10032184,265.909091 0,259.803883 0,252.272727 C0,244.741572 6.10032184,238.636364 13.6254502,238.636364 Z M149.879952,238.636364 C157.40508,238.636364 163.505402,244.741572 163.505402,252.272727 C163.505402,259.803883 157.40508,265.909091 149.879952,265.909091 C142.354824,265.909091 136.254502,259.803883 136.254502,252.272727 C136.254502,244.741572 142.354824,238.636364 149.879952,238.636364 Z M115.816327,238.636364 C123.341455,238.636364 129.441777,244.741572 129.441777,252.272727 C129.441777,259.803883 123.341455,265.909091 115.816327,265.909091 C108.291198,265.909091 102.190876,259.803883 102.190876,252.272727 C102.190876,244.741572 108.291198,238.636364 115.816327,238.636364 Z M81.7527011,238.636364 C89.2778294,238.636364 95.3781513,244.741572 95.3781513,252.272727 C95.3781513,259.803883 89.2778294,265.909091 81.7527011,265.909091 C74.2275727,265.909091 68.1272509,259.803883 68.1272509,252.272727 C68.1272509,244.741572 74.2275727,238.636364 81.7527011,238.636364 Z M218.007203,204.545455 C225.532331,204.545455 231.632653,210.650663 231.632653,218.181818 C231.632653,225.712974 225.532331,231.818182 218.007203,231.818182 C210.482075,231.818182 204.381753,225.712974 204.381753,218.181818 C204.381753,210.650663 210.482075,204.545455 218.007203,204.545455 Z M183.943577,204.545455 C191.468706,204.545455 197.569028,210.650663 197.569028,218.181818 C197.569028,225.712974 191.468706,231.818182 183.943577,231.818182 C176.418449,231.818182 170.318127,225.712974 170.318127,218.181818 C170.318127,210.650663 176.418449,204.545455 183.943577,204.545455 Z M47.6890756,204.545455 C55.214204,204.545455 61.3145258,210.650663 61.3145258,218.181818 C61.3145258,225.712974 55.214204,231.818182 47.6890756,231.818182 C40.1639473,231.818182 34.0636255,225.712974 34.0636255,218.181818 C34.0636255,210.650663 40.1639473,204.545455 47.6890756,204.545455 Z M13.6254502,204.545455 C21.1505785,204.545455 27.2509004,210.650663 27.2509004,218.181818 C27.2509004,225.712974 21.1505785,231.818182 13.6254502,231.818182 C6.10032184,231.818182 0,225.712974 0,218.181818 C0,210.650663 6.10032184,204.545455 13.6254502,204.545455 Z M218.007203,170.454545 C225.532331,170.454545 231.632653,176.559753 231.632653,184.090909 C231.632653,191.622065 225.532331,197.727273 218.007203,197.727273 C210.482075,197.727273 204.381753,191.622065 204.381753,184.090909 C204.381753,176.559753 210.482075,170.454545 218.007203,170.454545 Z M183.943577,170.454545 C191.468706,170.454545 197.569028,176.559753 197.569028,184.090909 C197.569028,191.622065 191.468706,197.727273 183.943577,197.727273 C176.418449,197.727273 170.318127,191.622065 170.318127,184.090909 C170.318127,176.559753 176.418449,170.454545 183.943577,170.454545 Z M47.6890756,170.454545 C55.214204,170.454545 61.3145258,176.559753 61.3145258,184.090909 C61.3145258,191.622065 55.214204,197.727273 47.6890756,197.727273 C40.1639473,197.727273 34.0636255,191.622065 34.0636255,184.090909 C34.0636255,176.559753 40.1639473,170.454545 47.6890756,170.454545 Z M13.6254502,170.454545 C21.1505785,170.454545 27.2509004,176.559753 27.2509004,184.090909 C27.2509004,191.622065 21.1505785,197.727273 13.6254502,197.727273 C6.10032184,197.727273 0,191.622065 0,184.090909 C0,176.559753 6.10032184,170.454545 13.6254502,170.454545 Z M47.6890756,136.363636 C55.214204,136.363636 61.3145258,142.468844 61.3145258,150 C61.3145258,157.531156 55.214204,163.636364 47.6890756,163.636364 C40.1639473,163.636364 34.0636255,157.531156 34.0636255,150 C34.0636255,142.468844 40.1639473,136.363636 47.6890756,136.363636 Z M218.007203,136.363636 C225.532331,136.363636 231.632653,142.468844 231.632653,150 C231.632653,157.531156 225.532331,163.636364 218.007203,163.636364 C210.482075,163.636364 204.381753,157.531156 204.381753,150 C204.381753,142.468844 210.482075,136.363636 218.007203,136.363636 Z M183.943577,136.363636 C191.468706,136.363636 197.569028,142.468844 197.569028,150 C197.569028,157.531156 191.468706,163.636364 183.943577,163.636364 C176.418449,163.636364 170.318127,157.531156 170.318127,150 C170.318127,142.468844 176.418449,136.363636 183.943577,136.363636 Z M13.6254502,136.363636 C21.1505785,136.363636 27.2509004,142.468844 27.2509004,150 C27.2509004,157.531156 21.1505785,163.636364 13.6254502,163.636364 C6.10032184,163.636364 0,157.531156 0,150 C0,142.468844 6.10032184,136.363636 13.6254502,136.363636 Z M183.943577,102.272727 C191.468706,102.272727 197.569028,108.377935 197.569028,115.909091 C197.569028,123.440247 191.468706,129.545455 183.943577,129.545455 C176.418449,129.545455 170.318127,123.440247 170.318127,115.909091 C170.318127,108.377935 176.418449,102.272727 183.943577,102.272727 Z M47.6890756,102.272727 C55.214204,102.272727 61.3145258,108.377935 61.3145258,115.909091 C61.3145258,123.440247 55.214204,129.545455 47.6890756,129.545455 C40.1639473,129.545455 34.0636255,123.440247 34.0636255,115.909091 C34.0636255,108.377935 40.1639473,102.272727 47.6890756,102.272727 Z M218.007203,102.272727 C225.532331,102.272727 231.632653,108.377935 231.632653,115.909091 C231.632653,123.440247 225.532331,129.545455 218.007203,129.545455 C210.482075,129.545455 204.381753,123.440247 204.381753,115.909091 C204.381753,108.377935 210.482075,102.272727 218.007203,102.272727 Z M13.6254502,102.272727 C21.1505785,102.272727 27.2509004,108.377935 27.2509004,115.909091 C27.2509004,123.440247 21.1505785,129.545455 13.6254502,129.545455 C6.10032184,129.545455 0,123.440247 0,115.909091 C0,108.377935 6.10032184,102.272727 13.6254502,102.272727 Z M218.007203,68.1818182 C225.532331,68.1818182 231.632653,74.2870261 231.632653,81.8181818 C231.632653,89.3493375 225.532331,95.4545455 218.007203,95.4545455 C210.482075,95.4545455 204.381753,89.3493375 204.381753,81.8181818 C204.381753,74.2870261 210.482075,68.1818182 218.007203,68.1818182 Z M183.943577,68.1818182 C191.468706,68.1818182 197.569028,74.2870261 197.569028,81.8181818 C197.569028,89.3493375 191.468706,95.4545455 183.943577,95.4545455 C176.418449,95.4545455 170.318127,89.3493375 170.318127,81.8181818 C170.318127,74.2870261 176.418449,68.1818182 183.943577,68.1818182 Z M47.6890756,68.1818182 C55.214204,68.1818182 61.3145258,74.2870261 61.3145258,81.8181818 C61.3145258,89.3493375 55.214204,95.4545455 47.6890756,95.4545455 C40.1639473,95.4545455 34.0636255,89.3493375 34.0636255,81.8181818 C34.0636255,74.2870261 40.1639473,68.1818182 47.6890756,68.1818182 Z M13.6254502,68.1818182 C21.1505785,68.1818182 27.2509004,74.2870261 27.2509004,81.8181818 C27.2509004,89.3493375 21.1505785,95.4545455 13.6254502,95.4545455 C6.10032184,95.4545455 0,89.3493375 0,81.8181818 C0,74.2870261 6.10032184,68.1818182 13.6254502,68.1818182 Z M218.007203,34.0909091 C225.532331,34.0909091 231.632653,40.196117 231.632653,47.7272727 C231.632653,55.2584284 225.532331,61.3636364 218.007203,61.3636364 C210.482075,61.3636364 204.381753,55.2584284 204.381753,47.7272727 C204.381753,40.196117 210.482075,34.0909091 218.007203,34.0909091 Z M183.943577,34.0909091 C191.468706,34.0909091 197.569028,40.196117 197.569028,47.7272727 C197.569028,55.2584284 191.468706,61.3636364 183.943577,61.3636364 C176.418449,61.3636364 170.318127,55.2584284 170.318127,47.7272727 C170.318127,40.196117 176.418449,34.0909091 183.943577,34.0909091 Z M149.879952,34.0909091 C157.40508,34.0909091 163.505402,40.196117 163.505402,47.7272727 C163.505402,55.2584284 157.40508,61.3636364 149.879952,61.3636364 C142.354824,61.3636364 136.254502,55.2584284 136.254502,47.7272727 C136.254502,40.196117 142.354824,34.0909091 149.879952,34.0909091 Z M115.816327,34.0909091 C123.341455,34.0909091 129.441777,40.196117 129.441777,47.7272727 C129.441777,55.2584284 123.341455,61.3636364 115.816327,61.3636364 C108.291198,61.3636364 102.190876,55.2584284 102.190876,47.7272727 C102.190876,40.196117 108.291198,34.0909091 115.816327,34.0909091 Z M81.7527011,34.0909091 C89.2778294,34.0909091 95.3781513,40.196117 95.3781513,47.7272727 C95.3781513,55.2584284 89.2778294,61.3636364 81.7527011,61.3636364 C74.2275727,61.3636364 68.1272509,55.2584284 68.1272509,47.7272727 C68.1272509,40.196117 74.2275727,34.0909091 81.7527011,34.0909091 Z M47.6890756,34.0909091 C55.214204,34.0909091 61.3145258,40.196117 61.3145258,47.7272727 C61.3145258,55.2584284 55.214204,61.3636364 47.6890756,61.3636364 C40.1639473,61.3636364 34.0636255,55.2584284 34.0636255,47.7272727 C34.0636255,40.196117 40.1639473,34.0909091 47.6890756,34.0909091 Z M13.6254502,34.0909091 C21.1505785,34.0909091 27.2509004,40.196117 27.2509004,47.7272727 C27.2509004,55.2584284 21.1505785,61.3636364 13.6254502,61.3636364 C6.10032184,61.3636364 0,55.2584284 0,47.7272727 C0,40.196117 6.10032184,34.0909091 13.6254502,34.0909091 Z M183.943577,0 C191.468706,0 197.569028,6.10520796 197.569028,13.6363636 C197.569028,21.1675193 191.468706,27.2727273 183.943577,27.2727273 C176.418449,27.2727273 170.318127,21.1675193 170.318127,13.6363636 C170.318127,6.10520796 176.418449,0 183.943577,0 Z M149.879952,0 C157.40508,0 163.505402,6.10520796 163.505402,13.6363636 C163.505402,21.1675193 157.40508,27.2727273 149.879952,27.2727273 C142.354824,27.2727273 136.254502,21.1675193 136.254502,13.6363636 C136.254502,6.10520796 142.354824,0 149.879952,0 Z M115.816327,0 C123.341455,0 129.441777,6.10520796 129.441777,13.6363636 C129.441777,21.1675193 123.341455,27.2727273 115.816327,27.2727273 C108.291198,27.2727273 102.190876,21.1675193 102.190876,13.6363636 C102.190876,6.10520796 108.291198,0 115.816327,0 Z M81.7527011,0 C89.2778294,0 95.3781513,6.10520796 95.3781513,13.6363636 C95.3781513,21.1675193 89.2778294,27.2727273 81.7527011,27.2727273 C74.2275727,27.2727273 68.1272509,21.1675193 68.1272509,13.6363636 C68.1272509,6.10520796 74.2275727,0 81.7527011,0 Z M47.6890756,0 C55.214204,0 61.3145258,6.10520796 61.3145258,13.6363636 C61.3145258,21.1675193 55.214204,27.2727273 47.6890756,27.2727273 C40.1639473,27.2727273 34.0636255,21.1675193 34.0636255,13.6363636 C34.0636255,6.10520796 40.1639473,0 47.6890756,0 Z M13.6254502,0 C21.1505785,0 27.2509004,6.10520796 27.2509004,13.6363636 C27.2509004,21.1675193 21.1505785,27.2727273 13.6254502,27.2727273 C6.10032184,27.2727273 0,21.1675193 0,13.6363636 C0,6.10520796 6.10032184,0 13.6254502,0 Z" id="path-3"></path>
        <path d="M218.007203,272.727273 C225.532331,272.727273 231.632653,278.832481 231.632653,286.363636 C231.632653,293.894792 225.532331,300 218.007203,300 C210.482075,300 204.381753,293.894792 204.381753,286.363636 C204.381753,278.832481 210.482075,272.727273 218.007203,272.727273 Z M183.943577,272.727273 C191.468706,272.727273 197.569028,278.832481 197.569028,286.363636 C197.569028,293.894792 191.468706,300 183.943577,300 C176.418449,300 170.318127,293.894792 170.318127,286.363636 C170.318127,278.832481 176.418449,272.727273 183.943577,272.727273 Z M47.6890756,272.727273 C55.214204,272.727273 61.3145258,278.832481 61.3145258,286.363636 C61.3145258,293.894792 55.214204,300 47.6890756,300 C40.1639473,300 34.0636255,293.894792 34.0636255,286.363636 C34.0636255,278.832481 40.1639473,272.727273 47.6890756,272.727273 Z M13.6254502,272.727273 C21.1505785,272.727273 27.2509004,278.832481 27.2509004,286.363636 C27.2509004,293.894792 21.1505785,300 13.6254502,300 C6.10032184,300 0,293.894792 0,286.363636 C0,278.832481 6.10032184,272.727273 13.6254502,272.727273 Z M218.007203,238.636364 C225.532331,238.636364 231.632653,244.741572 231.632653,252.272727 C231.632653,259.803883 225.532331,265.909091 218.007203,265.909091 C210.482075,265.909091 204.381753,259.803883 204.381753,252.272727 C204.381753,244.741572 210.482075,238.636364 218.007203,238.636364 Z M183.943577,238.636364 C191.468706,238.636364 197.569028,244.741572 197.569028,252.272727 C197.569028,259.803883 191.468706,265.909091 183.943577,265.909091 C176.418449,265.909091 170.318127,259.803883 170.318127,252.272727 C170.318127,244.741572 176.418449,238.636364 183.943577,238.636364 Z M149.879952,238.636364 C157.40508,238.636364 163.505402,244.741572 163.505402,252.272727 C163.505402,259.803883 157.40508,265.909091 149.879952,265.909091 C142.354824,265.909091 136.254502,259.803883 136.254502,252.272727 C136.254502,244.741572 142.354824,238.636364 149.879952,238.636364 Z M47.6890756,238.636364 C55.214204,238.636364 61.3145258,244.741572 61.3145258,252.272727 C61.3145258,259.803883 55.214204,265.909091 47.6890756,265.909091 C40.1639473,265.909091 34.0636255,259.803883 34.0636255,252.272727 C34.0636255,244.741572 40.1639473,238.636364 47.6890756,238.636364 Z M13.6254502,238.636364 C21.1505785,238.636364 27.2509004,244.741572 27.2509004,252.272727 C27.2509004,259.803883 21.1505785,265.909091 13.6254502,265.909091 C6.10032184,265.909091 0,259.803883 0,252.272727 C0,244.741572 6.10032184,238.636364 13.6254502,238.636364 Z M218.007203,204.545455 C225.532331,204.545455 231.632653,210.650663 231.632653,218.181818 C231.632653,225.712974 225.532331,231.818182 218.007203,231.818182 C210.482075,231.818182 204.381753,225.712974 204.381753,218.181818 C204.381753,210.650663 210.482075,204.545455 218.007203,204.545455 Z M183.943577,204.545455 C191.468706,204.545455 197.569028,210.650663 197.569028,218.181818 C197.569028,225.712974 191.468706,231.818182 183.943577,231.818182 C176.418449,231.818182 170.318127,225.712974 170.318127,218.181818 C170.318127,210.650663 176.418449,204.545455 183.943577,204.545455 Z M149.879952,204.545455 C157.40508,204.545455 163.505402,210.650663 163.505402,218.181818 C163.505402,225.712974 157.40508,231.818182 149.879952,231.818182 C142.354824,231.818182 136.254502,225.712974 136.254502,218.181818 C136.254502,210.650663 142.354824,204.545455 149.879952,204.545455 Z M47.6890756,204.545455 C55.214204,204.545455 61.3145258,210.650663 61.3145258,218.181818 C61.3145258,225.712974 55.214204,231.818182 47.6890756,231.818182 C40.1639473,231.818182 34.0636255,225.712974 34.0636255,218.181818 C34.0636255,210.650663 40.1639473,204.545455 47.6890756,204.545455 Z M13.6254502,204.545455 C21.1505785,204.545455 27.2509004,210.650663 27.2509004,218.181818 C27.2509004,225.712974 21.1505785,231.818182 13.6254502,231.818182 C6.10032184,231.818182 0,225.712974 0,218.181818 C0,210.650663 6.10032184,204.545455 13.6254502,204.545455 Z M218.007203,170.454545 C225.532331,170.454545 231.632653,176.559753 231.632653,184.090909 C231.632653,191.622065 225.532331,197.727273 218.007203,197.727273 C210.482075,197.727273 204.381753,191.622065 204.381753,184.090909 C204.381753,176.559753 210.482075,170.454545 218.007203,170.454545 Z M183.943577,170.454545 C191.468706,170.454545 197.569028,176.559753 197.569028,184.090909 C197.569028,191.622065 191.468706,197.727273 183.943577,197.727273 C176.418449,197.727273 170.318127,191.622065 170.318127,184.090909 C170.318127,176.559753 176.418449,170.454545 183.943577,170.454545 Z M149.879952,170.454545 C157.40508,170.454545 163.505402,176.559753 163.505402,184.090909 C163.505402,191.622065 157.40508,197.727273 149.879952,197.727273 C142.354824,197.727273 136.254502,191.622065 136.254502,184.090909 C136.254502,176.559753 142.354824,170.454545 149.879952,170.454545 Z M115.816327,170.454545 C123.341455,170.454545 129.441777,176.559753 129.441777,184.090909 C129.441777,191.622065 123.341455,197.727273 115.816327,197.727273 C108.291198,197.727273 102.190876,191.622065 102.190876,184.090909 C102.190876,176.559753 108.291198,170.454545 115.816327,170.454545 Z M47.6890756,170.454545 C55.214204,170.454545 61.3145258,176.559753 61.3145258,184.090909 C61.3145258,191.622065 55.214204,197.727273 47.6890756,197.727273 C40.1639473,197.727273 34.0636255,191.622065 34.0636255,184.090909 C34.0636255,176.559753 40.1639473,170.454545 47.6890756,170.454545 Z M13.6254502,170.454545 C21.1505785,170.454545 27.2509004,176.559753 27.2509004,184.090909 C27.2509004,191.622065 21.1505785,197.727273 13.6254502,197.727273 C6.10032184,197.727273 0,191.622065 0,184.090909 C0,176.559753 6.10032184,170.454545 13.6254502,170.454545 Z M218.007203,136.363636 C225.532331,136.363636 231.632653,142.468844 231.632653,150 C231.632653,157.531156 225.532331,163.636364 218.007203,163.636364 C210.482075,163.636364 204.381753,157.531156 204.381753,150 C204.381753,142.468844 210.482075,136.363636 218.007203,136.363636 Z M183.943577,136.363636 C191.468706,136.363636 197.569028,142.468844 197.569028,150 C197.569028,157.531156 191.468706,163.636364 183.943577,163.636364 C176.418449,163.636364 170.318127,157.531156 170.318127,150 C170.318127,142.468844 176.418449,136.363636 183.943577,136.363636 Z M115.816327,136.363636 C123.341455,136.363636 129.441777,142.468844 129.441777,150 C129.441777,157.531156 123.341455,163.636364 115.816327,163.636364 C108.291198,163.636364 102.190876,157.531156 102.190876,150 C102.190876,142.468844 108.291198,136.363636 115.816327,136.363636 Z M47.6890756,136.363636 C55.214204,136.363636 61.3145258,142.468844 61.3145258,150 C61.3145258,157.531156 55.214204,163.636364 47.6890756,163.636364 C40.1639473,163.636364 34.0636255,157.531156 34.0636255,150 C34.0636255,142.468844 40.1639473,136.363636 47.6890756,136.363636 Z M13.6254502,136.363636 C21.1505785,136.363636 27.2509004,142.468844 27.2509004,150 C27.2509004,157.531156 21.1505785,163.636364 13.6254502,163.636364 C6.10032184,163.636364 0,157.531156 0,150 C0,142.468844 6.10032184,136.363636 13.6254502,136.363636 Z M218.007203,102.272727 C225.532331,102.272727 231.632653,108.377935 231.632653,115.909091 C231.632653,123.440247 225.532331,129.545455 218.007203,129.545455 C210.482075,129.545455 204.381753,123.440247 204.381753,115.909091 C204.381753,108.377935 210.482075,102.272727 218.007203,102.272727 Z M183.943577,102.272727 C191.468706,102.272727 197.569028,108.377935 197.569028,115.909091 C197.569028,123.440247 191.468706,129.545455 183.943577,129.545455 C176.418449,129.545455 170.318127,123.440247 170.318127,115.909091 C170.318127,108.377935 176.418449,102.272727 183.943577,102.272727 Z M115.816327,102.272727 C123.341455,102.272727 129.441777,108.377935 129.441777,115.909091 C129.441777,123.440247 123.341455,129.545455 115.816327,129.545455 C108.291198,129.545455 102.190876,123.440247 102.190876,115.909091 C102.190876,108.377935 108.291198,102.272727 115.816327,102.272727 Z M47.6890756,102.272727 C55.214204,102.272727 61.3145258,108.377935 61.3145258,115.909091 C61.3145258,123.440247 55.214204,129.545455 47.6890756,129.545455 C40.1639473,129.545455 34.0636255,123.440247 34.0636255,115.909091 C34.0636255,108.377935 40.1639473,102.272727 47.6890756,102.272727 Z M13.6254502,102.272727 C21.1505785,102.272727 27.2509004,108.377935 27.2509004,115.909091 C27.2509004,123.440247 21.1505785,129.545455 13.6254502,129.545455 C6.10032184,129.545455 0,123.440247 0,115.909091 C0,108.377935 6.10032184,102.272727 13.6254502,102.272727 Z M81.7527011,102.272727 C89.2778294,102.272727 95.3781513,108.377935 95.3781513,115.909091 C95.3781513,123.440247 89.2778294,129.545455 81.7527011,129.545455 C74.2275727,129.545455 68.1272509,123.440247 68.1272509,115.909091 C68.1272509,108.377935 74.2275727,102.272727 81.7527011,102.272727 Z M218.007203,68.1818182 C225.532331,68.1818182 231.632653,74.2870261 231.632653,81.8181818 C231.632653,89.3493375 225.532331,95.4545455 218.007203,95.4545455 C210.482075,95.4545455 204.381753,89.3493375 204.381753,81.8181818 C204.381753,74.2870261 210.482075,68.1818182 218.007203,68.1818182 Z M183.943577,68.1818182 C191.468706,68.1818182 197.569028,74.2870261 197.569028,81.8181818 C197.569028,89.3493375 191.468706,95.4545455 183.943577,95.4545455 C176.418449,95.4545455 170.318127,89.3493375 170.318127,81.8181818 C170.318127,74.2870261 176.418449,68.1818182 183.943577,68.1818182 Z M81.7527011,68.1818182 C89.2778294,68.1818182 95.3781513,74.2870261 95.3781513,81.8181818 C95.3781513,89.3493375 89.2778294,95.4545455 81.7527011,95.4545455 C74.2275727,95.4545455 68.1272509,89.3493375 68.1272509,81.8181818 C68.1272509,74.2870261 74.2275727,68.1818182 81.7527011,68.1818182 Z M47.6890756,68.1818182 C55.214204,68.1818182 61.3145258,74.2870261 61.3145258,81.8181818 C61.3145258,89.3493375 55.214204,95.4545455 47.6890756,95.4545455 C40.1639473,95.4545455 34.0636255,89.3493375 34.0636255,81.8181818 C34.0636255,74.2870261 40.1639473,68.1818182 47.6890756,68.1818182 Z M13.6254502,68.1818182 C21.1505785,68.1818182 27.2509004,74.2870261 27.2509004,81.8181818 C27.2509004,89.3493375 21.1505785,95.4545455 13.6254502,95.4545455 C6.10032184,95.4545455 0,89.3493375 0,81.8181818 C0,74.2870261 6.10032184,68.1818182 13.6254502,68.1818182 Z M218.007203,34.0909091 C225.532331,34.0909091 231.632653,40.196117 231.632653,47.7272727 C231.632653,55.2584284 225.532331,61.3636364 218.007203,61.3636364 C210.482075,61.3636364 204.381753,55.2584284 204.381753,47.7272727 C204.381753,40.196117 210.482075,34.0909091 218.007203,34.0909091 Z M183.943577,34.0909091 C191.468706,34.0909091 197.569028,40.196117 197.569028,47.7272727 C197.569028,55.2584284 191.468706,61.3636364 183.943577,61.3636364 C176.418449,61.3636364 170.318127,55.2584284 170.318127,47.7272727 C170.318127,40.196117 176.418449,34.0909091 183.943577,34.0909091 Z M81.7527011,34.0909091 C89.2778294,34.0909091 95.3781513,40.196117 95.3781513,47.7272727 C95.3781513,55.2584284 89.2778294,61.3636364 81.7527011,61.3636364 C74.2275727,61.3636364 68.1272509,55.2584284 68.1272509,47.7272727 C68.1272509,40.196117 74.2275727,34.0909091 81.7527011,34.0909091 Z M47.6890756,34.0909091 C55.214204,34.0909091 61.3145258,40.196117 61.3145258,47.7272727 C61.3145258,55.2584284 55.214204,61.3636364 47.6890756,61.3636364 C40.1639473,61.3636364 34.0636255,55.2584284 34.0636255,47.7272727 C34.0636255,40.196117 40.1639473,34.0909091 47.6890756,34.0909091 Z M13.6254502,34.0909091 C21.1505785,34.0909091 27.2509004,40.196117 27.2509004,47.7272727 C27.2509004,55.2584284 21.1505785,61.3636364 13.6254502,61.3636364 C6.10032184,61.3636364 0,55.2584284 0,47.7272727 C0,40.196117 6.10032184,34.0909091 13.6254502,34.0909091 Z M218.007203,0 C225.532331,0 231.632653,6.10520796 231.632653,13.6363636 C231.632653,21.1675193 225.532331,27.2727273 218.007203,27.2727273 C210.482075,27.2727273 204.381753,21.1675193 204.381753,13.6363636 C204.381753,6.10520796 210.482075,0 218.007203,0 Z M183.943577,0 C191.468706,0 197.569028,6.10520796 197.569028,13.6363636 C197.569028,21.1675193 191.468706,27.2727273 183.943577,27.2727273 C176.418449,27.2727273 170.318127,21.1675193 170.318127,13.6363636 C170.318127,6.10520796 176.418449,0 183.943577,0 Z M47.6890756,0 C55.214204,0 61.3145258,6.10520796 61.3145258,13.6363636 C61.3145258,21.1675193 55.214204,27.2727273 47.6890756,27.2727273 C40.1639473,27.2727273 34.0636255,21.1675193 34.0636255,13.6363636 C34.0636255,6.10520796 40.1639473,0 47.6890756,0 Z M13.6254502,0 C21.1505785,0 27.2509004,6.10520796 27.2509004,13.6363636 C27.2509004,21.1675193 21.1505785,27.2727273 13.6254502,27.2727273 C6.10032184,27.2727273 0,21.1675193 0,13.6363636 C0,6.10520796 6.10032184,0 13.6254502,0 Z" id="path-5"></path>
        <path d="M154,280 C161.731986,280 168,286.268014 168,294 C168,301.731986 161.731986,308 154,308 C146.268014,308 140,301.731986 140,294 C140,286.268014 146.268014,280 154,280 Z M119,280 C126.731986,280 133,286.268014 133,294 C133,301.731986 126.731986,308 119,308 C111.268014,308 105,301.731986 105,294 C105,286.268014 111.268014,280 119,280 Z M154,245 C161.731986,245 168,251.268014 168,259 C168,266.731986 161.731986,273 154,273 C146.268014,273 140,266.731986 140,259 C140,251.268014 146.268014,245 154,245 Z M119,245 C126.731986,245 133,251.268014 133,259 C133,266.731986 126.731986,273 119,273 C111.268014,273 105,266.731986 105,259 C105,251.268014 111.268014,245 119,245 Z M154,210 C161.731986,210 168,216.268014 168,224 C168,231.731986 161.731986,238 154,238 C146.268014,238 140,231.731986 140,224 C140,216.268014 146.268014,210 154,210 Z M119,210 C126.731986,210 133,216.268014 133,224 C133,231.731986 126.731986,238 119,238 C111.268014,238 105,231.731986 105,224 C105,216.268014 111.268014,210 119,210 Z M154,175 C161.731986,175 168,181.268014 168,189 C168,196.731986 161.731986,203 154,203 C146.268014,203 140,196.731986 140,189 C140,181.268014 146.268014,175 154,175 Z M119,175 C126.731986,175 133,181.268014 133,189 C133,196.731986 126.731986,203 119,203 C111.268014,203 105,196.731986 105,189 C105,181.268014 111.268014,175 119,175 Z M154,140 C161.731986,140 168,146.268014 168,154 C168,161.731986 161.731986,168 154,168 C146.268014,168 140,161.731986 140,154 C140,146.268014 146.268014,140 154,140 Z M119,140 C126.731986,140 133,146.268014 133,154 C133,161.731986 126.731986,168 119,168 C111.268014,168 105,161.731986 105,154 C105,146.268014 111.268014,140 119,140 Z M154,105 C161.731986,105 168,111.268014 168,119 C168,126.731986 161.731986,133 154,133 C146.268014,133 140,126.731986 140,119 C140,111.268014 146.268014,105 154,105 Z M119,105 C126.731986,105 133,111.268014 133,119 C133,126.731986 126.731986,133 119,133 C111.268014,133 105,126.731986 105,119 C105,111.268014 111.268014,105 119,105 Z M154,70 C161.731986,70 168,76.2680135 168,84 C168,91.7319865 161.731986,98 154,98 C146.268014,98 140,91.7319865 140,84 C140,76.2680135 146.268014,70 154,70 Z M119,70 C126.731986,70 133,76.2680135 133,84 C133,91.7319865 126.731986,98 119,98 C111.268014,98 105,91.7319865 105,84 C105,76.2680135 111.268014,70 119,70 Z M224,35 C231.731986,35 238,41.2680135 238,49 C238,56.7319865 231.731986,63 224,63 C216.268014,63 210,56.7319865 210,49 C210,41.2680135 216.268014,35 224,35 Z M189,35 C196.731986,35 203,41.2680135 203,49 C203,56.7319865 196.731986,63 189,63 C181.268014,63 175,56.7319865 175,49 C175,41.2680135 181.268014,35 189,35 Z M154,35 C161.731986,35 168,41.2680135 168,49 C168,56.7319865 161.731986,63 154,63 C146.268014,63 140,56.7319865 140,49 C140,41.2680135 146.268014,35 154,35 Z M119,35 C126.731986,35 133,41.2680135 133,49 C133,56.7319865 126.731986,63 119,63 C111.268014,63 105,56.7319865 105,49 C105,41.2680135 111.268014,35 119,35 Z M84,35 C91.7319865,35 98,41.2680135 98,49 C98,56.7319865 91.7319865,63 84,63 C76.2680135,63 70,56.7319865 70,49 C70,41.2680135 76.2680135,35 84,35 Z M49,35 C56.7319865,35 63,41.2680135 63,49 C63,56.7319865 56.7319865,63 49,63 C41.2680135,63 35,56.7319865 35,49 C35,41.2680135 41.2680135,35 49,35 Z M224,0 C231.731986,0 238,6.2680135 238,14 C238,21.7319865 231.731986,28 224,28 C216.268014,28 210,21.7319865 210,14 C210,6.2680135 216.268014,0 224,0 Z M189,0 C196.731986,0 203,6.2680135 203,14 C203,21.7319865 196.731986,28 189,28 C181.268014,28 175,21.7319865 175,14 C175,6.2680135 181.268014,0 189,0 Z M154,0 C161.731986,0 168,6.2680135 168,14 C168,21.7319865 161.731986,28 154,28 C146.268014,28 140,21.7319865 140,14 C140,6.2680135 146.268014,0 154,0 Z M119,0 C126.731986,0 133,6.2680135 133,14 C133,21.7319865 126.731986,28 119,28 C111.268014,28 105,21.7319865 105,14 C105,6.2680135 111.268014,0 119,0 Z M84,0 C91.7319865,0 98,6.2680135 98,14 C98,21.7319865 91.7319865,28 84,28 C76.2680135,28 70,21.7319865 70,14 C70,6.2680135 76.2680135,0 84,0 Z M49,0 C56.7319865,0 63,6.2680135 63,14 C63,21.7319865 56.7319865,28 49,28 C41.2680135,28 35,21.7319865 35,14 C35,6.2680135 41.2680135,0 49,0 Z" id="path-7"></path>
        <path d="M189,280 C196.731986,280 203,286.268014 203,294 C203,301.731986 196.731986,308 189,308 C181.268014,308 175,301.731986 175,294 C175,286.268014 181.268014,280 189,280 Z M154,280 C161.731986,280 168,286.268014 168,294 C168,301.731986 161.731986,308 154,308 C146.268014,308 140,301.731986 140,294 C140,286.268014 146.268014,280 154,280 Z M119,280 C126.731986,280 133,286.268014 133,294 C133,301.731986 126.731986,308 119,308 C111.268014,308 105,301.731986 105,294 C105,286.268014 111.268014,280 119,280 Z M84,280 C91.7319865,280 98,286.268014 98,294 C98,301.731986 91.7319865,308 84,308 C76.2680135,308 70,301.731986 70,294 C70,286.268014 76.2680135,280 84,280 Z M49,280 C56.7319865,280 63,286.268014 63,294 C63,301.731986 56.7319865,308 49,308 C41.2680135,308 35,301.731986 35,294 C35,286.268014 41.2680135,280 49,280 Z M224,245 C231.731986,245 238,251.268014 238,259 C238,266.731986 231.731986,273 224,273 C216.268014,273 210,266.731986 210,259 C210,251.268014 216.268014,245 224,245 Z M189,245 C196.731986,245 203,251.268014 203,259 C203,266.731986 196.731986,273 189,273 C181.268014,273 175,266.731986 175,259 C175,251.268014 181.268014,245 189,245 Z M154,245 C161.731986,245 168,251.268014 168,259 C168,266.731986 161.731986,273 154,273 C146.268014,273 140,266.731986 140,259 C140,251.268014 146.268014,245 154,245 Z M119,245 C126.731986,245 133,251.268014 133,259 C133,266.731986 126.731986,273 119,273 C111.268014,273 105,266.731986 105,259 C105,251.268014 111.268014,245 119,245 Z M84,245 C91.7319865,245 98,251.268014 98,259 C98,266.731986 91.7319865,273 84,273 C76.2680135,273 70,266.731986 70,259 C70,251.268014 76.2680135,245 84,245 Z M49,245 C56.7319865,245 63,251.268014 63,259 C63,266.731986 56.7319865,273 49,273 C41.2680135,273 35,266.731986 35,259 C35,251.268014 41.2680135,245 49,245 Z M14,245 C21.7319865,245 28,251.268014 28,259 C28,266.731986 21.7319865,273 14,273 C6.2680135,273 0,266.731986 0,259 C0,251.268014 6.2680135,245 14,245 Z M224,210 C231.731986,210 238,216.268014 238,224 C238,231.731986 231.731986,238 224,238 C216.268014,238 210,231.731986 210,224 C210,216.268014 216.268014,210 224,210 Z M189,210 C196.731986,210 203,216.268014 203,224 C203,231.731986 196.731986,238 189,238 C181.268014,238 175,231.731986 175,224 C175,216.268014 181.268014,210 189,210 Z M49,210 C56.7319865,210 63,216.268014 63,224 C63,231.731986 56.7319865,238 49,238 C41.2680135,238 35,231.731986 35,224 C35,216.268014 41.2680135,210 49,210 Z M14,210 C21.7319865,210 28,216.268014 28,224 C28,231.731986 21.7319865,238 14,238 C6.2680135,238 0,231.731986 0,224 C0,216.268014 6.2680135,210 14,210 Z M224,175 C231.731986,175 238,181.268014 238,189 C238,196.731986 231.731986,203 224,203 C216.268014,203 210,196.731986 210,189 C210,181.268014 216.268014,175 224,175 Z M189,175 C196.731986,175 203,181.268014 203,189 C203,196.731986 196.731986,203 189,203 C181.268014,203 175,196.731986 175,189 C175,181.268014 181.268014,175 189,175 Z M49,175 C56.7319865,175 63,181.268014 63,189 C63,196.731986 56.7319865,203 49,203 C41.2680135,203 35,196.731986 35,189 C35,181.268014 41.2680135,175 49,175 Z M14,175 C21.7319865,175 28,181.268014 28,189 C28,196.731986 21.7319865,203 14,203 C6.2680135,203 0,196.731986 0,189 C0,181.268014 6.2680135,175 14,175 Z M224,140 C231.731986,140 238,146.268014 238,154 C238,161.731986 231.731986,168 224,168 C216.268014,168 210,161.731986 210,154 C210,146.268014 216.268014,140 224,140 Z M189,140 C196.731986,140 203,146.268014 203,154 C203,161.731986 196.731986,168 189,168 C181.268014,168 175,161.731986 175,154 C175,146.268014 181.268014,140 189,140 Z M49,140 C56.7319865,140 63,146.268014 63,154 C63,161.731986 56.7319865,168 49,168 C41.2680135,168 35,161.731986 35,154 C35,146.268014 41.2680135,140 49,140 Z M14,140 C21.7319865,140 28,146.268014 28,154 C28,161.731986 21.7319865,168 14,168 C6.2680135,168 0,161.731986 0,154 C0,146.268014 6.2680135,140 14,140 Z M224,105 C231.731986,105 238,111.268014 238,119 C238,126.731986 231.731986,133 224,133 C216.268014,133 210,126.731986 210,119 C210,111.268014 216.268014,105 224,105 Z M189,105 C196.731986,105 203,111.268014 203,119 C203,126.731986 196.731986,133 189,133 C181.268014,133 175,126.731986 175,119 C175,111.268014 181.268014,105 189,105 Z M49,105 C56.7319865,105 63,111.268014 63,119 C63,126.731986 56.7319865,133 49,133 C41.2680135,133 35,126.731986 35,119 C35,111.268014 41.2680135,105 49,105 Z M14,105 C21.7319865,105 28,111.268014 28,119 C28,126.731986 21.7319865,133 14,133 C6.2680135,133 0,126.731986 0,119 C0,111.268014 6.2680135,105 14,105 Z M224,70 C231.731986,70 238,76.2680135 238,84 C238,91.7319865 231.731986,98 224,98 C216.268014,98 210,91.7319865 210,84 C210,76.2680135 216.268014,70 224,70 Z M189,70 C196.731986,70 203,76.2680135 203,84 C203,91.7319865 196.731986,98 189,98 C181.268014,98 175,91.7319865 175,84 C175,76.2680135 181.268014,70 189,70 Z M49,70 C56.7319865,70 63,76.2680135 63,84 C63,91.7319865 56.7319865,98 49,98 C41.2680135,98 35,91.7319865 35,84 C35,76.2680135 41.2680135,70 49,70 Z M14,70 C21.7319865,70 28,76.2680135 28,84 C28,91.7319865 21.7319865,98 14,98 C6.2680135,98 0,91.7319865 0,84 C0,76.2680135 6.2680135,70 14,70 Z M224,35 C231.731986,35 238,41.2680135 238,49 C238,56.7319865 231.731986,63 224,63 C216.268014,63 210,56.7319865 210,49 C210,41.2680135 216.268014,35 224,35 Z M189,35 C196.731986,35 203,41.2680135 203,49 C203,56.7319865 196.731986,63 189,63 C181.268014,63 175,56.7319865 175,49 C175,41.2680135 181.268014,35 189,35 Z M154,35 C161.731986,35 168,41.2680135 168,49 C168,56.7319865 161.731986,63 154,63 C146.268014,63 140,56.7319865 140,49 C140,41.2680135 146.268014,35 154,35 Z M119,35 C126.731986,35 133,41.2680135 133,49 C133,56.7319865 126.731986,63 119,63 C111.268014,63 105,56.7319865 105,49 C105,41.2680135 111.268014,35 119,35 Z M49,35 C56.7319865,35 63,41.2680135 63,49 C63,56.7319865 56.7319865,63 49,63 C41.2680135,63 35,56.7319865 35,49 C35,41.2680135 41.2680135,35 49,35 Z M14,35 C21.7319865,35 28,41.2680135 28,49 C28,56.7319865 21.7319865,63 14,63 C6.2680135,63 0,56.7319865 0,49 C0,41.2680135 6.2680135,35 14,35 Z M84,35 C91.7319865,35 98,41.2680135 98,49 C98,56.7319865 91.7319865,63 84,63 C76.2680135,63 70,56.7319865 70,49 C70,41.2680135 76.2680135,35 84,35 Z M189,0 C196.731986,0 203,6.2680135 203,14 C203,21.7319865 196.731986,28 189,28 C181.268014,28 175,21.7319865 175,14 C175,6.2680135 181.268014,0 189,0 Z M154,0 C161.731986,0 168,6.2680135 168,14 C168,21.7319865 161.731986,28 154,28 C146.268014,28 140,21.7319865 140,14 C140,6.2680135 146.268014,0 154,0 Z M119,0 C126.731986,0 133,6.2680135 133,14 C133,21.7319865 126.731986,28 119,28 C111.268014,28 105,21.7319865 105,14 C105,6.2680135 111.268014,0 119,0 Z M84,0 C91.7319865,0 98,6.2680135 98,14 C98,21.7319865 91.7319865,28 84,28 C76.2680135,28 70,21.7319865 70,14 C70,6.2680135 76.2680135,0 84,0 Z M49,0 C56.7319865,0 63,6.2680135 63,14 C63,21.7319865 56.7319865,28 49,28 C41.2680135,28 35,21.7319865 35,14 C35,6.2680135 41.2680135,0 49,0 Z" id="path-9"></path>
        <path d="M189,280 C196.731986,280 203,286.268014 203,294 C203,301.731986 196.731986,308 189,308 C181.268014,308 175,301.731986 175,294 C175,286.268014 181.268014,280 189,280 Z M154,280 C161.731986,280 168,286.268014 168,294 C168,301.731986 161.731986,308 154,308 C146.268014,308 140,301.731986 140,294 C140,286.268014 146.268014,280 154,280 Z M119,280 C126.731986,280 133,286.268014 133,294 C133,301.731986 126.731986,308 119,308 C111.268014,308 105,301.731986 105,294 C105,286.268014 111.268014,280 119,280 Z M84,280 C91.7319865,280 98,286.268014 98,294 C98,301.731986 91.7319865,308 84,308 C76.2680135,308 70,301.731986 70,294 C70,286.268014 76.2680135,280 84,280 Z M49,280 C56.7319865,280 63,286.268014 63,294 C63,301.731986 56.7319865,308 49,308 C41.2680135,308 35,301.731986 35,294 C35,286.268014 41.2680135,280 49,280 Z M224,245 C231.731986,245 238,251.268014 238,259 C238,266.731986 231.731986,273 224,273 C216.268014,273 210,266.731986 210,259 C210,251.268014 216.268014,245 224,245 Z M189,245 C196.731986,245 203,251.268014 203,259 C203,266.731986 196.731986,273 189,273 C181.268014,273 175,266.731986 175,259 C175,251.268014 181.268014,245 189,245 Z M154,245 C161.731986,245 168,251.268014 168,259 C168,266.731986 161.731986,273 154,273 C146.268014,273 140,266.731986 140,259 C140,251.268014 146.268014,245 154,245 Z M119,245 C126.731986,245 133,251.268014 133,259 C133,266.731986 126.731986,273 119,273 C111.268014,273 105,266.731986 105,259 C105,251.268014 111.268014,245 119,245 Z M84,245 C91.7319865,245 98,251.268014 98,259 C98,266.731986 91.7319865,273 84,273 C76.2680135,273 70,266.731986 70,259 C70,251.268014 76.2680135,245 84,245 Z M49,245 C56.7319865,245 63,251.268014 63,259 C63,266.731986 56.7319865,273 49,273 C41.2680135,273 35,266.731986 35,259 C35,251.268014 41.2680135,245 49,245 Z M14,245 C21.7319865,245 28,251.268014 28,259 C28,266.731986 21.7319865,273 14,273 C6.2680135,273 0,266.731986 0,259 C0,251.268014 6.2680135,245 14,245 Z M224,210 C231.731986,210 238,216.268014 238,224 C238,231.731986 231.731986,238 224,238 C216.268014,238 210,231.731986 210,224 C210,216.268014 216.268014,210 224,210 Z M189,210 C196.731986,210 203,216.268014 203,224 C203,231.731986 196.731986,238 189,238 C181.268014,238 175,231.731986 175,224 C175,216.268014 181.268014,210 189,210 Z M49,210 C56.7319865,210 63,216.268014 63,224 C63,231.731986 56.7319865,238 49,238 C41.2680135,238 35,231.731986 35,224 C35,216.268014 41.2680135,210 49,210 Z M14,210 C21.7319865,210 28,216.268014 28,224 C28,231.731986 21.7319865,238 14,238 C6.2680135,238 0,231.731986 0,224 C0,216.268014 6.2680135,210 14,210 Z M49,175 C56.7319865,175 63,181.268014 63,189 C63,196.731986 56.7319865,203 49,203 C41.2680135,203 35,196.731986 35,189 C35,181.268014 41.2680135,175 49,175 Z M14,175 C21.7319865,175 28,181.268014 28,189 C28,196.731986 21.7319865,203 14,203 C6.2680135,203 0,196.731986 0,189 C0,181.268014 6.2680135,175 14,175 Z M49,140 C56.7319865,140 63,146.268014 63,154 C63,161.731986 56.7319865,168 49,168 C41.2680135,168 35,161.731986 35,154 C35,146.268014 41.2680135,140 49,140 Z M14,140 C21.7319865,140 28,146.268014 28,154 C28,161.731986 21.7319865,168 14,168 C6.2680135,168 0,161.731986 0,154 C0,146.268014 6.2680135,140 14,140 Z M49,105 C56.7319865,105 63,111.268014 63,119 C63,126.731986 56.7319865,133 49,133 C41.2680135,133 35,126.731986 35,119 C35,111.268014 41.2680135,105 49,105 Z M14,105 C21.7319865,105 28,111.268014 28,119 C28,126.731986 21.7319865,133 14,133 C6.2680135,133 0,126.731986 0,119 C0,111.268014 6.2680135,105 14,105 Z M224,70 C231.731986,70 238,76.2680135 238,84 C238,91.7319865 231.731986,98 224,98 C216.268014,98 210,91.7319865 210,84 C210,76.2680135 216.268014,70 224,70 Z M189,70 C196.731986,70 203,76.2680135 203,84 C203,91.7319865 196.731986,98 189,98 C181.268014,98 175,91.7319865 175,84 C175,76.2680135 181.268014,70 189,70 Z M14,70 C21.7319865,70 28,76.2680135 28,84 C28,91.7319865 21.7319865,98 14,98 C6.2680135,98 0,91.7319865 0,84 C0,76.2680135 6.2680135,70 14,70 Z M49,70 C56.7319865,70 63,76.2680135 63,84 C63,91.7319865 56.7319865,98 49,98 C41.2680135,98 35,91.7319865 35,84 C35,76.2680135 41.2680135,70 49,70 Z M224,35 C231.731986,35 238,41.2680135 238,49 C238,56.7319865 231.731986,63 224,63 C216.268014,63 210,56.7319865 210,49 C210,41.2680135 216.268014,35 224,35 Z M189,35 C196.731986,35 203,41.2680135 203,49 C203,56.7319865 196.731986,63 189,63 C181.268014,63 175,56.7319865 175,49 C175,41.2680135 181.268014,35 189,35 Z M154,35 C161.731986,35 168,41.2680135 168,49 C168,56.7319865 161.731986,63 154,63 C146.268014,63 140,56.7319865 140,49 C140,41.2680135 146.268014,35 154,35 Z M119,35 C126.731986,35 133,41.2680135 133,49 C133,56.7319865 126.731986,63 119,63 C111.268014,63 105,56.7319865 105,49 C105,41.2680135 111.268014,35 119,35 Z M84,35 C91.7319865,35 98,41.2680135 98,49 C98,56.7319865 91.7319865,63 84,63 C76.2680135,63 70,56.7319865 70,49 C70,41.2680135 76.2680135,35 84,35 Z M49,35 C56.7319865,35 63,41.2680135 63,49 C63,56.7319865 56.7319865,63 49,63 C41.2680135,63 35,56.7319865 35,49 C35,41.2680135 41.2680135,35 49,35 Z M14,35 C21.7319865,35 28,41.2680135 28,49 C28,56.7319865 21.7319865,63 14,63 C6.2680135,63 0,56.7319865 0,49 C0,41.2680135 6.2680135,35 14,35 Z M189,0 C196.731986,0 203,6.2680135 203,14 C203,21.7319865 196.731986,28 189,28 C181.268014,28 175,21.7319865 175,14 C175,6.2680135 181.268014,0 189,0 Z M154,0 C161.731986,0 168,6.2680135 168,14 C168,21.7319865 161.731986,28 154,28 C146.268014,28 140,21.7319865 140,14 C140,6.2680135 146.268014,0 154,0 Z M119,0 C126.731986,0 133,6.2680135 133,14 C133,21.7319865 126.731986,28 119,28 C111.268014,28 105,21.7319865 105,14 C105,6.2680135 111.268014,0 119,0 Z M84,0 C91.7319865,0 98,6.2680135 98,14 C98,21.7319865 91.7319865,28 84,28 C76.2680135,28 70,21.7319865 70,14 C70,6.2680135 76.2680135,0 84,0 Z M49,0 C56.7319865,0 63,6.2680135 63,14 C63,21.7319865 56.7319865,28 49,28 C41.2680135,28 35,21.7319865 35,14 C35,6.2680135 41.2680135,0 49,0 Z" id="path-11"></path>
    </defs>
    <g id="Page-1" stroke="none" stroke-width="1" fill="none" fill-rule="evenodd">
        <rect id="Rectangle" fill="#323330" x="0" y="0" width="1080" height="1080"></rect>
        <polygon id="Triangle" fill="#FF2600" transform="translate(269.000000, 962.000000) rotate(180.000000) translate(-269.000000, -962.000000) " points="269 842 389 1082 149 1082"></polygon>
        <g id="IDN" transform="translate(127.000000, 79.000000)">
            <g id="I">
                <g id="Led-Off" fill="#262C28">
                    <ellipse id="Led-7" cx="13.6254502" cy="286.363636" rx="13.6254502" ry="13.6363636"></ellipse>
                    <ellipse id="Led-14" cx="13.6254502" cy="252.272727" rx="13.6254502" ry="13.6363636"></ellipse>
                    <ellipse id="Led-15" cx="218.007203" cy="218.181818" rx="13.6254502" ry="13.6363636"></ellipse>
                    <ellipse id="Led-16" cx="183.943577" cy="218.181818" rx="13.6254502" ry="13.6363636"></ellipse>
                    <ellipse id="Led-19" cx="81.7527011" cy="218.181818" rx="13.6254502" ry="13.6363636"></ellipse>
                    <ellipse id="Led-20" cx="47.6890756" cy="218.181818" rx="13.6254502" ry="13.6363636"></ellipse>
                    <ellipse id="Led-21" cx="13.6254502" cy="218.181818" rx="13.6254502" ry="13.6363636"></ellipse>
                    <ellipse id="Led-22" cx="218.007203" cy="184.090909" rx="13.6254502" ry="13.6363636"></ellipse>
                    <ellipse id="Led-23" cx="183.943577" cy="184.090909" rx="13.6254502" ry="13.6363636"></ellipse>
                    <ellipse id="Led-26" cx="81.7527011" cy="184.090909" rx="13.6254502" ry="13.6363636"></ellipse>
                    <ellipse id="Led-27" cx="47.6890756" cy="184.090909" rx="13.6254502" ry="13.6363636"></ellipse>
                    <ellipse id="Led-28" cx="13.6254502" cy="184.090909" rx="13.6254502" ry="13.6363636"></ellipse>
                    <ellipse id="Led-29" cx="218.007203" cy="150" rx="13.6254502" ry="13.6363636"></ellipse>
                    <ellipse id="Led-30" cx="183.943577" cy="150" rx="13.6254502" ry="13.6363636"></ellipse>
                    <ellipse id="Led-33" cx="81.7527011" cy="150" rx="13.6254502" ry="13.6363636"></ellipse>
                    <ellipse id="Led-34" cx="47.6890756" cy="150" rx="13.6254502" ry="13.6363636"></ellipse>
                    <ellipse id="Led-35" cx="13.6254502" cy="150" rx="13.6254502" ry="13.6363636"></ellipse>
                    <ellipse id="Led-36" cx="218.007203" cy="115.909091" rx="13.6254502" ry="13.6363636"></ellipse>
                    <ellipse id="Led-37" cx="183.943577" cy="115.909091" rx="13.6254502" ry="13.6363636"></ellipse>
                    <ellipse id="Led-40" cx="81.7527011" cy="115.909091" rx="13.6254502" ry="13.6363636"></ellipse>
                    <ellipse id="Led-41" cx="47.6890756" cy="115.909091" rx="13.6254502" ry="13.6363636"></ellipse>
                    <ellipse id="Led-42" cx="13.6254502" cy="115.909091" rx="13.6254502" ry="13.6363636"></ellipse>
                    <ellipse id="Led-43" cx="218.007203" cy="81.8181818" rx="13.6254502" ry="13.6363636"></ellipse>
                    <ellipse id="Led-44" cx="183.943577" cy="81.8181818" rx="13.6254502" ry="13.6363636"></ellipse>
                    <ellipse id="Led-47" cx="81.7527011" cy="81.8181818" rx="13.6254502" ry="13.6363636"></ellipse>
                    <ellipse id="Led-48" cx="47.6890756" cy="81.8181818" rx="13.6254502" ry="13.6363636"></ellipse>
                    <ellipse id="Led-49" cx="13.6254502" cy="81.8181818" rx="13.6254502" ry="13.6363636"></ellipse>
                    <ellipse id="Led-56" cx="13.6254502" cy="47.7272727" rx="13.6254502" ry="13.6363636"></ellipse>
                    <ellipse id="Led-63" cx="13.6254502" cy="13.6363636" rx="13.6254502" ry="13.6363636"></ellipse>
                </g>
                <mask id="mask-2" fill="white">
                    <use xlink:href="#path-1"></use>
                </mask>
                <use id="Combined-Shape" fill="#262C28" xlink:href="#path-1"></use>
                <g id="Colors-/-Style-/-3-/-White" mask="url(#mask-2)" fill="#FFFFFF">
                    <g transform="translate(0.000000, -1.363636)" id="Color">
                        <rect x="0" y="0" width="231.632653" height="300"></rect>
                    </g>
                </g>
            </g>
            <g id="D" transform="translate(286.734694, 0.000000)">
                <g id="Led-Off" transform="translate(68.127251, 0.000000)" fill="#262C28">
                    <ellipse id="Led-1" cx="149.879952" cy="286.363636" rx="13.6254502" ry="13.6363636"></ellipse>
                    <ellipse id="Led-17" cx="81.7527011" cy="218.181818" rx="13.6254502" ry="13.6363636"></ellipse>
                    <ellipse id="Led-18" cx="47.6890756" cy="218.181818" rx="13.6254502" ry="13.6363636"></ellipse>
                    <ellipse id="Led-19" cx="13.6254502" cy="218.181818" rx="13.6254502" ry="13.6363636"></ellipse>
                    <ellipse id="Led-24" cx="81.7527011" cy="184.090909" rx="13.6254502" ry="13.6363636"></ellipse>
                    <ellipse id="Led-25" cx="47.6890756" cy="184.090909" rx="13.6254502" ry="13.6363636"></ellipse>
                    <ellipse id="Led-26" cx="13.6254502" cy="184.090909" rx="13.6254502" ry="13.6363636"></ellipse>
                    <ellipse id="Led-31" cx="81.7527011" cy="150" rx="13.6254502" ry="13.6363636"></ellipse>
                    <ellipse id="Led-32" cx="47.6890756" cy="150" rx="13.6254502" ry="13.6363636"></ellipse>
                    <ellipse id="Led-33" cx="13.6254502" cy="150" rx="13.6254502" ry="13.6363636"></ellipse>
                    <ellipse id="Led-38" cx="81.7527011" cy="115.909091" rx="13.6254502" ry="13.6363636"></ellipse>
                    <ellipse id="Led-39" cx="47.6890756" cy="115.909091" rx="13.6254502" ry="13.6363636"></ellipse>
                    <ellipse id="Led-40" cx="13.6254502" cy="115.909091" rx="13.6254502" ry="13.6363636"></ellipse>
                    <ellipse id="Led-45" cx="81.7527011" cy="81.8181818" rx="13.6254502" ry="13.6363636"></ellipse>
                    <ellipse id="Led-46" cx="47.6890756" cy="81.8181818" rx="13.6254502" ry="13.6363636"></ellipse>
                    <ellipse id="Led-47" cx="13.6254502" cy="81.8181818" rx="13.6254502" ry="13.6363636"></ellipse>
                    <ellipse id="Led-57" cx="149.879952" cy="13.6363636" rx="13.6254502" ry="13.6363636"></ellipse>
                </g>
                <mask id="mask-4" fill="white">
                    <use xlink:href="#path-3"></use>
                </mask>
                <use id="Combined-Shape" fill="#262C28" xlink:href="#path-3"></use>
                <g id="Colors-/-Style-/-3-/-White" mask="url(#mask-4)" fill="#FFFFFF">
                    <g transform="translate(0.000000, -1.363636)" id="Color">
                        <rect x="0" y="0" width="231.632653" height="300"></rect>
                    </g>
                </g>
            </g>
            <g id="N" transform="translate(572.448980, 0.000000)">
                <g id="Led-Off" transform="translate(68.127251, 0.000000)" fill="#262C28">
                    <ellipse id="Led-3" cx="81.7527011" cy="286.363636" rx="13.6254502" ry="13.6363636"></ellipse>
                    <ellipse id="Led-4" cx="47.6890756" cy="286.363636" rx="13.6254502" ry="13.6363636"></ellipse>
                    <ellipse id="Led-5" cx="13.6254502" cy="286.363636" rx="13.6254502" ry="13.6363636"></ellipse>
                    <ellipse id="Led-11" cx="47.6890756" cy="252.272727" rx="13.6254502" ry="13.6363636"></ellipse>
                    <ellipse id="Led-12" cx="13.6254502" cy="252.272727" rx="13.6254502" ry="13.6363636"></ellipse>
                    <ellipse id="Led-18" cx="47.6890756" cy="218.181818" rx="13.6254502" ry="13.6363636"></ellipse>
                    <ellipse id="Led-19" cx="13.6254502" cy="218.181818" rx="13.6254502" ry="13.6363636"></ellipse>
                    <ellipse id="Led-26" cx="13.6254502" cy="184.090909" rx="13.6254502" ry="13.6363636"></ellipse>
                    <ellipse id="Led-31" cx="81.7527011" cy="150" rx="13.6254502" ry="13.6363636"></ellipse>
                    <ellipse id="Led-33" cx="13.6254502" cy="150" rx="13.6254502" ry="13.6363636"></ellipse>
                    <ellipse id="Led-38" cx="81.7527011" cy="115.909091" rx="13.6254502" ry="13.6363636"></ellipse>
                    <ellipse id="Led-45" cx="81.7527011" cy="81.8181818" rx="13.6254502" ry="13.6363636"></ellipse>
                    <ellipse id="Led-46" cx="47.6890756" cy="81.8181818" rx="13.6254502" ry="13.6363636"></ellipse>
                    <ellipse id="Led-52" cx="81.7527011" cy="47.7272727" rx="13.6254502" ry="13.6363636"></ellipse>
                    <ellipse id="Led-53" cx="47.6890756" cy="47.7272727" rx="13.6254502" ry="13.6363636"></ellipse>
                    <ellipse id="Led-59" cx="81.7527011" cy="13.6363636" rx="13.6254502" ry="13.6363636"></ellipse>
                    <ellipse id="Led-60" cx="47.6890756" cy="13.6363636" rx="13.6254502" ry="13.6363636"></ellipse>
                    <ellipse id="Led-61" cx="13.6254502" cy="13.6363636" rx="13.6254502" ry="13.6363636"></ellipse>
                </g>
                <mask id="mask-6" fill="white">
                    <use xlink:href="#path-5"></use>
                </mask>
                <use id="Combined-Shape" fill="#262C28" xlink:href="#path-5"></use>
                <g id="Colors-/-Style-/-3-/-White" mask="url(#mask-6)" fill="#FFFFFF">
                    <rect id="Color" x="0" y="0" width="231.632653" height="300"></rect>
                </g>
            </g>
        </g>
        <g id="TOC" transform="translate(127.000000, 489.000000)">
            <g id="T" transform="translate(0.000000, 0.186441)">
                <g id="Led-Off" fill="#262C28">
                    <circle id="Led-1" cx="224" cy="294" r="14"></circle>
                    <circle id="Led-2" cx="189" cy="294" r="14"></circle>
                    <circle id="Led-5" cx="84" cy="294" r="14"></circle>
                    <circle id="Led-6" cx="49" cy="294" r="14"></circle>
                    <circle id="Led-7" cx="14" cy="294" r="14"></circle>
                    <circle id="Led-8" cx="224" cy="259" r="14"></circle>
                    <circle id="Led-9" cx="189" cy="259" r="14"></circle>
                    <circle id="Led-12" cx="84" cy="259" r="14"></circle>
                    <circle id="Led-13" cx="49" cy="259" r="14"></circle>
                    <circle id="Led-14" cx="14" cy="259" r="14"></circle>
                    <circle id="Led-15" cx="224" cy="224" r="14"></circle>
                    <circle id="Led-16" cx="189" cy="224" r="14"></circle>
                    <circle id="Led-19" cx="84" cy="224" r="14"></circle>
                    <circle id="Led-20" cx="49" cy="224" r="14"></circle>
                    <circle id="Led-21" cx="14" cy="224" r="14"></circle>
                    <circle id="Led-22" cx="224" cy="189" r="14"></circle>
                    <circle id="Led-23" cx="189" cy="189" r="14"></circle>
                    <circle id="Led-26" cx="84" cy="189" r="14"></circle>
                    <circle id="Led-27" cx="49" cy="189" r="14"></circle>
                    <circle id="Led-28" cx="14" cy="189" r="14"></circle>
                    <circle id="Led-29" cx="224" cy="154" r="14"></circle>
                    <circle id="Led-30" cx="189" cy="154" r="14"></circle>
                    <circle id="Led-33" cx="84" cy="154" r="14"></circle>
                    <circle id="Led-34" cx="49" cy="154" r="14"></circle>
                    <circle id="Led-35" cx="14" cy="154" r="14"></circle>
                    <circle id="Led-36" cx="224" cy="119" r="14"></circle>
                    <circle id="Led-37" cx="189" cy="119" r="14"></circle>
                    <circle id="Led-40" cx="84" cy="119" r="14"></circle>
                    <circle id="Led-41" cx="49" cy="119" r="14"></circle>
                    <circle id="Led-42" cx="14" cy="119" r="14"></circle>
                    <circle id="Led-43" cx="224" cy="84" r="14"></circle>
                    <circle id="Led-44" cx="189" cy="84" r="14"></circle>
                    <circle id="Led-47" cx="84" cy="84" r="14"></circle>
                    <circle id="Led-48" cx="49" cy="84" r="14"></circle>
                    <circle id="Led-49" cx="14" cy="84" r="14"></circle>
                    <circle id="Led-56" cx="14" cy="49" r="14"></circle>
                    <circle id="Led-63" cx="14" cy="14" r="14"></circle>
                </g>
                <mask id="mask-8" fill="white">
                    <use xlink:href="#path-7"></use>
                </mask>
                <use id="Combined-Shape" fill="#262C28" xlink:href="#path-7"></use>
                <g id="Colors-/-Style-/-3-/-Yellow" mask="url(#mask-8)" fill="#FFE300">
                    <rect id="Color" x="0" y="0" width="238" height="308"></rect>
                </g>
            </g>
            <g id="O" transform="translate(295.000000, 0.186441)">
                <g id="Led-Off" fill="#262C28">
                    <circle id="Led-1" cx="224" cy="294" r="14"></circle>
                    <circle id="Led-7" cx="14" cy="294" r="14"></circle>
                    <circle id="Led-17" cx="154" cy="224" r="14"></circle>
                    <circle id="Led-18" cx="119" cy="224" r="14"></circle>
                    <circle id="Led-19" cx="84" cy="224" r="14"></circle>
                    <circle id="Led-24" cx="154" cy="189" r="14"></circle>
                    <circle id="Led-25" cx="119" cy="189" r="14"></circle>
                    <circle id="Led-26" cx="84" cy="189" r="14"></circle>
                    <circle id="Led-31" cx="154" cy="154" r="14"></circle>
                    <circle id="Led-32" cx="119" cy="154" r="14"></circle>
                    <circle id="Led-33" cx="84" cy="154" r="14"></circle>
                    <circle id="Led-38" cx="154" cy="119" r="14"></circle>
                    <circle id="Led-39" cx="119" cy="119" r="14"></circle>
                    <circle id="Led-40" cx="84" cy="119" r="14"></circle>
                    <circle id="Led-45" cx="154" cy="84" r="14"></circle>
                    <circle id="Led-46" cx="119" cy="84" r="14"></circle>
                    <circle id="Led-47" cx="84" cy="84" r="14"></circle>
                    <circle id="Led-57" cx="224" cy="14" r="14"></circle>
                    <circle id="Led-63" cx="14" cy="14" r="14"></circle>
                </g>
                <mask id="mask-10" fill="white">
                    <use xlink:href="#path-9"></use>
                </mask>
                <use id="Combined-Shape" fill="#262C28" xlink:href="#path-9"></use>
                <g id="Colors-/-Style-/-3-/-Yellow" mask="url(#mask-10)" fill="#FFE300">
                    <rect id="Color" x="0" y="0" width="238" height="308"></rect>
                </g>
            </g>
            <g id="C" transform="translate(589.000000, 0.186441)">
                <g id="Led-Off" fill="#262C28">
                    <circle id="Led-1" cx="224" cy="294" r="14"></circle>
                    <circle id="Led-7" cx="14" cy="294" r="14"></circle>
                    <circle id="Led-17" cx="154" cy="224" r="14"></circle>
                    <circle id="Led-18" cx="119" cy="224" r="14"></circle>
                    <circle id="Led-19" cx="84" cy="224" r="14"></circle>
                    <circle id="Led-22" cx="224" cy="189" r="14"></circle>
                    <circle id="Led-23" cx="189" cy="189" r="14"></circle>
                    <circle id="Led-24" cx="154" cy="189" r="14"></circle>
                    <circle id="Led-25" cx="119" cy="189" r="14"></circle>
                    <circle id="Led-26" cx="84" cy="189" r="14"></circle>
                    <circle id="Led-29" cx="224" cy="154" r="14"></circle>
                    <circle id="Led-30" cx="189" cy="154" r="14"></circle>
                    <circle id="Led-31" cx="154" cy="154" r="14"></circle>
                    <circle id="Led-32" cx="119" cy="154" r="14"></circle>
                    <circle id="Led-33" cx="84" cy="154" r="14"></circle>
                    <circle id="Led-36" cx="224" cy="119" r="14"></circle>
                    <circle id="Led-37" cx="189" cy="119" r="14"></circle>
                    <circle id="Led-38" cx="154" cy="119" r="14"></circle>
                    <circle id="Led-39" cx="119" cy="119" r="14"></circle>
                    <circle id="Led-40" cx="84" cy="119" r="14"></circle>
                    <circle id="Led-45" cx="154" cy="84" r="14"></circle>
                    <circle id="Led-46" cx="119" cy="84" r="14"></circle>
                    <circle id="Led-57" cx="224" cy="14" r="14"></circle>
                    <circle id="Led-63" cx="14" cy="14" r="14"></circle>
                    <circle id="Path" cx="84" cy="84" r="14"></circle>
                </g>
                <mask id="mask-12" fill="white">
                    <use xlink:href="#path-11"></use>
                </mask>
                <use id="Combined-Shape" fill="#262C28" xlink:href="#path-11"></use>
                <g id="Colors-/-Style-/-3-/-Violet" mask="url(#mask-12)" fill="#BD10E0">
                    <g transform="translate(0.000000, -1.400000)" id="Color">
                        <rect x="0" y="0" width="238" height="308"></rect>
                    </g>
                </g>
            </g>
        </g>
    </g>
</svg>