<?xml version="1.0" encoding="UTF-8"?>
<svg width="1080px" height="1080px" viewBox="0 0 1080 1080" version="1.1" xmlns="http://www.w3.org/2000/svg" xmlns:xlink="http://www.w3.org/1999/xlink">
    <title>logojs</title>
    <g id="Page-1" stroke="none" stroke-width="1" fill="none" fill-rule="evenodd">
        <g id="logo-JS">
            <polygon id="Path-2" fill="#FFFB00" points="0 0 0 1080 1080 1080 1080 0"></polygon>
            <path d="M278.64,907.919415 L361.355691,857.849701 C377.313364,886.149321 391.829892,910.092349 426.648973,910.092349 C460.024765,910.092349 481.067191,897.033724 481.067191,846.238555 L481.067191,500.8 L582.64,500.8 L582.64,847.675737 C582.64,952.90322 520.973169,1000.8 431.002431,1000.8 C349.747186,1000.8 302.581871,958.70772 278.64,907.910835" id="j" fill="#212121" fill-rule="nonzero"></path>
            <path d="M638.64,897.397135 L721.501487,849.672242 C743.314266,885.107371 771.663143,911.138159 821.818354,911.138159 C863.984999,911.138159 890.872816,890.166907 890.872816,861.241719 C890.872816,826.533289 863.25232,814.239251 816.728275,793.998545 L791.292925,783.14508 C717.870321,752.057322 669.165428,713.010071 669.165428,630.576749 C669.165428,554.651658 727.317798,496.8 818.185039,496.8 C882.879953,496.8 929.401849,519.218666 962.836508,577.790611 L883.601889,628.405201 C866.155104,597.315305 847.26015,585.023404 818.185039,585.023404 C788.381547,585.023404 769.480146,603.823536 769.480146,628.405201 C769.480146,658.776947 788.381547,671.070985 831.992064,689.873255 L857.431711,700.71817 C943.935107,737.598148 992.64,775.196275 992.64,859.794733 C992.64,950.909972 920.676308,1000.8 823.999202,1000.8 C729.500795,1000.8 668.439195,955.971217 638.64,897.397135" id="s" fill="#212121" fill-rule="nonzero"></path>
        </g>
    </g>
</svg>