<?xml version="1.0" encoding="UTF-8"?>
<svg width="1080px" height="1080px" viewBox="0 0 1080 1080" version="1.1" xmlns="http://www.w3.org/2000/svg" xmlns:xlink="http://www.w3.org/1999/xlink">
    <title>Mascot-Umentor-1080</title>
    <g id="Page-1" stroke="none" stroke-width="1" fill="none" fill-rule="evenodd">
        <g id="Mascot-Umentor">
            <polygon id="Path" fill="#FFFFFF" points="0.0523765051 1080.00004 0.0523765051 0 1079.62051 0"></polygon>
            <polygon id="Path-black" fill="#323330" points="0.0523869804 1080 1079.83643 1080 1079.83643 0"></polygon>
            <path d="M783.297644,161.662124 L881.018273,232.109665 C895.152417,239.285682 901.259146,257.200837 894.411197,272.07109 C846.410698,376.289729 652.461145,315.918671 588.978406,303.813229 C576.56917,301.446938 565.852077,301.929847 556.168275,304.655091 L602.830589,352.302833 C604.855979,354.37005 603.073451,357.945045 600.308353,357.350511 C571.193722,351.092326 530.346659,360.89724 465.902181,435.084182 C454.329651,448.406129 441.79517,459.296731 428.722582,468.156216 L428.72138,468.152453 C489.774902,475.208391 552.297419,480.267392 583.950352,429.246261 C589.556074,420.209594 599.259554,415.277355 609.094167,416.106045 C598.757443,404.194656 597.640265,385.321087 608.891459,372.580564 C609.216213,372.212837 609.545619,371.853845 609.882468,371.503584 C615.760598,365.37354 633.182824,351.75995 637.844755,355.153889 C644.311906,359.860574 621.374458,379.697354 627.56245,380.235842 C657.339262,387.027597 673.913778,347.477263 679.671869,346.277064 C703.465401,341.31423 670.366616,413.224372 643.381381,426.807883 C639.154619,428.93526 634.328375,429.01315 628.830832,427.555621 C634.703981,435.875932 636.098698,447.350211 631.31464,457.435932 C619.776339,481.764246 601.368409,509.726376 561.050348,537.309597 C526.781945,560.75376 460.342505,575.827299 401.651438,575.487097 C420.848488,597.778069 440.235071,612.124682 458.204118,621.930472 C474.162886,630.639244 489.003548,635.766365 501.600314,639.696094 C501.936727,639.50311 502.279004,639.331028 502.626591,639.178745 C591.743469,600.130346 628.855079,664.699803 742.128199,642.107375 C825.138713,625.55183 845.8129,516.177262 850.928766,466.926491 C852.328644,453.453816 863.351288,443.387138 876.229605,443.898674 C890.451172,444.462922 901.212035,457.594899 899.673841,472.472338 C898.146582,487.242477 895.563346,506.994734 891.238456,529.340611 C893.759742,523.188136 895.9618,517.607776 897.824947,512.763196 C902.352927,500.991202 913.867966,493.915698 925.851226,495.511472 C940.361384,497.442218 950.650135,511.311961 948.954697,526.58411 C927.949853,715.751502 881.761489,787.583724 808.233384,846.142908 C699.005323,933.134349 534.040661,866.854468 476.918906,839.45418 L476.926459,839.458044 C471.349613,842.357019 464.77634,843.952493 456.950786,843.952493 C424.824213,843.952493 370.822802,814.00804 322.334631,758.198956 C307.897904,741.582521 293.94991,722.673254 281.213522,701.578837 L279.541262,698.785779 L279.141714,699.981117 C265.792269,739.754395 248.661524,776.520483 232.950956,799.029783 C197.239293,850.196193 135.144945,887.225777 87.3140695,902.284485 C82.0212917,903.950467 76.558319,903.536002 71.7848153,901.436994 C67.0620124,909.422275 57.5249672,915.925389 40.3263973,919.427879 C16.1192736,924.357362 11.4640575,892.721912 11.4640575,878.020221 C11.4640575,863.318531 16.1192736,842.527945 41.2574407,843.51384 C53.7331899,844.003127 62.3105532,850.827293 67.7861798,859.375064 C69.2979025,858.30781 70.9613006,857.416691 72.760605,856.739212 C210.248331,804.982598 165.702167,573.600197 232.448175,513.174827 L232.454052,513.185824 C233.424951,511.294819 234.475643,509.428383 235.599272,507.590851 C231.44775,503.477725 227.899978,498.94153 224.867089,494.192675 L224.862959,494.191664 C223.264427,493.759314 222.079055,493.414071 221.344462,493.191455 C220.745652,493.010172 220.225633,492.630062 219.857632,492.101804 C219.212097,491.17479 218.065391,489.337245 216.417884,485.993071 C214.121573,482.527482 211.058414,476.284808 208.176484,466.793618 C204.373098,454.268527 205.396908,453.130592 205.396908,453.130592 C205.415662,453.132711 205.767964,453.226561 206.431773,453.3791 L206.439662,453.380327 C206.215933,451.6895 206.052707,450.188754 205.934815,448.947512 C205.784321,447.358687 206.832716,445.994558 208.229691,445.723701 C207.769934,442.382213 207.482432,439.460725 207.302558,437.112928 L207.301849,437.115185 C190.306665,429.382914 177.322239,410.178757 182.128108,386.326552 C186.743083,363.42265 170.654356,358.759024 180.282117,353.676306 C181.500471,353.033049 183.204107,352.916552 185.02179,352.917787 L185.187338,352.918213 C186.182386,352.922576 187.208018,352.958277 188.203989,352.958942 L188.3697,352.958717 C190.9612,352.949753 193.327656,352.676762 194.396558,350.958052 C200.697746,340.827876 209.100047,332.705861 219.258078,327.769494 L219.255237,327.770712 C212.169797,319.986944 244.06121,302.342096 266.869896,304.530425 C273.694358,305.185207 279.893583,306.904841 285.485075,309.448321 C292.379974,298.932614 303.96778,292.032012 317.100156,292.032012 C338.245165,292.032012 355.385781,309.922253 355.385781,331.992013 C355.385781,351.029606 342.631524,366.957235 325.554677,370.974481 C325.831787,373.591226 325.968577,376.143476 325.968577,378.598579 C325.968577,407.125538 293.648987,435.124274 276.104066,438.048018 L275.766546,437.779517 C274.478934,438.752597 273.166421,439.676154 271.833821,440.547382 C271.302514,444.150223 271.279871,447.752133 271.587891,451.21813 L271.586384,451.220502 C311.441049,441.417968 363.064756,413.388629 408.305963,339.922657 C501.384699,188.774448 618.476195,210.525987 704.618963,219.839292 C752.953938,225.066376 762.851082,193.636534 770.02239,166.736962 C771.631762,160.704736 778.388913,158.1234 783.297644,161.662124 Z M1048.11586,443.023377 C1071.23325,433.029164 1071.99777,447.194041 1062.01632,457.816468 C1010.12129,513.044009 958.689614,484.937135 953.129432,498.74402 C953.129432,498.74402 935.522192,473.102661 910.038027,486.416444 C902.368683,490.423399 910.557904,480.785207 910.038027,473.595765 C910.038027,473.595765 906.196868,425.484688 930.425358,424.28546 C970.273326,422.313048 988.807263,468.664734 1048.11586,443.023377 Z M930.65364,288.257351 C940.381434,364.927757 913.084314,407.511463 897.480191,430.956878 C892.142663,438.977161 883.711847,429.979985 860.5847,432.855954 C852.179584,433.902206 856.727727,429.040215 851.093722,425.159021 L851.064461,425.127947 C850.117969,424.118207 826.668109,398.766833 847.914152,387.973621 C877.260001,373.064292 894.732947,356.153312 911.356847,291.030748 C917.837147,265.647183 928.782064,273.512141 930.65364,288.257351 Z" id="Flying-JS" fill="#FFFFFF" fill-rule="nonzero"></path>
            <path d="M458.204118,621.930472 C446.923842,616.777158 436.59539,610.216999 427.218764,602.249995 C417.842137,594.282991 409.685206,586.093196 402.747972,577.680609 C431.608642,576.10726 452.843939,574.181178 466.453861,571.902365 C480.063783,569.623552 498.810664,564.855112 522.694502,557.597045 C562.111457,520.031941 599.300355,483.244647 634.261196,447.235162 C638.801741,442.558424 637.039373,436.619411 628.974093,429.418124 C635.186535,431.004171 640.858437,430.33438 645.989798,427.40875 C655.61718,421.919727 658.682413,416.079646 663.838853,409.663188 C668.995293,403.24673 674.907132,393.407126 678.339623,386.442654 C680.733067,381.586391 686.85041,365.753183 688.090558,358.057929 C689.017021,352.309126 687.160419,345.46012 679.402409,348.500724 C676.315784,349.710469 674.942962,353.367081 673.230077,355.799613 C670.637751,359.481074 667.839014,362.559632 665.181189,365.997812 C656.609991,377.085572 645.989798,383.183281 633.487325,382.606766 C630.262861,382.45808 624.901346,383.183281 628.391837,377.272259 C629.211888,375.883532 633.196759,371.464725 635.835839,367.203195 C636.572703,366.013322 637.80872,363.941967 638.477545,362.405157 C639.273266,360.576768 639.389591,358.664897 639.162692,358.057929 C638.979936,357.569047 638.572511,356.997867 637.304329,356.518901 C636.861825,356.351776 635.955379,356.351776 634.584991,356.518901 C619.042099,364.776798 609.009867,373.316885 604.488297,382.139161 C598.726894,393.380539 600.379294,405.246685 609.445496,417.737598 C601.697268,418.21309 596.495032,419.455903 593.838788,421.466038 C586.654469,426.902831 576.529253,443.623628 570.180542,449.325294 C561.266302,457.331019 558.986848,457.331019 549.661246,462.979826 C529.830476,474.99194 493.429497,473.696528 468.211753,473.668678 C457.571158,473.656926 444.524809,472.362035 429.072708,469.784005 C439.579443,462.906206 447.386468,457.018141 452.493785,452.119807 C484.559086,421.36657 508.698661,394.044975 522.694502,382.139161 C548.704051,360.01367 558.986848,362.405157 604.488297,358.057929 C611.271754,357.409835 594.305027,343.816836 586.655482,335.387917 C581.586315,329.802277 572.363437,320.598011 558.986848,307.775117 C555.598341,304.708078 564.82122,303.174558 586.655482,303.174558 C598.359125,303.174558 623.052143,313.964098 652.317352,320.134448 C669.205238,323.695133 699.71325,328.779622 743.84139,335.387917 L861.430563,219.084386 C823.270372,190.34236 796.278034,171.210084 780.453547,161.687558 C760.088153,149.432502 769.55088,209.939801 736.898278,219.084386 C716.024842,224.930135 645.891739,213.493546 622.686729,215.146988 C588.023467,217.616873 549.661246,219.084386 516.144536,237.54929 C400.372048,301.33025 440.217303,328.826678 355.683132,405.796862 C332.532529,426.875985 304.61739,442.561049 271.937713,452.852054 L271.937713,441.388599 C282.260993,438.940321 290.743045,434.950163 297.38387,429.418124 C306.255465,422.027776 316.689584,410.411418 321.283491,400.990095 C324.191616,395.026022 325.732454,385.564669 325.906006,372.606033 C337.592655,369.252879 345.670905,363.650739 350.140755,355.799613 C353.192798,350.438813 356.214916,337.527012 355.683132,329.498628 C355.521614,327.06017 354.601791,319.31978 350.548223,312.226539 C347.928816,307.6429 343.342854,303.721873 339.018524,300.357756 C336.562482,298.447076 329.284826,294.417219 321.992086,293.559945 C315.206092,292.762239 308.403792,295.039468 305.545145,295.826566 C299.614381,297.459538 292.213288,302.550122 289.395635,306.42315 C287.00397,309.710631 286.774803,311.722494 285.836403,311.079873 C283.197464,309.272715 275.860934,306.789013 267.221224,306.161977 C260.802115,305.696103 253.140425,306.589815 248.922133,307.775117 C243.399543,309.326916 231.093433,314.099254 224.795346,318.571346 C218.74827,322.865202 218.321276,325.827829 218.197253,326.725136 C218.028455,327.946377 218.329658,328.870874 219.10086,329.498628 C209.172892,335.08955 201.055235,342.786541 194.747887,352.589604 C193.148922,355.07476 187.954404,354.223149 183.708538,354.587923 C180.703071,354.846131 178.230472,356.021603 177.590056,358.057929 C176.809603,360.53953 182.140741,368.277536 182.498341,372.606033 C182.604002,373.884981 183.422479,378.968936 182.498341,384.842114 C181.393805,391.861783 181.793898,399.351372 181.793898,401.863931 C181.793898,404.37649 183.86065,416.322759 189.691158,424.103352 C192.39868,427.716438 196.149481,431.612282 199.604333,433.9635 C202.260994,435.771506 204.943942,437.365918 207.653177,438.746737 L208.668997,447.235162 C207.48461,447.290529 206.730853,447.98724 206.407725,449.325294 C206.084597,450.663349 206.212352,452.558877 206.790991,455.011879 L205.748236,454.762144 C205.926921,457.383366 206.146751,459.352772 206.407725,460.670361 C207.258558,464.965989 208.78971,469.417883 210.547102,474.455171 C211.015865,475.798806 212.434271,479.540381 214.453171,483.581975 C216.72202,488.123939 219.528989,493.714705 220.935902,494.43433 C221.442495,494.693448 222.87,495.156747 225.218417,495.824227 L235.950601,509.222403 L232.80538,514.817376 C222.459805,523.426791 213.516644,539.443184 205.975898,562.866557 C200.211406,580.772457 193.884232,607.450331 191.102509,626.252666 C188.648735,642.838316 182.498341,673.316329 177.590056,697.361947 C174.675858,711.638561 169.337928,738.132912 159.354791,764.009884 C154.497771,776.599609 134.45676,815.015208 118.597425,829.867624 C108.024536,839.769234 91.2045632,850.148898 68.1375082,861.006616 C65.6104511,857.532577 63.6087908,855.147961 62.1325275,853.852766 C59.2391009,851.314228 53.0952469,846.605342 45.1726408,845.392104 C36.8965005,844.124727 26.8077787,846.494259 22.6100174,850.625006 C19.5392998,853.646701 14.6095968,859.278428 11.8153859,868.940194 C11.1046906,871.397622 10.6139054,897.387966 18.2523887,911.673852 C24.1476488,922.699472 37.0007647,923.450222 45.1726408,921.575588 C48.3527876,920.84606 57.9754365,916.629314 64.5712307,911.673852 C66.9666053,909.874192 69.488243,907.005757 72.1361437,903.068546 C77.2054393,905.018535 81.7609468,905.544093 85.8026662,904.645222 C102.372561,900.960107 120.147504,892.093541 125.633904,889.879507 C187.074296,865.085272 218.841629,843.394631 220.935902,824.807585 C233.013277,804.940067 244.20362,784.674167 254.506931,764.009884 C264.810242,743.3456 273.829549,723.079102 281.56485,703.210389 C287.894469,714.3841 294.559783,724.558804 301.560792,733.734502 C308.5618,742.9102 315.136033,751.319773 321.283491,758.963222 L458.204118,621.930472 Z" id="Path-3" fill="#323330" fill-rule="nonzero"></path>
        </g>
    </g>
</svg>