<?xml version="1.0" encoding="UTF-8"?>
<svg width="220px" height="80px" viewBox="0 0 220 80" version="1.1" xmlns="http://www.w3.org/2000/svg" xmlns:xlink="http://www.w3.org/1999/xlink">
    <title>Umentor-JS-Logo-220x80</title>
    <g id="Page-1" stroke="none" stroke-width="1" fill="none" fill-rule="evenodd">
        <g id="layer1" transform="translate(0.000000, 77.000000)" fill="#FFFB00">
            <polygon id="yellow-line" points="3.13570766 0 220 0 220 3 0 3"></polygon>
        </g>
        <polygon id="Path-5" fill="#323330" points="80 80 80 0 0 80"></polygon>
        <g id="Logo-M" transform="translate(31.000000, 44.000000)">
            <path d="M33.3253427,0.9375 C35.8568244,0.9375 39.6613151,1.46186251 42.4723973,4.335826 C44.3464521,6.25180165 45.5201616,8.5160654 45.9935256,11.1286172 L45.9934444,26.1905 L46,26.1895134 L45.9935256,29.7446577 L45.0838981,30 L45.0834444,29.7445 L38.624711,29.7446577 L38.624711,18.0592215 L38.624711,18.0592215 C38.624711,17.0032859 38.0357853,15.7931703 36.3302383,14.8543038 C37.2739243,14.0627178 37.870641,12.8965121 37.870641,11.5961483 C37.870641,9.20968526 35.860864,7.27507469 33.3816784,7.27507469 C30.9024928,7.27507469 28.8927158,9.20968526 28.8927158,11.5961483 C28.8927158,12.874709 29.46959,14.0235727 30.3864606,14.8147208 C29.4296993,15.3219589 28.2357895,16.2773695 28.2357895,18.0592215 L28.2357895,29.7446577 L27.3196877,30 L27.3194444,29.7445 L20.1261295,29.7446577 L20.1261295,22.3066111 L20.1261295,22.3066111 C20.1261295,20.3011453 19.3114287,19.5917854 17.7971519,18.7872051 C18.7285746,17.9956929 19.3162623,16.8373326 19.3162623,15.5468442 C19.3162623,13.1603812 17.3064853,11.2257706 14.8272998,11.2257706 C12.3481142,11.2257706 10.3383372,13.1603812 10.3383372,15.5468442 C10.3383372,16.8130365 10.9041044,17.952029 11.8055691,18.7423566 C10.4444123,19.1602794 9.33671416,19.9165728 9.33671416,22.3066111 L9.33671416,29.7446577 L8.4206123,30 L8.42044444,29.7445 L2.04444444,29.7446577 L2.04444444,11.1286172 C2.24262413,8.99935874 3.34866906,6.8856338 5.36257926,4.78744245 C8.38344455,1.64015541 12.5073092,0.9375 14.8627913,0.9375 C18.3235946,0.9375 21.3756592,2.22081415 24.018985,4.78744245 C26.3309852,2.22081415 29.4331044,0.9375 33.3253427,0.9375 Z" id="Combined-Iron" fill="#424242"></path>
            <path d="M32.2669319,0.709101707 C34.8069388,0.709101707 38.6242421,1.24226951 41.4447912,4.16449367 C43.3251574,6.11264311 44.5028195,8.41492923 44.9777778,11.071352 L44.9777778,30 L37.584147,30 L37.584147,18.1183376 L37.584147,18.1183376 C37.584147,17.0447153 36.9932874,15.8143371 35.282162,14.8597217 C36.2287383,14.0548674 36.8275374,12.8690145 36.8275374,11.5467341 C36.8275374,9.12019661 34.810992,7.15309933 32.3234572,7.15309933 C29.8359224,7.15309933 27.8193771,9.12019661 27.8193771,11.5467341 C27.8193771,12.8464274 28.3978936,14.0143143 29.3174361,14.8187276 C28.3575285,15.3356293 27.1602384,16.3070484 27.1602384,18.1183376 L27.1602384,30 L27.1602384,30 L19.0232673,30 L19.0232673,22.4370509 L19.0232673,22.4370509 C19.0232673,20.39811 18.2059842,19.6767794 16.6868964,18.8587882 C17.6211127,18.0535285 18.2106727,16.8758113 18.2106727,15.5637716 C18.2106727,13.1372341 16.1941273,11.1701368 13.7065925,11.1701368 C11.2190577,11.1701368 9.20251228,13.1372341 9.20251228,15.5637716 C9.20251228,16.8515934 9.77050866,18.0100056 10.6754593,18.8136316 C9.30954999,19.2374661 8.19751604,20.0062164 8.19751604,22.4370509 L8.19751604,30 L8.19751604,30 L0.880687929,30 L0.880687929,11.071352 C1.07953503,8.90633821 2.18930482,6.75711881 4.20999732,4.62369383 C7.24103608,1.42355637 11.3787888,0.709101707 13.7422036,0.709101707 C17.2146619,0.709101707 20.277005,2.01396575 22.9292329,4.62369383 C25.2490192,2.01396575 28.3615855,0.709101707 32.2669319,0.709101707 Z" id="Combined-Black" fill="#FFFFFF"></path>
        </g>
        <g id="Text-Umentor" transform="translate(86.000000, 47.000000)" fill="#323330">
            <path d="M131.026756,25.9615385 L131.026756,25.335827 C128.511228,25.1382339 128.414477,24.9406408 128.414477,23.4257603 L128.414477,15.686697 C128.414477,13.3155798 129.349737,12.5581395 130.188247,12.5581395 C130.962255,12.5581395 131.284759,12.821597 131.800764,13.4802407 C131.929766,13.6119694 132.220019,13.7436982 132.510272,13.7436982 C133.284281,13.7436982 133.961538,12.9203936 133.961538,11.932428 C133.961538,11.20792 133.510033,10.3846154 132.31677,10.3846154 C131.252508,10.3846154 130.381749,11.20792 128.414477,13.0191901 L128.059723,10.4175476 L123.705925,11.20792 L123.705925,11.7348349 L124.608935,11.8336315 C125.350693,11.9653602 125.640946,12.2617499 125.640946,13.348512 L125.640946,23.4257603 C125.640946,24.9735729 125.576445,25.2040982 123.576923,25.335827 L123.576923,25.9615385 L131.026756,25.9615385 Z" id="r"></path>
            <path d="M113.208791,11.4230769 C118.252747,11.4230769 120.461538,14.3457573 120.461538,19.2275971 C120.461538,24.109437 118.252747,27 113.175824,27 C108.197802,27 105.923077,24.109437 105.923077,19.2275971 C105.923077,14.3457573 108.197802,11.4230769 113.175824,11.4230769 L113.175824,11.4230769 Z M113.324476,12.3966346 C110.548951,12.3966346 109.227273,15.2460008 109.227273,19.5360577 L109.227273,19.5360577 L109.227273,19.568073 C109.227273,23.85813 110.548951,26.6754808 113.324476,26.6754808 C116.199126,26.6754808 117.487762,23.85813 117.487762,19.5360577 C117.487762,15.2780161 116.199126,12.3966346 113.324476,12.3966346 Z" id="o"></path>
            <path d="M103.153936,23.0982563 L102.798486,22.584725 C102.001669,23.5307241 101.353439,24.0740175 100.853797,24.2146053 C99.4391726,24.6126479 98.4968325,23.8797491 98.4968325,22.584725 C98.4968325,20.308676 98.4968325,17.0944469 98.4968325,12.9420379 L103.846154,12.9420379 L103.846154,11.6944819 L98.4968325,11.6944819 L98.4968325,6.23076923 L97.758365,6.23076923 C96.9667945,8.50018389 96.2538231,9.99480213 95.6194509,10.7146239 C94.9850787,11.4344458 93.9196207,11.9578104 92.4230769,12.2847179 L92.4230769,12.9420379 L95.6194509,12.9420379 C95.6194509,18.2835293 95.6194509,21.6689354 95.6194509,23.0982563 C95.6194509,25.2864594 96.5479266,25.9614558 98.1346154,25.9614558 C98.7401791,25.9614558 99.6114695,25.9833497 100.853797,25.314308 C101.472302,24.981219 102.239015,24.2425351 103.153936,23.0982563 Z" id="t"></path>
            <path d="M80.6912682,25.9615385 L80.6912682,25.3775411 C78.7346302,25.2238575 78.5742501,25.1623841 78.5742501,23.4411286 L78.5742501,16.0643194 C78.5742501,15.3881119 78.6384021,14.957798 78.8950104,14.4967474 C79.3761509,13.5439096 80.8195723,12.7140185 82.3912979,12.7140185 C84.3158598,12.7140185 85.502673,13.6975931 85.502673,16.1257928 L85.502673,23.4411286 C85.502673,25.1623841 85.3743689,25.2545942 83.3535789,25.3775411 L83.3535789,25.9615385 L90.3461538,25.9615385 L90.3461538,25.3775411 C88.3574399,25.2238575 88.2612118,25.1316474 88.2612118,23.4411286 L88.2612118,16.0335827 C88.2612118,13.1135957 86.7857143,11.4230769 83.9950995,11.4230769 C81.8139293,11.4230769 80.4346599,12.560335 78.542174,13.6975931 L78.1251856,11.4538136 L73.8590734,12.1914946 L73.8590734,12.6832818 L74.8213543,12.7754919 C75.7157821,12.89371 75.8094954,13.0687638 75.815381,14.229697 L75.8157113,23.4411286 C75.8157113,25.1009107 75.6874072,25.2545942 73.7307692,25.3775411 L73.7307692,25.9615385 L80.6912682,25.9615385 Z" id="n"></path>
            <path d="M63.3382867,11.4230769 C69.2019231,11.4230769 69.5769231,15.7185414 69.5769231,17.5136609 C69.5769231,18.0586079 69.4064685,18.6356106 68.2473776,18.6356106 L68.2473776,18.6356106 L59.3496503,18.6356106 C59.2814685,21.8091253 60.1337413,25.7199214 64.0882867,25.7199214 C66.0141214,25.7199214 67.6122587,25.013249 68.8826986,23.5999041 L68.8826986,23.5999041 L69.3173077,24.2321444 C67.6298077,25.7199214 66.8548149,26.7233158 63.3723776,26.9700939 C57.9961815,27.3510705 56.0769231,24.0530247 56.0769231,19.3087804 C56.0769231,14.8209817 58.2587413,11.4230769 63.3382867,11.4230769 Z M63.0419715,12.0461538 C59.7997029,12.0461538 59.369606,16.6715637 59.369606,17.9653846 L59.369606,17.9653846 L65.0601183,17.9653846 C66.1519027,17.9653846 66.2842402,17.2861286 66.2842402,16.380454 L66.2842402,16.380454 L66.2837732,16.2957873 C66.2696994,15.0148499 65.9210472,12.0461538 63.0419715,12.0461538 Z" id="e"></path>
            <path d="M34.8722084,25.9615385 L34.8722084,25.3775411 C32.8622829,25.2238575 32.7076732,25.0394373 32.7076732,23.4411286 L32.7076732,16.0950561 C32.7076732,15.3881119 32.7695171,14.9885347 33.0168925,14.5274841 C33.4497996,13.5439096 34.7794426,12.7140185 36.2946173,12.7140185 C38.1190113,12.7140185 39.1703569,13.6975931 39.1703569,16.1565295 L39.1703569,23.4411286 C39.1703569,25.070174 39.0157473,25.2545942 37.0058217,25.3775411 L37.0058217,25.9615385 L43.9632563,25.9615385 L43.9632563,25.3775411 C42.0460966,25.2238575 41.7987211,25.070174 41.7987211,23.4411286 L41.7987211,16.0950561 C41.7987211,14.7733778 41.9842527,14.5582208 42.324394,14.127907 C42.9737545,13.3594893 44.1487879,12.7140185 45.2928994,12.7140185 C47.2100592,12.7140185 48.2923268,13.7590665 48.2923268,16.1565295 L48.2923268,23.4411286 C48.2923268,25.070174 48.1377171,25.2545942 46.1277916,25.3775411 L46.1277916,25.9615385 L52.9615385,25.9615385 L52.9615385,25.3775411 C51.1680664,25.2238575 50.9516129,25.0394373 50.9516129,23.4411286 L50.9516129,16.0335827 C50.9516129,13.1135957 49.5910479,11.4230769 46.9008399,11.4230769 C44.7363046,11.4230769 43.2829738,12.6525451 41.5513457,13.8820133 C40.963829,12.3451781 39.7578736,11.4230769 37.8407139,11.4230769 C35.7071006,11.4230769 34.4702233,12.4681249 32.7385952,13.6668564 L32.2747662,11.4538136 L28.1621493,12.1914946 L28.1621493,12.6832818 L29.0898072,12.7754919 C29.8937774,12.8984388 30.0483871,13.1443324 30.0483871,14.3738006 L30.0483871,23.4411286 C30.0483871,24.9779639 30.110231,25.2545942 28.0384615,25.3775411 L28.0384615,25.9615385 L34.8722084,25.9615385 Z" id="m"></path>
            <path d="M0,0.785753938 C1.32537794,0.902984288 2.15123316,1.16980262 2.47756566,1.58620894 C3.40540182,2.77014506 3.24761796,4.97736602 3.24761796,5.5542003 C3.24761796,12.6209198 3.24761796,15.0797079 3.24761796,20.2852382 C3.24761796,21.1626749 4.13328865,22.5566618 4.79247812,23.3953169 C6.67062186,25.7847889 10.2507,27.1617112 13.8138039,26.9847905 C16.3484112,26.8589382 19.0321044,25.9398561 20.7581474,24.3411433 C22.6060209,22.6295875 23.4087952,20.1775664 23.4087952,18.2975974 C23.4087952,14.3194082 23.4087952,9.66613848 23.4087952,4.99640981 C23.4087952,1.88325735 24.6058635,0.393878021 27,0.528271803 L27,0 L18.3683552,0 L18.3683552,0.528271803 C19.5638688,0.642140871 20.3604662,0.911205005 20.7581474,1.33546421 C21.4919813,2.11834221 21.9860254,3.14997071 21.9860254,4.99640981 C21.9860254,10.0174789 21.9860254,12.5155246 21.9860254,18.2975974 C21.9860254,20.2492268 20.6680561,22.1123962 19.0192158,23.2334609 C17.3797194,24.3481726 15.4126933,24.7263142 14.2282922,24.7263142 C13.1725637,24.7263142 11.4386331,24.5378038 9.96353787,23.8056977 C8.1194405,22.8904516 6.61618647,21.2010966 6.61618647,18.8359322 C6.61618647,13.2106218 6.61618647,11.0479824 6.61618647,5.7881271 C6.61618647,4.08056299 6.78459808,2.67674137 7.41995415,1.80069496 C7.86620755,1.18538851 8.9379562,0.761247459 10.6352001,0.528271803 L10.6352001,0 L0,0 L0,0.785753938 Z" id="u" stroke="#323330"></path>
        </g>
    </g>
</svg>