<?xml version="1.0" encoding="UTF-8"?>
<svg width="1760px" height="640px" viewBox="0 0 1760 640" version="1.1" xmlns="http://www.w3.org/2000/svg" xmlns:xlink="http://www.w3.org/1999/xlink">
    <title>Umentor-JS-Logo-1760x640</title>
    <g id="Page-1" stroke="none" stroke-width="1" fill="none" fill-rule="evenodd">
        <g id="Umentor-Logo-JS">
            <g id="layer1" transform="translate(0.000000, 616.000000)" fill="#FFFB00">
                <polygon id="yellow-line" points="25.0856613 0 1760 0 1760 24 0 24"></polygon>
            </g>
            <polygon id="Path-5" fill="#323330" points="640 640 640 0 0 640"></polygon>
            <g id="Logo-M" transform="translate(248.000000, 352.000000)">
                <path d="M266.602742,7.5 C286.854595,7.5 317.290521,11.6949001 339.779178,34.686608 C354.771617,50.0144132 364.161292,68.1285232 367.948205,89.0289379 L367.947556,209.525 L368,209.516107 L367.948205,237.957261 L360.671185,240 L360.670556,237.957 L308.997688,237.957261 L308.997688,144.473772 L308.997688,144.473772 C308.997688,136.026292 304.286288,126.345374 290.64193,118.834444 C298.193286,112.498044 302.965128,103.170035 302.965128,92.7691867 C302.965128,73.6774821 286.886912,58.2005975 267.053427,58.2005975 C247.219943,58.2005975 231.141727,73.6774821 231.141727,92.7691867 C231.141727,102.995356 235.75463,112.184418 243.086701,118.513466 C235.427978,122.58337 225.886316,130.226134 225.886316,144.473772 L225.886316,237.957261 L218.557502,240 L218.556556,237.957 L161.009036,237.957261 L161.009036,178.452888 L161.009036,178.452888 C161.009036,162.40937 154.491598,156.73443 142.377686,150.297891 C149.829996,143.962784 154.530099,134.697125 154.530099,124.374754 C154.530099,105.283049 138.451883,89.8061648 118.618398,89.8061648 C98.7849136,89.8061648 82.7066976,105.283049 82.7066976,124.374754 C82.7066976,134.504533 87.2330503,143.616665 94.4450668,149.939303 C83.5540423,153.283093 74.6937133,159.333937 74.6937133,178.452888 L74.6937133,237.957261 L67.3648984,240 L67.3645556,237.957 L16.3555556,237.957261 L16.3555556,89.0289379 C17.940993,71.9948699 26.7893525,55.0850704 42.9006341,38.2995396 C67.0675564,13.1212433 100.058474,7.5 118.902331,7.5 C146.588757,7.5 171.005273,17.7665132 192.15188,38.2995396 C210.647881,17.7665132 235.464835,7.5 266.602742,7.5 Z" id="Combined-Iron" fill="#424242"></path>
                <path d="M258.135455,5.67281365 C278.455511,5.67281365 308.993936,9.93815609 331.55833,33.3159494 C346.601259,48.9011449 356.022556,67.3194338 359.822222,88.5708162 L359.822222,240 L300.673176,240 L300.673176,144.9467 L300.673176,144.9467 C300.673176,136.357349 295.945888,126.51384 282.255509,118.876777 C289.83237,112.434061 294.620299,102.949396 294.620299,92.3738726 C294.620299,72.9615729 278.487936,57.2247946 258.587658,57.2247946 C238.68738,57.2247946 222.555016,72.9615729 222.555016,92.3738726 C222.555016,102.771703 227.183402,112.115025 234.540092,118.550348 C226.855702,122.688707 217.281907,130.459811 217.281907,144.9467 L217.281907,240 L217.281907,240 L152.186138,240 L152.186138,179.496407 L152.186138,179.496407 C152.186138,163.183174 145.646506,157.413028 133.491358,150.868252 C140.969089,144.427854 145.685381,135.006282 145.685381,124.510172 C145.685381,105.097873 129.553018,89.3610945 109.65274,89.3610945 C89.7524613,89.3610945 73.6200982,105.097873 73.6200982,124.510172 C73.6200982,134.810471 78.1620614,144.075949 85.398876,150.50479 C74.470784,153.903613 65.5801283,160.05587 65.5801283,179.496407 L65.5801283,240 L65.5801283,240 L7.04550343,240 L7.04550343,88.5708162 C8.6362802,71.2507056 17.5144386,54.0569505 33.6799786,36.9895507 C57.9282886,11.388451 91.0303103,5.67281365 109.937629,5.67281365 C137.717295,5.67281365 162.21604,16.111726 183.433863,36.9895507 C201.992153,16.111726 226.892684,5.67281365 258.135455,5.67281365 Z" id="Combined-Black" fill="#FFFFFF"></path>
            </g>
            <g id="Text-Umentor" transform="translate(688.000000, 376.000000)" fill="#323330">
                <path d="M1048.21405,207.692308 L1048.21405,202.686616 C1028.08982,201.105871 1027.31581,199.525126 1027.31581,187.406082 L1027.31581,125.493576 C1027.31581,106.524638 1034.7979,100.465116 1041.50597,100.465116 C1047.69804,100.465116 1050.27807,102.572776 1054.40612,107.841926 C1055.43813,108.895755 1057.76015,109.949585 1060.08218,109.949585 C1066.27425,109.949585 1071.69231,103.363148 1071.69231,95.4594243 C1071.69231,89.6633599 1068.08027,83.0769231 1058.53416,83.0769231 C1050.02007,83.0769231 1043.05399,89.6633599 1027.31581,104.153521 L1024.47778,83.3403805 L989.647396,89.6633599 L989.647396,93.8786795 L996.871476,94.6690519 C1002.80554,95.7228818 1005.12757,98.093999 1005.12757,106.788096 L1005.12757,187.406082 C1005.12757,199.788584 1004.61156,201.632786 988.615385,202.686616 L988.615385,207.692308 L1048.21405,207.692308 Z" id="r"></path>
                <path d="M905.67033,91.3846154 C946.021978,91.3846154 963.692308,114.766059 963.692308,153.820777 C963.692308,192.875496 946.021978,216 905.406593,216 C865.582418,216 847.384615,192.875496 847.384615,153.820777 C847.384615,114.766059 865.582418,91.3846154 905.406593,91.3846154 L905.406593,91.3846154 Z M906.595804,99.1730769 C884.391608,99.1730769 873.818182,121.968006 873.818182,156.288462 L873.818182,156.288462 L873.818182,156.544584 C873.818182,190.86504 884.391608,213.403846 906.595804,213.403846 C929.593007,213.403846 939.902098,190.86504 939.902098,156.288462 C939.902098,122.224129 929.593007,99.1730769 906.595804,99.1730769 Z" id="o"></path>
                <path d="M825.23149,184.78605 L822.387885,180.6778 C816.01335,188.245793 810.827513,192.59214 806.830375,193.716843 C795.513381,196.901183 787.97466,191.037992 787.97466,180.6778 C787.97466,162.469408 787.97466,136.755575 787.97466,103.536303 L830.769231,103.536303 L830.769231,93.5558553 L787.97466,93.5558553 L787.97466,49.8461538 L782.06692,49.8461538 C775.734356,68.0014711 770.030585,79.958417 764.955607,85.7169915 C759.88063,91.475566 751.356966,95.6624831 739.384615,98.2777429 L739.384615,103.536303 L764.955607,103.536303 C764.955607,146.268234 764.955607,173.351484 764.955607,184.78605 C764.955607,202.291675 772.383413,207.691647 785.076923,207.691647 C789.921433,207.691647 796.891756,207.866798 806.830375,202.514464 C811.778414,199.849752 817.91212,193.940281 825.23149,184.78605 Z" id="t"></path>
                <path d="M645.530146,207.692308 L645.530146,203.020329 C629.877042,201.79086 628.594001,201.299073 628.594001,187.529029 L628.594001,128.514555 C628.594001,123.104895 629.107217,119.662384 631.160083,115.97398 C635.009207,108.351277 646.556579,101.712148 659.130383,101.712148 C674.526879,101.712148 684.021384,109.580745 684.021384,129.006342 L684.021384,187.529029 C684.021384,201.299073 682.994951,202.036754 666.828631,203.020329 L666.828631,207.692308 L722.769231,207.692308 L722.769231,203.020329 C706.859519,201.79086 706.089694,201.053179 706.089694,187.529029 L706.089694,128.268662 C706.089694,104.908766 694.285714,91.3846154 671.960796,91.3846154 C654.511435,91.3846154 643.477279,100.48268 628.337392,109.580745 L625.001485,91.630509 L590.872587,97.5319564 L590.872587,101.466255 L598.570835,102.203936 C605.726257,103.14968 606.475963,104.55011 606.523048,113.837576 L606.525691,187.529029 C606.525691,200.807286 605.499257,202.036754 589.846154,203.020329 L589.846154,207.692308 L645.530146,207.692308 Z" id="n"></path>
                <path d="M506.706294,91.3846154 C553.615385,91.3846154 556.615385,125.748331 556.615385,140.109287 C556.615385,144.468863 555.251748,149.084884 545.979021,149.084884 L545.979021,149.084884 L474.797203,149.084884 C474.251748,174.473003 481.06993,205.759371 512.706294,205.759371 C528.112971,205.759371 540.898069,200.105992 551.061589,188.799233 L551.061589,188.799233 L554.538462,193.857155 C541.038462,205.759371 534.838519,213.786526 506.979021,215.760751 C463.969452,218.808564 448.615385,192.424198 448.615385,154.470243 C448.615385,118.567853 466.06993,91.3846154 506.706294,91.3846154 Z M504.335772,96.3692308 C478.397623,96.3692308 474.956848,133.372509 474.956848,143.723077 L474.956848,143.723077 L520.480947,143.723077 C529.215221,143.723077 530.273921,138.289029 530.273921,131.043632 L530.273921,131.043632 L530.270186,130.366299 C530.157595,120.118799 527.368378,96.3692308 504.335772,96.3692308 Z" id="e"></path>
                <path d="M278.977667,207.692308 L278.977667,203.020329 C262.898263,201.79086 261.661386,200.315498 261.661386,187.529029 L261.661386,128.760449 C261.661386,123.104895 262.156137,119.908278 264.13514,116.219873 C267.598397,108.351277 278.235541,101.712148 290.356938,101.712148 C304.95209,101.712148 313.362856,109.580745 313.362856,129.252236 L313.362856,187.529029 C313.362856,200.561392 312.125978,202.036754 296.046574,203.020329 L296.046574,207.692308 L351.706051,207.692308 L351.706051,203.020329 C336.368773,201.79086 334.389769,200.561392 334.389769,187.529029 L334.389769,128.760449 C334.389769,118.187022 335.874022,116.465767 338.595152,113.023256 C343.790036,106.875915 353.190303,101.712148 362.343195,101.712148 C377.680473,101.712148 386.338614,110.072532 386.338614,129.252236 L386.338614,187.529029 C386.338614,200.561392 385.101737,202.036754 369.022333,203.020329 L369.022333,207.692308 L423.692308,207.692308 L423.692308,203.020329 C409.344531,201.79086 407.612903,200.315498 407.612903,187.529029 L407.612903,128.268662 C407.612903,104.908766 396.728383,91.3846154 375.206719,91.3846154 C357.890437,91.3846154 346.263791,101.220361 332.410765,111.056107 C327.710632,98.7614246 318.062989,91.3846154 302.725711,91.3846154 C285.656805,91.3846154 275.761787,99.7449992 261.908761,109.334851 L258.198129,91.630509 L225.297194,97.5319564 L225.297194,101.466255 L232.718458,102.203936 C239.15022,103.18751 240.387097,105.154659 240.387097,114.990405 L240.387097,187.529029 C240.387097,199.823711 240.881848,202.036754 224.307692,203.020329 L224.307692,207.692308 L278.977667,207.692308 Z" id="m"></path>
                <path d="M0,6.2860315 C10.6030235,7.2238743 17.2098653,9.35842097 19.8205253,12.6896715 C27.2432145,22.1611605 25.9809437,39.8189281 25.9809437,44.4336024 C25.9809437,100.967359 25.9809437,120.637663 25.9809437,162.281905 C25.9809437,169.301399 33.0663092,180.453294 38.339825,187.162535 C53.3649749,206.278311 82.0056003,217.293689 110.510431,215.878324 C130.78729,214.871506 152.256835,207.518849 166.065179,194.729146 C180.848167,181.0367 187.270361,161.420531 187.270361,146.380779 C187.270361,114.555266 187.270361,77.3291078 187.270361,39.9712784 C187.270361,15.0660588 196.846908,3.15102417 216,4.22617443 L216,0 L146.946841,0 L146.946841,4.22617443 C156.510951,5.13712697 162.88373,7.28964004 166.065179,10.6837136 C171.935851,16.9467377 175.888203,25.1997657 175.888203,39.9712784 C175.888203,80.1398316 175.888203,100.124197 175.888203,146.380779 C175.888203,161.993815 165.344449,176.89917 152.153727,185.867688 C139.037756,194.785381 123.301546,197.810514 113.826337,197.810514 C105.38051,197.810514 91.5090645,196.302431 79.708303,190.445581 C64.955524,183.123613 52.9294917,169.608773 52.9294917,150.687458 C52.9294917,105.684974 52.9294917,88.3838592 52.9294917,46.3050168 C52.9294917,32.6445039 54.2767846,21.413931 59.3596332,14.4055597 C62.9296604,9.48310809 71.5036496,6.08997967 85.0816007,4.22617443 L85.0816007,0 L0,0 L0,6.2860315 Z" id="u" stroke="#323330"></path>
            </g>
        </g>
    </g>
</svg>