<?xml version="1.0" encoding="UTF-8"?>
<svg width="880px" height="320px" viewBox="0 0 880 320" version="1.1" xmlns="http://www.w3.org/2000/svg" xmlns:xlink="http://www.w3.org/1999/xlink">
    <title>Umentor-JS-Logo-880x320</title>
    <g id="Page-1" stroke="none" stroke-width="1" fill="none" fill-rule="evenodd">
        <g id="Umentor-Logo-JS">
            <g id="layer1" transform="translate(0.000000, 308.000000)" fill="#FFFB00">
                <polygon id="yellow-line" points="12.5428306 0 880 0 880 12 0 12"></polygon>
            </g>
            <polygon id="Path-5" fill="#323330" points="320 320 320 0 0 320"></polygon>
            <g id="Logo-M" transform="translate(124.000000, 176.000000)">
                <path d="M169.889589,17.343304 C177.385808,25.0072066 182.080646,34.0642616 183.974103,44.514469 L183.973778,104.762 L184,104.758053 L183.974103,118.978631 L180.335593,120 L180.334778,118.978 L154.498844,118.978631 L154.498844,72.2368858 L154.498844,72.2368858 C154.498844,68.0132488 152.143258,63.1729222 145.321462,59.4174957 C149.096502,56.2492981 151.482564,51.5851715 151.482564,46.3845934 C151.482564,36.838741 143.443456,29.1002988 133.526714,29.1002988 C123.609971,29.1002988 115.570863,36.838741 115.570863,46.3845934 C115.570863,51.4979432 117.877554,56.0926861 121.543922,59.2572256 C117.714599,61.2911963 112.943158,65.1126114 112.943158,72.2368858 L112.943158,118.978631 L109.278751,120 L109.277778,118.978 L80.5045181,118.978631 L80.5045181,89.2264442 L80.5045181,89.2264442 C80.5045181,81.2040911 77.2453167,78.3667952 71.1874977,75.1482308 C74.9145526,71.9822702 77.2650494,67.3490514 77.2650494,62.187377 C77.2650494,52.6415247 69.2259414,44.9030824 59.3091991,44.9030824 C49.3924568,44.9030824 41.3533488,52.6415247 41.3533488,62.187377 C41.3533488,67.2525894 43.6168137,71.8089135 47.2232231,74.9702563 C41.7775621,76.6411769 37.3468566,79.6663849 37.3468566,89.2264442 L37.3468566,118.978631 L33.6824492,120 L33.6817778,118.978 L8.17777778,118.978631 L8.17777778,44.514469 C8.9704965,35.9974349 13.3946763,27.5425352 21.450317,19.1497698 C33.5337782,6.56062163 50.0292368,3.75 59.4511654,3.75 C73.2943784,3.75 85.5026366,8.88325659 96.0759401,19.1497698 C105.323941,8.88325659 117.732418,3.75 133.301371,3.75 C143.427297,3.75 158.64526,5.84745005 169.889589,17.343304 Z" id="Combined-Iron" fill="#424242"></path>
                <path d="M165.779165,16.6579747 C173.300629,24.4505724 178.011278,33.6597169 179.911111,44.2854081 L179.911111,120 L150.336588,120 L150.336588,72.4733502 L150.336588,72.4733502 C150.336588,68.1788518 147.973139,63.2573267 141.128603,59.4388616 C144.916052,56.2172928 147.31015,51.4748445 147.31015,46.1869363 C147.31015,36.4807864 139.243968,28.6123973 129.293829,28.6123973 C119.34369,28.6123973 111.277508,36.4807864 111.277508,46.1869363 C111.277508,51.3858332 113.591684,56.0574792 117.270007,59.2751399 C113.427754,61.3444324 108.640954,65.2299791 108.640954,72.4733502 L108.640954,120 L108.640954,120 L76.093069,120 L76.093069,89.7482037 L76.093069,89.7482037 C76.093069,81.5916621 72.8233132,78.7065673 66.7458469,75.4342165 C70.4843819,72.2142516 72.8426906,67.5033219 72.8426906,62.2550862 C72.8426906,52.5489364 64.7765091,44.6805472 54.8263699,44.6805472 C44.8762307,44.6805472 36.8100491,52.5489364 36.8100491,62.2550862 C36.8100491,67.4048835 39.0807205,72.0373418 42.6986965,75.2517364 C37.2351217,76.9519938 32.7900642,80.0282307 32.7900642,89.7482037 L32.7900642,120 L32.7900642,120 L3.52275171,120 L3.52275171,44.2854081 C4.3181401,35.6253528 8.7572193,27.0284752 16.8399893,18.4947753 C28.9641443,5.69422548 45.5151551,2.83640683 54.9688143,2.83640683 C68.8586475,2.83640683 81.1080199,8.05586299 91.7169314,18.4947753 C100.996077,8.05586299 113.446342,2.83640683 129.067727,2.83640683 C139.227755,2.83640683 154.496968,4.96907805 165.779165,16.6579747 Z" id="Combined-Black" fill="#FFFFFF"></path>
            </g>
            <g id="Text-Umentor" transform="translate(344.000000, 188.000000)" fill="#323330">
                <path d="M524.107023,103.846154 L524.107023,101.343308 C514.044912,100.552935 513.657907,99.762563 513.657907,93.7030411 L513.657907,62.7467881 C513.657907,53.2623191 517.398949,50.2325581 520.752986,50.2325581 C523.849021,50.2325581 525.139035,51.286388 527.203058,53.9209628 C527.719064,54.4478777 528.880076,54.9747926 530.041089,54.9747926 C533.137124,54.9747926 535.846154,51.6815742 535.846154,47.7297121 C535.846154,44.8316799 534.040134,41.5384615 529.267081,41.5384615 C525.010033,41.5384615 521.526995,44.8316799 513.657907,52.0767604 L512.238892,41.6701903 L494.823698,44.8316799 L494.823698,46.9393397 L498.435738,47.3345259 C501.402771,47.8614409 502.563784,49.0469995 502.563784,53.3940478 L502.563784,93.7030411 C502.563784,99.8942918 502.305781,100.816393 494.307692,101.343308 L494.307692,103.846154 L524.107023,103.846154 Z" id="r"></path>
                <path d="M452.835165,45.6923077 C473.010989,45.6923077 481.846154,57.3830293 481.846154,76.9103886 C481.846154,96.4377478 473.010989,108 452.703297,108 C432.791209,108 423.692308,96.4377478 423.692308,76.9103886 C423.692308,57.3830293 432.791209,45.6923077 452.703297,45.6923077 L452.703297,45.6923077 Z M453.297902,49.5865385 C442.195804,49.5865385 436.909091,60.9840031 436.909091,78.1442308 L436.909091,78.1442308 L436.909091,78.2722922 C436.909091,95.4325198 442.195804,106.701923 453.297902,106.701923 C464.796503,106.701923 469.951049,95.4325198 469.951049,78.1442308 C469.951049,61.1120645 464.796503,49.5865385 453.297902,49.5865385 Z" id="o"></path>
                <path d="M412.615745,92.3930252 L411.193942,90.3389001 C408.006675,94.1228963 405.413757,96.29607 403.415187,96.8584213 C397.756691,98.4505916 393.98733,95.5189962 393.98733,90.3389001 C393.98733,81.2347039 393.98733,68.3777877 393.98733,51.7681515 L415.384615,51.7681515 L415.384615,46.7779277 L393.98733,46.7779277 L393.98733,24.9230769 L391.03346,24.9230769 C387.867178,34.0007356 385.015293,39.9792085 382.477804,42.8584958 C379.940315,45.737783 375.678483,47.8312416 369.692308,49.1388714 L369.692308,51.7681515 L382.477804,51.7681515 C382.477804,73.1341172 382.477804,86.6757418 382.477804,92.3930252 C382.477804,101.145838 386.191706,103.845823 392.538462,103.845823 C394.960716,103.845823 398.445878,103.933399 403.415187,101.257232 C405.889207,99.924876 408.95606,96.9701404 412.615745,92.3930252 Z" id="t"></path>
                <path d="M322.765073,103.846154 L322.765073,101.510164 C314.938521,100.89543 314.297,100.649537 314.297,93.7645146 L314.297,64.2572776 C314.297,61.5524476 314.553609,59.8311921 315.580042,57.9869898 C317.504604,54.1756383 323.278289,50.8560742 329.565192,50.8560742 C337.263439,50.8560742 342.010692,54.7903724 342.010692,64.5031712 L342.010692,93.7645146 C342.010692,100.649537 341.497475,101.018377 333.414315,101.510164 L333.414315,103.846154 L361.384615,103.846154 L361.384615,101.510164 C353.429759,100.89543 353.044847,100.52659 353.044847,93.7645146 L353.044847,64.1343308 C353.044847,52.4543828 347.142857,45.6923077 335.980398,45.6923077 C327.255717,45.6923077 321.73864,50.2413401 314.168696,54.7903724 L312.500743,45.8152545 L295.436293,48.7659782 L295.436293,50.7331273 L299.285417,51.1019678 C302.863129,51.5748402 303.237982,52.2750551 303.261524,56.9187878 L303.262845,93.7645146 C303.262845,100.403643 302.749629,101.018377 294.923077,101.510164 L294.923077,103.846154 L322.765073,103.846154 Z" id="n"></path>
                <path d="M253.353147,45.6923077 C276.807692,45.6923077 278.307692,62.8741656 278.307692,70.0546435 C278.307692,72.2344314 277.625874,74.5424422 272.98951,74.5424422 L272.98951,74.5424422 L237.398601,74.5424422 C237.125874,87.2365014 240.534965,102.879685 256.353147,102.879685 C264.056486,102.879685 270.449035,100.052996 275.530794,94.3996166 L275.530794,94.3996166 L277.269231,96.9285774 C270.519231,102.879685 267.419259,106.893263 253.48951,107.880375 C231.984726,109.404282 224.307692,96.2120988 224.307692,77.2351214 C224.307692,59.2839266 233.034965,45.6923077 253.353147,45.6923077 Z M252.167886,48.1846154 C239.198811,48.1846154 237.478424,66.6862547 237.478424,71.8615385 L237.478424,71.8615385 L260.240473,71.8615385 C264.607611,71.8615385 265.136961,69.1445145 265.136961,65.5218159 L265.136961,65.5218159 L265.135093,65.1831493 C265.078797,60.0593997 263.684189,48.1846154 252.167886,48.1846154 Z" id="e"></path>
                <path d="M139.488834,103.846154 L139.488834,101.510164 C131.449132,100.89543 130.830693,100.157749 130.830693,93.7645146 L130.830693,64.3802244 C130.830693,61.5524476 131.078068,59.9541389 132.06757,58.1099366 C133.799198,54.1756383 139.117771,50.8560742 145.178469,50.8560742 C152.476045,50.8560742 156.681428,54.7903724 156.681428,64.6261181 L156.681428,93.7645146 C156.681428,100.280696 156.062989,101.018377 148.023287,101.510164 L148.023287,103.846154 L175.853025,103.846154 L175.853025,101.510164 C168.184386,100.89543 167.194885,100.280696 167.194885,93.7645146 L167.194885,64.3802244 C167.194885,59.0935111 167.937011,58.2328834 169.297576,56.5116279 C171.895018,53.4379574 176.595152,50.8560742 181.171598,50.8560742 C188.840237,50.8560742 193.169307,55.0362661 193.169307,64.6261181 L193.169307,93.7645146 C193.169307,100.280696 192.550868,101.018377 184.511166,101.510164 L184.511166,103.846154 L211.846154,103.846154 L211.846154,101.510164 C204.672266,100.89543 203.806452,100.157749 203.806452,93.7645146 L203.806452,64.1343308 C203.806452,52.4543828 198.364192,45.6923077 187.603359,45.6923077 C178.945219,45.6923077 173.131895,50.6101805 166.205383,55.5280533 C163.855316,49.3807123 159.031495,45.6923077 151.362856,45.6923077 C142.828402,45.6923077 137.880893,49.8724996 130.954381,54.6674256 L129.099065,45.8152545 L112.648597,48.7659782 L112.648597,50.7331273 L116.359229,51.1019678 C119.57511,51.5937551 120.193548,52.5773296 120.193548,57.4952025 L120.193548,93.7645146 C120.193548,99.9118556 120.440924,101.018377 112.153846,101.510164 L112.153846,103.846154 L139.488834,103.846154 Z" id="m"></path>
                <path d="M0,3.14301575 C5.30151176,3.61193715 8.60493264,4.67921049 9.91026265,6.34483576 C13.6216073,11.0805803 12.9904719,19.9094641 12.9904719,22.2168012 C12.9904719,50.4836794 12.9904719,60.3188315 12.9904719,81.1409527 C12.9904719,84.6506997 16.5331546,90.2266472 19.1699125,93.5812676 C26.6824874,103.139156 41.0028002,108.646845 55.2552156,107.939162 C65.3936448,107.435753 76.1284175,103.759424 83.0325895,97.3645732 C90.4240835,90.5183499 93.6351807,80.7102656 93.6351807,73.1903897 C93.6351807,57.2776328 93.6351807,38.6645539 93.6351807,19.9856392 C93.6351807,7.53302942 98.4234538,1.57551208 108,2.11308721 L108,0 L73.4734207,0 L73.4734207,2.11308721 C78.2554754,2.56856348 81.441865,3.64482002 83.0325895,5.34185682 C85.9679254,8.47336883 87.9441016,12.5998828 87.9441016,19.9856392 C87.9441016,40.0699158 87.9441016,50.0620986 87.9441016,73.1903897 C87.9441016,80.9969073 82.6722245,88.449585 76.0768633,92.9338438 C69.5188778,97.3926904 61.6507732,98.9052569 56.9131687,98.9052569 C52.690255,98.9052569 45.7545322,98.1512153 39.8541515,95.2227906 C32.477762,91.5618064 26.4647459,84.8043864 26.4647459,75.3437289 C26.4647459,52.8424871 26.4647459,44.1919296 26.4647459,23.1525084 C26.4647459,16.3222519 27.1383923,10.7069655 29.6798166,7.20277984 C31.4648302,4.74155405 35.7518248,3.04498984 42.5408004,2.11308721 L42.5408004,0 L0,0 L0,3.14301575 Z" id="u" stroke="#323330"></path>
            </g>
        </g>
    </g>
</svg>