<?xml version="1.0" encoding="UTF-8"?>
<svg width="1187px" height="243px" viewBox="0 0 1187 243" version="1.1" xmlns="http://www.w3.org/2000/svg" xmlns:xlink="http://www.w3.org/1999/xlink">
    <title>umentor-line</title>
    <g id="Page-1" stroke="none" stroke-width="1" fill="none" fill-rule="evenodd">
        <polygon id="Path-4" fill="#FFFB00" points="0 212.846809 1187 212.846809 1187 242.846809 0 242.846809"></polygon>
        <g id="Logo-Umentor">
            <g id="Logo-M">
                <path d="M209.039781,9.36559146 C224.531988,9.36559146 247.814779,12.7219585 265.01809,31.1177743 C276.486965,43.3816516 283.669853,57.8748695 286.566755,74.597428 L286.566377,171.006591 L286.606377,171 L286.566755,193.755954 L281,195.390362 L280.999377,193.755591 L241.47095,193.755954 L241.47095,118.959202 L241.47095,118.959202 C241.47095,112.200327 237.866845,104.454571 227.42925,98.4450298 C233.20588,93.3751099 236.856179,85.9117548 236.856179,77.5900255 C236.856179,62.3146277 224.556709,49.9314712 209.384545,49.9314712 C194.212381,49.9314712 181.912911,62.3146277 181.912911,77.5900255 C181.912911,85.7720928 185.441714,93.1243562 191.050633,98.188271 C185.191854,101.4445 177.892642,107.559528 177.892642,118.959202 L177.892642,193.755954 L172.286265,195.390362 L172.285377,193.755591 L128.262998,193.755954 L128.262998,146.146116 L128.262998,146.146116 C128.262998,133.309265 123.277053,128.768804 114.009732,123.618725 C119.711067,118.550813 123.306759,111.137096 123.306759,102.877847 C123.306759,87.6024488 111.007289,75.2192923 95.8351247,75.2192923 C80.6629602,75.2192923 68.3634908,87.6024488 68.3634908,102.877847 C68.3634908,110.98305 71.8263052,118.273968 77.3436917,123.332774 C69.0117744,126.007537 62.2337401,130.848823 62.2337401,146.146116 L62.2337401,193.755954 L56.6273634,195.390362 L56.6263766,193.755591 L17.6063766,193.755954 L17.6063766,74.597428 C18.8192002,60.9683587 25.5879939,47.4387176 37.9127578,34.0085045 C56.3999036,13.863185 81.6372046,9.36559146 96.0523267,9.36559146 C117.231813,9.36559146 135.909892,17.5798958 152.086566,34.0085045 C166.235586,17.5798958 185.219991,9.36559146 209.039781,9.36559146 Z" id="Combined-Iron" fill="#5E5E5E"></path>
                <path d="M203.433404,11 C218.925611,11 242.208402,14.356367 259.411714,32.7521829 C270.880588,45.0160601 278.063476,59.509278 280.960378,76.2318365 L280.960378,195.390362 L235.864574,195.390362 L235.864574,120.593611 L235.864574,120.593611 C235.864574,113.834735 232.260468,106.08898 221.822874,100.079438 C227.599503,95.0095185 231.249802,87.5461633 231.249802,79.224434 C231.249802,63.9490363 218.950333,51.5658797 203.778168,51.5658797 C188.606004,51.5658797 176.306534,63.9490363 176.306534,79.224434 C176.306534,87.4065014 179.835338,94.7587647 185.444256,99.8226795 C179.585631,103.07878 172.286265,109.193817 172.286265,120.593611 L172.286265,195.390362 L172.286265,195.390362 L122.656622,195.390362 L122.656622,147.780524 L122.656622,147.780524 C122.656622,134.943648 117.670656,130.403195 108.403299,125.253102 C114.104661,120.185281 117.700382,112.771538 117.700382,104.512255 C117.700382,89.2368574 105.400913,76.8537008 90.2287481,76.8537008 C75.0565836,76.8537008 62.7571141,89.2368574 62.7571141,104.512255 C62.7571141,112.617459 66.2199285,119.908376 71.737315,124.967183 C63.4053709,127.641965 56.6273634,132.483261 56.6273634,147.780524 L56.6273634,195.390362 L56.6273634,195.390362 L12,195.390362 L12,76.2318365 C13.2128236,62.6027673 19.9816173,49.0731261 32.3063811,35.6429131 C50.7935269,15.4975935 76.030828,11 90.44595,11 C111.625436,11 130.303516,19.2143044 146.480189,35.6429131 C160.629209,19.2143044 179.613614,11 203.433404,11 Z" id="Combined-Black" fill="#323330"></path>
            </g>
            <g id="Text-Umentor" transform="translate(327.000000, 30.000000)" fill="#323330">
                <path d="M840.749075,158.263773 L840.749075,154.401098 C824.734806,153.181306 824.118873,151.961514 824.118873,142.609776 L824.118873,94.8345904 C824.118873,80.1970868 830.072896,75.5212175 835.410985,75.5212175 C840.338452,75.5212175 842.391564,77.1476068 845.676542,81.2135801 C846.497786,82.0267747 848.345586,82.8399694 850.193386,82.8399694 C855.120854,82.8399694 859.432387,77.7575028 859.432387,71.658543 C859.432387,67.1859724 856.558032,62.1035058 848.96152,62.1035058 C842.186252,62.1035058 836.642852,67.1859724 824.118873,78.3673988 L821.860451,62.3068045 L794.143448,67.1859724 L794.143448,70.438751 L799.89216,71.048647 C804.614316,71.8618416 806.462116,73.6915296 806.462116,80.4003854 L806.462116,142.609776 C806.462116,152.164813 806.051494,153.587904 793.322204,154.401098 L793.322204,158.263773 L840.749075,158.263773 Z" id="r"></path>
                <path d="M731.318638,66.1101836 C761.900219,66.1101836 775.292154,84.1526255 775.292154,114.289451 C775.292154,144.426277 761.900219,162.270451 731.118758,162.270451 C700.936936,162.270451 687.145242,144.426277 687.145242,114.289451 C687.145242,84.1526255 700.936936,66.1101836 731.118758,66.1101836 L731.118758,66.1101836 Z M732.020033,72.1202003 C715.191987,72.1202003 707.178631,89.7100549 707.178631,116.193656 L707.178631,116.193656 L707.178631,116.391295 C707.178631,142.874896 715.191987,160.267112 732.020033,160.267112 C749.449082,160.267112 757.262104,142.874896 757.262104,116.193656 C757.262104,89.9076937 749.449082,72.1202003 732.020033,72.1202003 Z" id="o"></path>
                <path d="M662.741501,143.954217 L660.497344,140.669376 C655.466599,146.720529 651.373967,150.195745 648.219449,151.095025 C639.288144,153.641134 633.33863,148.953092 633.33863,140.669376 C633.33863,126.110462 633.33863,105.55041 633.33863,78.9892217 L667.111853,78.9892217 L667.111853,71.0091386 L633.33863,71.0091386 L633.33863,36.0601002 L628.676276,36.0601002 C623.678654,50.5765773 619.177272,60.1370123 615.172129,64.7414053 C611.166987,69.3457982 604.440161,72.6935385 594.991653,74.784626 L594.991653,78.9892217 L615.172129,78.9892217 C615.172129,113.156463 615.172129,134.811461 615.172129,143.954217 C615.172129,157.951218 621.034109,162.268882 631.051753,162.268882 C634.875011,162.268882 640.37595,162.408928 648.219449,158.129354 C652.124413,155.998726 656.965097,151.27368 662.741501,143.954217 Z" id="t"></path>
                <path d="M522.438298,160.267112 L522.438298,156.48491 C510.170748,155.489593 509.165211,155.091467 509.165211,143.943923 L509.165211,96.1687379 C509.165211,91.7893459 509.567426,89.0024601 511.176285,86.016511 C514.192895,79.8455495 523.242728,74.4708411 533.096989,74.4708411 C545.163432,74.4708411 552.604405,80.8408659 552.604405,96.5668644 L552.604405,143.943923 C552.604405,155.091467 551.799976,155.688657 539.130211,156.48491 L539.130211,160.267112 L582.971619,160.267112 L582.971619,156.48491 C570.502962,155.489593 569.89964,154.892403 569.89964,143.943923 L569.89964,95.9696746 C569.89964,77.0586637 560.6487,66.1101836 543.152358,66.1101836 C529.477056,66.1101836 520.829439,73.4755247 508.964104,80.8408659 L506.349708,66.3092469 L479.602426,71.0867655 L479.602426,74.2717778 L485.635648,74.8689677 C491.24345,75.6345956 491.831004,76.768314 491.867905,84.2869845 L491.869976,143.943923 C491.869976,154.69334 491.065547,155.688657 478.797997,156.48491 L478.797997,160.267112 L522.438298,160.267112 Z" id="n"></path>
                <path d="M410.790712,66.1101836 C446.466333,66.1101836 448.747913,93.7320414 448.747913,105.275504 L448.747055,105.447994 C448.712294,108.900425 447.595222,112.490169 440.658674,112.490169 L440.658674,112.490169 L386.522993,112.490169 C386.10816,132.897362 391.29357,158.045621 415.353873,158.045621 C427.071064,158.045621 436.794474,153.501384 444.524103,144.412912 L444.524103,144.412912 L447.168358,148.478514 C436.901246,158.045621 432.186023,164.497919 410.998128,166.084818 C378.288198,168.534677 366.611018,147.326691 366.611018,116.818967 C366.611018,87.9603099 379.885668,66.1101836 410.790712,66.1101836 Z M408.987867,70.1168614 C389.261209,70.1168614 386.644407,99.8604231 386.644407,108.180301 L386.644407,108.180301 L421.266704,108.180301 C427.909355,108.180301 428.714524,103.812365 428.714524,97.9884507 L428.714524,97.9884507 L428.711683,97.4440043 C428.626055,89.2069742 426.504781,70.1168614 408.987867,70.1168614 Z" id="e"></path>
                <path d="M226.248048,162.270451 L226.248048,158.488249 C213.323281,157.492932 212.329068,156.298553 212.329068,145.947262 L212.329068,98.3711401 C212.329068,93.7926848 212.726753,91.2048622 214.317494,88.2189131 C217.10129,81.8488884 225.65152,76.47418 235.394806,76.47418 C247.126518,76.47418 253.887165,82.8442048 253.887165,98.7692666 L253.887165,145.947262 C253.887165,156.497616 252.892952,157.691995 239.968185,158.488249 L239.968185,162.270451 L284.707764,162.270451 L284.707764,158.488249 C272.379524,157.492932 270.788784,156.497616 270.788784,145.947262 L270.788784,98.3711401 C270.788784,89.8114193 271.981839,88.4179764 274.169107,85.6310906 C278.344801,80.6545087 285.900819,76.47418 293.257994,76.47418 C305.586233,76.47418 312.545723,83.2423313 312.545723,98.7692666 L312.545723,145.947262 C312.545723,156.497616 311.551511,157.691995 298.626743,158.488249 L298.626743,162.270451 L342.570952,162.270451 L342.570952,158.488249 C331.038082,157.492932 329.646185,156.298553 329.646185,145.947262 L329.646185,97.9730135 C329.646185,79.0620026 320.897111,68.1135225 303.597808,68.1135225 C289.678828,68.1135225 280.333227,76.0760535 269.198043,84.0385844 C265.420034,74.0854207 257.665174,68.1135225 245.336935,68.1135225 C231.616797,68.1135225 223.663094,74.8816738 212.52791,82.6451415 L209.545272,68.3125858 L183.09921,73.0901044 L183.09921,76.2751167 L189.064487,76.8723066 C194.234394,77.6685597 195.228607,79.2610658 195.228607,87.2235968 L195.228607,145.947262 C195.228607,155.900426 195.626292,157.691995 182.30384,158.488249 L182.30384,162.270451 L226.248048,162.270451 Z" id="m"></path>
                <path d="M0.53308241,5.90921851 C8.95553215,6.61909706 14.2036383,8.23479309 16.2774008,10.7563066 C22.1735706,17.9255325 21.1708932,31.2911737 21.1708932,34.7841453 C21.1708932,77.5760725 21.1708932,92.465057 21.1708932,123.986709 C21.1708932,129.299954 26.7991118,137.741124 30.9880982,142.81953 C42.9232382,157.288777 65.6737516,165.626614 88.3163974,164.555286 C104.423201,163.793198 121.477409,158.227773 132.445987,148.546902 C144.188767,138.182719 149.290199,123.334712 149.290199,111.950717 C149.290199,87.8611262 149.290199,59.6836419 149.290199,31.4064918 C149.290199,12.5550584 156.897273,3.53624678 172.11142,4.35005705 L172.11142,1.15115148 L117.259447,1.15115148 L117.259447,4.35005705 C124.856641,5.03958164 129.918821,6.66887692 132.445987,9.23794291 C137.10932,13.9785949 140.248848,20.2255348 140.248848,31.4064918 C140.248848,61.8111546 140.248848,76.9378607 140.248848,111.950717 C140.248848,123.768645 131.873479,135.050911 121.395506,141.839425 C110.976911,148.589467 98.4769449,150.879272 90.9503681,150.879272 C84.2414744,150.879272 73.2227728,149.737763 63.8489069,145.304556 C52.1301232,139.76236 42.5773147,129.532613 42.5773147,115.210558 C42.5773147,81.146963 42.5773147,68.0512818 42.5773147,36.2006694 C42.5773147,25.8606582 43.647529,17.3599342 47.68506,12.0551087 C50.5208902,8.32917214 57.3315884,5.76082159 68.1171545,4.35005705 L68.1171545,1.15115148 L0.53308241,1.15115148 L0.53308241,5.90921851 Z" id="u" stroke="#323330"></path>
            </g>
        </g>
    </g>
</svg>