<?xml version="1.0" encoding="UTF-8"?>
<svg width="165px" height="60px" viewBox="0 0 165 60" version="1.1" xmlns="http://www.w3.org/2000/svg" xmlns:xlink="http://www.w3.org/1999/xlink">
    <title>Umentor-JS-Logo-165x60</title>
    <g id="Page-1" stroke="none" stroke-width="1" fill="none" fill-rule="evenodd">
        <g id="Umentor-Logo-JS">
            <g id="layer1" transform="translate(0.000000, 57.750000)" fill="#FFFB00">
                <polygon id="yellow-line" points="2.35178074 0 165 0 165 2.25 0 2.25"></polygon>
            </g>
            <polygon id="Path-5" fill="#323330" points="60 60 60 0 0 60"></polygon>
            <g id="Logo-M" transform="translate(23.250000, 33.000000)">
                <path d="M24.9940071,0.703125 C26.8926183,0.703125 29.7459863,1.09639688 31.854298,3.2518695 C33.2598391,4.68885124 34.1401212,6.38704905 34.4951442,8.34646293 L34.4943333,19.643125 L34.5,19.642135 L34.4951442,22.3084933 L33.8129236,22.5 L33.8123333,22.308125 L28.9685333,22.3084933 L28.9685333,13.5444161 L28.9685333,13.5444161 C28.9685333,12.7526316 28.5270254,11.8452609 27.2484887,11.1411739 C27.9553768,10.5471682 28.4029807,9.67245647 28.4029807,8.69711125 C28.4029807,6.90726394 26.895648,5.45630602 25.0362588,5.45630602 C23.1768696,5.45630602 21.6695369,6.90726394 21.6695369,8.69711125 C21.6695369,9.65609162 22.1022465,10.5177871 22.7899742,11.1111517 C22.0726346,11.491181 21.1768422,12.2077584 21.1768422,13.5444161 L21.1768422,22.3084933 L20.4897658,22.5 L20.4893333,22.308125 L15.0945971,22.3084933 L15.0945971,16.7299583 L15.0945971,16.7299583 C15.0945971,15.2255655 14.483333,14.6936315 13.347199,14.0900506 C14.0464329,13.4967658 14.4871968,12.6279973 14.4871968,11.6601332 C14.4871968,9.87028588 12.979864,8.41932795 11.1204748,8.41932795 C9.26108565,8.41932795 7.7537529,9.87028588 7.7537529,11.6601332 C7.7537529,12.6102298 8.17848265,13.4648356 8.85514317,14.0576143 C7.83394271,14.3697773 7.00253562,14.9367463 7.00253562,16.7299583 L7.00253562,22.3084933 L6.31545923,22.5 L6.31533333,22.308125 L1.53333333,22.3084933 L1.53333333,8.34646293 C1.68196809,6.74951905 2.5115018,5.16422535 4.02193444,3.59058183 C6.28758341,1.23011656 9.38048189,0.703125 11.1470935,0.703125 C13.7426959,0.703125 16.0317444,1.66561061 18.0142388,3.59058183 C19.7482389,1.66561061 22.0748283,0.703125 24.9940071,0.703125 Z" id="Combined-Iron" fill="#424242"></path>
                <path d="M24.2001989,0.53182628 C26.1052041,0.53182628 28.9681815,0.931702134 31.0835934,3.12337025 C32.493868,4.58448233 33.3771147,6.31119692 33.7333333,8.30351402 L33.7333333,22.5 L28.1881102,22.5 L28.1881102,13.5887532 L28.1881102,13.5887532 C28.1881102,12.7835972 27.7450324,11.860892 26.4619119,11.1449533 C27.1713669,10.5415206 27.6206531,9.65196721 27.6206531,8.66005056 C27.6206531,6.84014746 26.108244,5.3648245 24.2425929,5.3648245 C22.3769418,5.3648245 20.8645328,6.84014746 20.8645328,8.66005056 C20.8645328,9.63480169 21.2984034,10.5107018 21.988037,11.1140107 C21.2681603,11.5017107 20.3701788,12.2302758 20.3701788,13.5887532 L20.3701788,22.5 L20.3701788,22.5 L14.2674504,22.5 L14.2674504,16.8277882 L14.2674504,16.8277882 C14.2674504,15.2984796 13.6544056,14.7575117 12.5149423,14.1439673 C13.2162376,13.539341 13.6580045,12.6564099 13.6580045,11.6728287 C13.6580045,9.85292557 12.1455954,8.37760261 10.2799443,8.37760261 C8.41429325,8.37760261 6.90188421,9.85292557 6.90188421,11.6728287 C6.90188421,12.6386291 7.32782332,13.5073856 8.00645548,14.1101002 C6.98189428,14.4282851 6.14813703,15.0049555 6.14813703,16.8277882 L6.14813703,22.5 L6.14813703,22.5 L0.660515946,22.5 L0.660515946,8.30351402 C0.809651269,6.67975365 1.64197862,5.06783911 3.15749799,3.46777037 C5.43077706,1.06766728 8.53409159,0.53182628 10.3066527,0.53182628 C12.9109964,0.53182628 15.2077537,1.51047431 17.1969246,3.46777037 C18.9367644,1.51047431 21.2711891,0.53182628 24.2001989,0.53182628 Z" id="Combined-Black" fill="#FFFFFF"></path>
            </g>
            <g id="Text-Umentor" transform="translate(64.500000, 35.250000)" fill="#323330">
                <path d="M98.2700669,19.4711538 L98.2700669,19.0018702 C96.3834209,18.8536754 96.3108576,18.7054806 96.3108576,17.5693202 L96.3108576,11.7650228 C96.3108576,9.98668483 97.0123029,9.41860465 97.6411849,9.41860465 C98.2216914,9.41860465 98.463569,9.61619776 98.8505733,10.1101805 C98.9473244,10.2089771 99.1650143,10.3077736 99.3827043,10.3077736 C99.9632107,10.3077736 100.471154,9.69029517 100.471154,8.94932103 C100.471154,8.40593999 100.132525,7.78846154 99.2375776,7.78846154 C98.4393813,7.78846154 97.7863115,8.40593999 96.3108576,9.76439258 L96.0447922,7.81316068 L92.7794434,8.40593999 L92.7794434,8.8011262 L93.4567009,8.87522361 C94.0130196,8.97402017 94.2307095,9.19631241 94.2307095,10.011384 L94.2307095,17.5693202 C94.2307095,18.7301797 94.182334,18.9030737 92.6826923,19.0018702 L92.6826923,19.4711538 L98.2700669,19.4711538 Z" id="r"></path>
                <path d="M84.9065934,8.56730769 C88.6895604,8.56730769 90.3461538,10.759318 90.3461538,14.4206979 C90.3461538,18.0820777 88.6895604,20.25 84.8818681,20.25 C81.1483516,20.25 79.4423077,18.0820777 79.4423077,14.4206979 C79.4423077,10.759318 81.1483516,8.56730769 84.8818681,8.56730769 L84.8818681,8.56730769 Z M84.9933566,9.29747596 C82.9117133,9.29747596 81.9204545,11.4345006 81.9204545,14.6520433 L81.9204545,14.6520433 L81.9204545,14.6760548 C81.9204545,17.8935975 82.9117133,20.0066106 84.9933566,20.0066106 C87.1493444,20.0066106 88.1158217,17.8935975 88.1158217,14.6520433 C88.1158217,11.4585121 87.1493444,9.29747596 84.9933566,9.29747596 Z" id="o"></path>
                <path d="M77.3654522,17.3236922 L77.0988642,16.9385438 C76.5012516,17.6480431 76.0150794,18.0555131 75.6403476,18.160954 C74.5793795,18.4594859 73.8726243,17.9098118 73.8726243,16.9385438 C73.8726243,15.231507 73.8726243,12.8208352 73.8726243,9.70652841 L77.8846154,9.70652841 L77.8846154,8.77086144 L73.8726243,8.77086144 L73.8726243,4.67307692 L73.3187738,4.67307692 C72.7250959,6.37513792 72.1903673,7.4961016 71.7145882,8.03596796 C71.238809,8.57583432 70.4397155,8.96835779 69.3173077,9.21353839 L69.3173077,9.70652841 L71.7145882,9.70652841 C71.7145882,13.712647 71.7145882,16.2517016 71.7145882,17.3236922 C71.7145882,18.9648445 72.410945,19.4710919 73.6009615,19.4710919 C74.0551343,19.4710919 74.7086021,19.4875123 75.6403476,18.985731 C76.1042264,18.7359143 76.6792612,18.1819013 77.3654522,17.3236922 Z" id="t"></path>
                <path d="M60.5184511,19.4711538 L60.5184511,19.0331558 C59.0509727,18.9178932 58.9306876,18.8717881 58.9306876,17.5808465 L58.9306876,12.0482396 C58.9306876,11.5410839 58.9788016,11.2183485 59.1712578,10.8725606 C59.5321132,10.1579322 60.6146792,9.5355139 61.7934734,9.5355139 C63.2368949,9.5355139 64.1270048,10.2731948 64.1270048,12.0943446 L64.1270048,17.5808465 C64.1270048,18.8717881 64.0307767,18.9409457 62.5151841,19.0331558 L62.5151841,19.4711538 L67.7596154,19.4711538 L67.7596154,19.0331558 C66.2680799,18.9178932 66.1959088,18.8487356 66.1959088,17.5808465 L66.1959088,12.025187 C66.1959088,9.83519678 65.0892857,8.56730769 62.9963246,8.56730769 C61.360447,8.56730769 60.325995,9.42025126 58.9066305,10.2731948 L58.5938892,8.59036022 L55.394305,9.14362091 L55.394305,9.51246138 L56.1160157,9.58161896 C56.7868366,9.67028253 56.8571215,9.80157283 56.8615357,10.6722727 L56.8617835,17.5808465 C56.8617835,18.825683 56.7655554,18.9409457 55.2980769,19.0331558 L55.2980769,19.4711538 L60.5184511,19.4711538 Z" id="n"></path>
                <path d="M47.503715,8.56730769 C51.9014423,8.56730769 52.1826923,11.788906 52.1826923,13.1352457 C52.1826923,13.5439559 52.0548514,13.9767079 51.1855332,13.9767079 L51.1855332,13.9767079 L44.5122378,13.9767079 C44.4611014,16.356844 45.1003059,19.289941 48.066215,19.289941 C49.510591,19.289941 50.709194,18.7599367 51.6620239,17.6999281 L51.6620239,17.6999281 L51.9879808,18.1741083 C50.7223558,19.289941 50.1411111,20.0424869 47.5292832,20.2275704 C43.4971361,20.5133029 42.0576923,18.0397685 42.0576923,14.4815853 C42.0576923,11.1157362 43.6940559,8.56730769 47.503715,8.56730769 Z M47.2814786,9.03461538 C44.8497771,9.03461538 44.5272045,12.5036728 44.5272045,13.4740385 L44.5272045,13.4740385 L48.7950887,13.4740385 C49.613927,13.4740385 49.7131801,12.9645965 49.7131801,12.2853405 L49.7131801,12.2853405 L49.7128299,12.2218405 C49.7022745,11.2611375 49.4407854,9.03461538 47.2814786,9.03461538 Z" id="e"></path>
                <path d="M26.1541563,19.4711538 L26.1541563,19.0331558 C24.6467122,18.9178932 24.5307549,18.779578 24.5307549,17.5808465 L24.5307549,12.0712921 C24.5307549,11.5410839 24.5771378,11.241401 24.7626694,10.8956131 C25.0873497,10.1579322 26.084582,9.5355139 27.220963,9.5355139 C28.5892584,9.5355139 29.3777677,10.2731948 29.3777677,12.1173971 L29.3777677,17.5808465 C29.3777677,18.8026305 29.2618105,18.9409457 27.7543663,19.0331558 L27.7543663,19.4711538 L32.9724423,19.4711538 L32.9724423,19.0331558 C31.5345724,18.9178932 31.3490408,18.8026305 31.3490408,17.5808465 L31.3490408,12.0712921 C31.3490408,11.0800333 31.4881895,10.9186656 31.7432955,10.5959302 C32.2303159,10.019617 33.111591,9.5355139 33.9696746,9.5355139 C35.4075444,9.5355139 36.2192451,10.3192999 36.2192451,12.1173971 L36.2192451,17.5808465 C36.2192451,18.8026305 36.1032878,18.9409457 34.5958437,19.0331558 L34.5958437,19.4711538 L39.7211538,19.4711538 L39.7211538,19.0331558 C38.3760498,18.9178932 38.2137097,18.779578 38.2137097,17.5808465 L38.2137097,12.025187 C38.2137097,9.83519678 37.1932859,8.56730769 35.1756299,8.56730769 C33.5522285,8.56730769 32.4622304,9.48940885 31.1635093,10.41151 C30.7228717,9.25888356 29.8184052,8.56730769 28.3805354,8.56730769 C26.7803254,8.56730769 25.8526675,9.35109367 24.5539464,10.2501423 L24.2060746,8.59036022 L21.1216119,9.14362091 L21.1216119,9.51246138 L21.8173554,9.58161896 C22.4203331,9.67382908 22.5362903,9.85824931 22.5362903,10.7803505 L22.5362903,17.5808465 C22.5362903,18.7334729 22.5826732,18.9409457 21.0288462,19.0331558 L21.0288462,19.4711538 L26.1541563,19.4711538 Z" id="m"></path>
                <path d="M0,0.589315453 C0.994033454,0.677238216 1.61342487,0.877351966 1.85817425,1.1896567 C2.55405136,2.0776088 2.43571347,3.73302451 2.43571347,4.16565023 C2.43571347,9.46568988 2.43571347,11.3097809 2.43571347,15.2139286 C2.43571347,15.8720062 3.09996648,16.9174964 3.59435859,17.5464877 C5.00296639,19.3385917 7.68802503,20.3712834 10.3603529,20.2385928 C12.2613084,20.1442037 14.2740783,19.4548921 15.5686105,18.2558575 C16.9545156,16.9721906 17.5565964,15.1331748 17.5565964,13.7231981 C17.5565964,10.7395561 17.5565964,7.24960386 17.5565964,3.74730735 C17.5565964,1.41244302 18.4543976,0.295408516 20.25,0.396203853 L20.25,0 L13.7762664,0 L13.7762664,0.396203853 C14.6729016,0.481605653 15.2703497,0.683403754 15.5686105,1.00159815 C16.118986,1.58875666 16.4895191,2.36247803 16.4895191,3.74730735 C16.4895191,7.51310921 16.4895191,9.38664348 16.4895191,13.7231981 C16.4895191,15.1869201 15.5010421,16.5842972 14.2644119,17.4250957 C13.0347896,18.2611295 11.55952,18.5447357 10.6712191,18.5447357 C9.87942281,18.5447357 8.57897479,18.4033529 7.4726534,17.8542732 C6.08958038,17.1678387 4.96213985,15.9008225 4.96213985,14.1269492 C4.96213985,9.90796633 4.96213985,8.2859868 4.96213985,4.34109533 C4.96213985,3.06042224 5.08844856,2.00755603 5.56496561,1.35052122 C5.89965566,0.889041383 6.70346715,0.570935595 7.97640007,0.396203853 L7.97640007,0 L0,0 L0,0.589315453 Z" id="u" stroke="#323330"></path>
            </g>
        </g>
    </g>
</svg>