<?xml version="1.0" encoding="UTF-8"?>
<svg width="1080px" height="1080px" viewBox="0 0 1080 1080" version="1.1" xmlns="http://www.w3.org/2000/svg" xmlns:xlink="http://www.w3.org/1999/xlink">
    <title>umentor-profil 2</title>
    <g id="Page-1" stroke="none" stroke-width="1" fill="none" fill-rule="evenodd">
        <g id="umentor-profil">
            <rect id="Rectangle" fill="#323330" x="0.0523974578" y="1.22781785e-14" width="1079.9476" height="1080"></rect>
            <path d="M783.610994,161.662117 L881.370716,232.109656 C895.510515,239.285672 901.619686,257.200827 894.768998,272.071079 C846.749297,376.289715 652.722156,315.918658 589.214022,303.813217 C576.800162,301.446992 566.079031,301.929808 556.391566,304.654853 L603.071745,352.302818 C605.097945,354.370037 603.314704,357.94503 600.5485,357.350497 C571.422221,351.092311 530.558818,360.897225 466.088561,435.084165 C454.511691,448.40578 441.972533,459.296168 428.895069,468.155533 C489.971595,475.208433 552.518553,480.267061 584.183955,429.246244 C589.791947,420.209532 599.499379,415.277289 609.337974,416.106042 C598.996999,404.195113 597.879205,385.321231 609.13504,372.580548 C609.459924,372.212823 609.789461,371.85383 610.126446,371.50357 C616.006926,365.373525 633.436122,351.759936 638.099919,355.153874 C644.569657,359.86056 621.623032,379.697338 627.813501,380.235827 C657.602223,387.027583 674.183371,347.477249 679.943765,346.277049 C703.746817,341.314216 670.63479,413.224355 643.63876,426.807866 C639.410363,428.935214 634.582259,429.01313 629.082609,427.555662 C634.957916,435.876149 636.353114,447.350298 631.56719,457.435914 C620.024274,481.764226 601.60898,509.726355 561.274791,537.309575 C526.992678,560.753739 460.526659,575.827275 401.812113,575.487073 C438.072777,617.574903 475.009385,631.341382 501.800358,639.695876 C502.137228,639.503233 502.479787,639.331067 502.827662,639.17872 C591.98019,600.130322 629.106645,664.699777 742.42508,642.10735 C825.468801,625.551805 846.151259,516.177241 851.269171,466.926472 C852.669609,453.453798 863.696662,443.387121 876.580131,443.898655 C890.807389,444.462904 901.572556,457.594881 900.033747,472.472321 C898.505847,487.242743 895.921509,506.995475 891.594736,529.341881 C894.117008,523.188811 896.320105,517.608058 898.184113,512.763176 C902.713904,500.991181 914.23355,493.915679 926.221603,495.511451 C940.737566,497.442199 951.030433,511.311941 949.334317,526.584088 C928.321069,715.751474 882.114229,787.583692 808.556709,846.142873 C699.285059,933.134227 534.254619,866.854563 477.109861,839.454227 C471.538066,842.357011 464.962206,843.952459 457.133584,843.952459 C415.42506,843.952459 336.861912,793.522361 281.326018,701.578808 L279.65309,698.785751 L279.253382,699.981089 C265.898596,739.754367 248.760998,776.520452 233.044146,799.02975 C197.318197,850.196159 135.199008,887.225741 87.3489986,902.28445 C82.0541334,903.950422 76.5890072,903.535971 71.813613,901.436993 C67.0889908,909.422135 57.5481155,915.925324 40.3425296,919.427843 C16.125722,924.357326 11.4686436,892.721876 11.4686436,878.020187 C11.4686436,863.318497 16.125722,842.52791 41.2739453,843.513807 C53.7544822,844.003086 62.3352006,850.827037 67.8130294,859.374611 C69.3250925,858.308061 70.9894002,857.416765 72.789712,856.739178 C210.332439,804.982567 165.768455,573.600175 232.541164,513.174807 L232.547042,513.185803 C233.51848,511.294506 234.569769,509.427782 235.694044,507.589975 C231.540104,503.477406 227.991047,498.941354 224.957044,494.192652 C223.353508,493.759228 222.167823,493.414029 221.43301,493.191436 C220.833959,493.010152 220.313731,492.630041 219.945584,492.101784 C219.299748,491.174709 218.152477,489.336987 216.504139,485.9924 C214.206623,482.526226 211.14256,476.283849 208.259763,466.7936 C204.454855,454.268509 205.479075,453.130574 205.479075,453.130574 C205.497839,453.132693 205.8504,453.226574 206.514693,453.379161 C206.298348,451.688749 206.135107,450.188433 206.017197,448.947494 C205.866645,447.358689 206.91543,445.994575 208.312938,445.723693 C207.853136,442.382922 207.565504,439.461464 207.385543,437.113639 C190.382525,429.382495 177.393226,410.178491 182.200966,386.326537 C186.817788,363.422634 170.722624,358.75901 180.354238,353.676293 C181.561714,353.039032 183.245656,352.918755 185.044972,352.91777 L185.363622,352.918754 C186.322726,352.924934 187.308212,352.957992 188.266503,352.958918 L188.584852,352.957955 C191.122414,352.93944 193.424246,352.645805 194.474325,350.958038 C200.778077,340.827791 209.183813,332.705735 219.346003,327.769378 C212.25624,319.986066 244.159405,302.342137 266.976655,304.530413 C273.803905,305.185199 280.005657,306.904858 285.599422,309.448373 C292.496349,298.932953 304.089046,292.032 317.227009,292.032 C338.380477,292.032 355.52795,309.92224 355.52795,331.992 C355.52795,351.029857 342.768233,366.957665 325.684197,370.974633 C325.96213,373.591149 326.098978,376.143431 326.098978,378.598563 C326.098978,407.125522 293.766457,435.124257 276.214518,438.048 L275.876906,437.779468 C274.588734,438.752582 273.275648,439.676172 271.942467,440.547428 C271.411046,444.150078 271.388388,447.752068 271.696539,451.218139 C311.565256,441.418159 363.209828,413.388884 408.469301,339.922643 C501.585273,188.774441 618.72361,210.525978 704.900839,219.839282 C753.25515,225.066366 763.156253,193.636526 770.330428,166.736955 C771.940447,160.704729 778.700299,158.123393 783.610994,161.662117 Z M1048.53515,443.023359 C1071.66178,433.029147 1072.42661,447.194024 1062.44117,457.816449 C1010.52538,513.043988 959.073128,484.937115 953.510723,498.744 C953.510723,498.744 935.896438,473.102643 910.402078,486.416424 C902.729667,490.42338 910.922163,480.785188 910.402078,473.595746 C910.402078,473.595746 906.559383,425.48467 930.797566,424.285444 C970.661473,422.313032 989.202826,468.664716 1048.53515,443.023359 Z M931.025939,288.25734 C940.757624,364.927743 913.449585,407.511448 897.839219,430.956859 C892.499556,438.977144 884.065367,429.979967 860.928968,432.855938 C852.520491,433.902189 857.070453,429.040197 851.434193,425.159005 C851.434193,425.159005 826.565044,398.987087 848.253351,387.973605 C877.61094,373.064278 895.090876,356.153298 911.721426,291.030737 C918.204319,265.647172 929.153613,273.51213 931.025939,288.25734 Z" id="Flying-JS" fill="#FFFFFF"></path>
        </g>
    </g>
</svg>